<svg xmlns="http://www.w3.org/2000/svg" xmlns:xlink="http://www.w3.org/1999/xlink" width="871" height="638" viewBox="0 0 871 638">
  <defs>
    <clipPath id="clip-path">
      <rect id="Rectangle_310" data-name="Rectangle 310" width="871" height="638" transform="translate(871 638) rotate(180)" fill="#fff"/>
    </clipPath>
  </defs>
  <g id="المقدمة" clip-path="url(#clip-path)">
    <path id="Path_883" data-name="Path 883" d="M295.292,253.272h33.016V635.355H295.292Z" fill="rgba(75,56,76,0.75)"/>
    <path id="Path_884" data-name="Path 884" d="M148.562,253.272h33.016V635.355H148.562Z" fill="rgba(75,56,76,0.75)"/>
    <path id="Path_885" data-name="Path 885" d="M404.225,187.869v56.576H59.148V42.949H404.225v144.92Z" fill="#fff"/>
    <path id="Path_886" data-name="Path 886" d="M165.655,310.495V269.631a2.066,2.066,0,1,0-4.133,0v40.864a1.961,1.961,0,0,0,.57,1.5,1.987,1.987,0,0,0,.688.446,1.949,1.949,0,0,0,.807.124,2.066,2.066,0,0,0,2.068-2.067Z" fill="#2d2926"/>
    <path id="Path_887" data-name="Path 887" d="M301.871,310.495V269.631a2.067,2.067,0,0,0-4.134,0v40.864a1.955,1.955,0,0,0,2.067,2.067,2.069,2.069,0,0,0,2.067-2.067Z" fill="#2d2926"/>
    <path id="Path_888" data-name="Path 888" d="M165.655,42.949V2.067a2.066,2.066,0,1,0-4.133,0V42.949a2.066,2.066,0,1,0,4.133,0Z" fill="#2d2926"/>
    <path id="Path_889" data-name="Path 889" d="M301.871,42.949V2.067a2.067,2.067,0,1,0-4.134,0V42.949a2.067,2.067,0,0,0,4.134,0Z" fill="#2d2926"/>
    <path id="Path_890" data-name="Path 890" d="M59.166,244.444H404.243v25.385H59.166Z" fill="rgba(75,56,76,0.75)"/>
    <path id="Path_891" data-name="Path 891" d="M415.171,244.444a1.962,1.962,0,0,0-.571-1.5,1.962,1.962,0,0,0-1.5-.571H50.485a2.064,2.064,0,0,0-1.584.529,2.074,2.074,0,0,0,0,3.059,2.064,2.064,0,0,0,1.584.529H413.1a2.067,2.067,0,0,0,2.067-2.05Z" fill="#2d2926"/>
    <path id="Path_892" data-name="Path 892" d="M406.292,244.445v-56.4a2.067,2.067,0,0,0-2.893-2.084,2.078,2.078,0,0,0-.692.5,2.051,2.051,0,0,0-.433.737,2.084,2.084,0,0,0-.1.848v54.293H61.216V45.016h340.96v58.625a2.089,2.089,0,0,0,.1.849,2.068,2.068,0,0,0,2.8,1.235,2.064,2.064,0,0,0,1.222-2.084V42.949a1.942,1.942,0,0,0-2.049-2.067H59.166A1.961,1.961,0,0,0,57.1,42.949v201.5a1.947,1.947,0,0,0,.126.806,1.915,1.915,0,0,0,.446.685,1.937,1.937,0,0,0,1.5.558H404.243a2.066,2.066,0,0,0,2.049-2.049Z" fill="#2d2926"/>
    <path id="Path_893" data-name="Path 893" d="M278.542,156.911c9.076-7.444,9.076-19.776,9.076-20.441-.2-3.722.827-14.383,5.572-14.868a15.066,15.066,0,0,0,10.783-4.746,8.442,8.442,0,0,0,2.265-6.814c-.63-6.616-11.97-9.294-13.21-9.492a2.1,2.1,0,1,0-.827,4.117c3.721.827,9.705,3.308,9.9,5.789a4.315,4.315,0,0,1-1.24,3.721,11.467,11.467,0,0,1-7.836,3.29c-9.489.629-9.489,17.133-9.489,19,0,0,0,10.93-7.639,17.133-5.572,4.333-13.839,5.393-24.569,2.893a2.1,2.1,0,0,0-1.649.249,2.094,2.094,0,0,0-.617.587,2.128,2.128,0,0,0-.334.785,2.116,2.116,0,0,0,.347,1.631,2.107,2.107,0,0,0,1.426.866,45.872,45.872,0,0,0,11.358,1.456A27.875,27.875,0,0,0,278.542,156.911Z" fill="#2d2926"/>
    <path id="Path_894" data-name="Path 894" d="M265.547,116.442a2.679,2.679,0,1,1,2.678-2.678A2.678,2.678,0,0,1,265.547,116.442Z" fill="#2d2926"/>
    <path id="Path_895" data-name="Path 895" d="M276.887,116.64a2.679,2.679,0,1,1,2.679-2.679A2.678,2.678,0,0,1,276.887,116.64Z" fill="#2d2926"/>
    <path id="Path_896" data-name="Path 896" d="M258.107,180.443a2.579,2.579,0,0,0,.827-1.653l.826-18.373a1.962,1.962,0,1,0-3.918-.216l-.827,17.133c-2.677,1.24-12.186,4.961-23.742-3.093-.413-8.881,0-21.465,0-21.681a1.992,1.992,0,0,0-.827-1.8,1.9,1.9,0,0,0-1.8-.2,5.043,5.043,0,0,1-3.917-.215c-1.8-1.025-2.265-3.919-2.482-5.987-.2-2.48.217-4.333,1.457-5.16a7.386,7.386,0,0,1,6.182-.413,2.039,2.039,0,0,0,.948,0,2.071,2.071,0,0,0,.85-.417,2.2,2.2,0,0,0,.826-1.8l-2.48-26.23a1.937,1.937,0,0,0-.731-1.4,1.962,1.962,0,0,0-.724-.36,1.938,1.938,0,0,0-.809-.033,2.032,2.032,0,0,0-1.372.757,2.059,2.059,0,0,0-.365.712,2.017,2.017,0,0,0-.06.8l2.264,23.372a10.042,10.042,0,0,0-7.009,1.654c-2.282,1.654-3.307,4.745-3.109,8.665a11.012,11.012,0,0,0,4.349,9.079,8.17,8.17,0,0,0,4.745,1.043c-.216,4.53-.216,13.825,0,20.441a2.563,2.563,0,0,0,.827,1.653,30.26,30.26,0,0,0,17.973,6.4C253.165,182.925,257.693,180.03,258.107,180.443Z" fill="#2d2926"/>
    <path id="Path_897" data-name="Path 897" d="M244.932,68.963c38.984-2.481,40.834,29.2,40.834,29.2l-80.373,7.749C205.393,92.083,217.865,69.988,244.932,68.963Z" fill="#fcd299"/>
    <path id="Path_898" data-name="Path 898" d="M222.2,148.03a2.264,2.264,0,0,0-.827-2.9c-11.754-6.814-11.556-32.2-11.556-32.36a2.085,2.085,0,0,0-2.067-2.067,2.229,2.229,0,0,0-2.068,2.067c0,1.043-.2,28.082,13.624,35.956a1.793,1.793,0,0,0,1.042.215A3.069,3.069,0,0,0,222.2,148.03Z" fill="#2d2926"/>
    <path id="Path_899" data-name="Path 899" d="M223.239,77.017a5.837,5.837,0,0,0-1.653-4.135c-1.456-1.654-4.134-2.265-7.441-2.067a2.085,2.085,0,0,0,.413,4.135c2.894-.216,3.919.413,4.332.827a1.28,1.28,0,0,1,.414.827,2.118,2.118,0,0,0,.549,1.575,2.12,2.12,0,0,0,1.517.691A1.778,1.778,0,0,0,223.239,77.017Z" fill="#2d2926"/>
    <path id="Path_900" data-name="Path 900" d="M169.986,245.272l11.144-41.511a44.7,44.7,0,0,1,34.669-32l13.624-2.462a2.305,2.305,0,0,0,1.653-2.482,2.139,2.139,0,0,0-2.48-1.654l-13.624,2.481A48.047,48.047,0,0,0,177.23,202.52l-11.143,41.511a1.929,1.929,0,0,0-.072.792,1.939,1.939,0,0,0,1.509,1.671h.612a2.122,2.122,0,0,0,1.85-1.222Z" fill="#2d2926"/>
    <path id="Path_901" data-name="Path 901" d="M361.918,245.47l27.246-39.839a2.044,2.044,0,0,0,.323-.757,2.068,2.068,0,0,0,0-.822,2.037,2.037,0,0,0-.331-.755,2,2,0,0,0-.6-.561L348.1,174.871a2.189,2.189,0,0,0-1.653-.217c-.413.217-1.025.415-1.24,1.043l-24.964,48.918-14.666-30.76a49.427,49.427,0,0,0-37.15-27.667l-10.784-1.655a2,2,0,0,0-.61,3.938l10.782,1.653a45.123,45.123,0,0,1,34.06,25.385l16.5,34.481a2,2,0,0,0,1.8,1.241,2.143,2.143,0,0,0,1.8-1.043l25.809-50.571L384.509,205l-26.222,38.2a2.013,2.013,0,0,0,.023,2.323,2,2,0,0,0,.605.553,2.845,2.845,0,0,0,1.24.415,2.112,2.112,0,0,0,1.763-1.025Z" fill="#2d2926"/>
    <path id="Path_902" data-name="Path 902" d="M300,246.3a1.932,1.932,0,0,0,.738-.251,1.924,1.924,0,0,0,.915-2.014l-6.812-45.844a1.973,1.973,0,0,0-.268-.726,1.986,1.986,0,0,0-1.231-.891,1.986,1.986,0,0,0-2.418,2.246l6.812,45.825a2.188,2.188,0,0,0,2.067,1.8C300,246.495,300,246.495,300,246.3Z" fill="#2d2926"/>
    <path id="Path_903" data-name="Path 903" d="M380.088,199.428s4.133-6.814,6.6-10.93,8.466-8.468,10.119-10.121c5.392,3.091,11.36-10.536,13.21-13.627s3.919-9.494,2.894-11.561-3.307-1.8-6.2-.629c2.48-4.333,1.457-6.6.215-8.036s-3.307-1.457-5.39.2c1.455-4.333,1.041-8.252-2.265-9.708s-7.19,3.307-7.19,3.307l5.572-17.546a5.143,5.143,0,0,0-2.893-6.4,5.248,5.248,0,0,0-6.812,2.895L375.127,148.5s-9.489-2.7-13.209,1.653-1.025,12.171.215,17.745-5.392,15.478-5.392,15.478Z" fill="#fff"/>
    <path id="Path_904" data-name="Path 904" d="M380.088,201.5a3.01,3.01,0,0,0,1.24-1.025s4.134-6.814,6.6-10.949a45.842,45.842,0,0,1,7.639-7.837,5.711,5.711,0,0,1,1.24-1.043,6.569,6.569,0,0,0,2.893,0c4.547-1.439,8.051-7.641,11.143-13.412a14.024,14.024,0,0,0,.827-1.457c1.438-2.463,4.745-10.319,2.893-13.627a4.727,4.727,0,0,0-4.547-2.678,6.722,6.722,0,0,0-1.8-6.4,4.884,4.884,0,0,0-3.917-1.653c.2-3.92-1.242-6.814-4.35-8.252a5.766,5.766,0,0,0-4.116-.2l3.666-11.775a7.19,7.19,0,0,0-4.116-8.881,6.555,6.555,0,0,0-5.57,0,6.718,6.718,0,0,0-3.937,3.919l-12.168,29.735c-3.307-.612-10.119-1.24-13.623,2.678-3.918,4.549-2.265,11.561-.826,17.133.215.827.413,1.457.628,2.284.827,3.595-2.695,10.517-4.96,14.041a2.209,2.209,0,0,0,.611,2.875L378.9,201.154a2.826,2.826,0,0,0,1.24.413Zm-16.715-34.68-.63-2.481c-1.24-4.746-2.677-10.534-.2-13.412s9.076-1.653,11.143-1.042a2.1,2.1,0,0,0,2.48-1.241l12.8-31.173a3.2,3.2,0,0,1,1.653-1.654,2.607,2.607,0,0,1,2.462,0,3.186,3.186,0,0,1,1.8,3.937L389.308,137.3a2.191,2.191,0,0,0,1.025,2.463,1.921,1.921,0,0,0,2.677-.4c1.043-1.043,3.594-3.308,4.96-2.7,2.679,1.24,1.654,5.393,1.025,7.191a2.068,2.068,0,0,0,.827,2.265,1.8,1.8,0,0,0,2.48,0c.827-.612,1.8-1.223,2.677-.395.63.395,1.655,1.635-.413,5.573a1.794,1.794,0,0,0-.393,1.364,1.789,1.789,0,0,0,.717,1.224,2.173,2.173,0,0,0,2.48.414c2.894-1.24,3.307-.414,3.505-.2.611,1.24-.826,6.4-2.678,9.707a12.614,12.614,0,0,1-.827,1.637c-1.653,2.893-5.572,10.534-8.681,11.361a1.936,1.936,0,0,1-1.023-.2,2.213,2.213,0,0,0-2.482.395,15.693,15.693,0,0,1-1.8,1.653,49.976,49.976,0,0,0-8.465,8.882c-1.654,2.9-3.919,6.813-5.392,9.078L359.76,182.8C361.5,179.4,365.225,172.174,363.373,166.816Z" fill="#2d2926"/>
    <path id="Path_905" data-name="Path 905" d="M389.577,168.883c0,1.655,1.8,5.394,6.2,2.265,2.264-1.653,10.928-18.588,10.928-18.588" fill="#fff"/>
    <path id="Path_906" data-name="Path 906" d="M396.8,173c2.263-1.8,8.877-14.239,11.556-19.4a1.977,1.977,0,0,0-3.5-1.8c-3.919,7.623-9.077,16.72-10.317,17.745s-1.8,1.043-2.283.827-.611-1.025-.611-1.24a2.085,2.085,0,0,0-4.134-.415,5.92,5.92,0,0,0,2.894,5.161,3.3,3.3,0,0,0,2.265.629A8.168,8.168,0,0,0,396.8,173Z" fill="#2d2926"/>
    <path id="Path_907" data-name="Path 907" d="M388.552,153.89l5.572-14.85a2.081,2.081,0,0,0,.13-.8,2.091,2.091,0,0,0-1.36-1.882,2.068,2.068,0,0,0-.805-.129,2.076,2.076,0,0,0-1.454.666,2.04,2.04,0,0,0-.428.7l-5.572,14.867a2.142,2.142,0,0,0,1.222,2.68.745.745,0,0,0,.29.179.732.732,0,0,0,.338.036,2.493,2.493,0,0,0,2.067-1.457Z" fill="#2d2926"/>
    <path id="Path_908" data-name="Path 908" d="M382.981,162.07c-2.067,5.393,0,6.6,1.024,7.191a4.529,4.529,0,0,0,6.2-1.456c2.462-3.128,11.088-23.083,11.088-23.083" fill="#fff"/>
    <path id="Path_909" data-name="Path 909" d="M392.057,169.5c2.48-3.308,10.533-21.681,11.359-23.749a2.009,2.009,0,0,0,.171-.775,2.032,2.032,0,0,0-3.891-.862c-3.307,7.838-9.077,20.64-10.784,22.706a2.43,2.43,0,0,1-2.575,1.216,2.439,2.439,0,0,1-.93-.389c-.413-.215-1.455-.827,0-4.548a2.1,2.1,0,0,0-3.935-1.438c-1.8,4.746-1.24,8.054,1.8,9.689a7.746,7.746,0,0,0,3.289.828,7.491,7.491,0,0,0,5.5-2.678Z" fill="#2d2926"/>
    <path id="Path_910" data-name="Path 910" d="M374.1,160.417,388.14,163.1a4.134,4.134,0,0,0,4.744-2.894,3.973,3.973,0,0,0-2.265-5.16,155.338,155.338,0,0,0-15.492-6.6" fill="#fff"/>
    <path id="Path_911" data-name="Path 911" d="M394.951,160.83a6.256,6.256,0,0,0-3.6-7.641c-1.653-.629-3.109-1.438-4.547-2.067-3.307-1.439-6.4-2.895-11.143-4.549a2.1,2.1,0,0,0-1.456,3.937,92.669,92.669,0,0,1,10.784,4.333c1.438.611,3.092,1.241,4.745,2.068a2.068,2.068,0,0,1,1.24,2.678,2.247,2.247,0,0,1-2.48,1.438l-14.036-2.678a2,2,0,0,0-.833-.032A2.02,2.02,0,0,0,371.981,160a2.159,2.159,0,0,0,1.655,2.482l14.036,2.678a2.712,2.712,0,0,0,1.24.2,6.381,6.381,0,0,0,6.039-4.53Z" fill="#2d2926"/>
    <path id="Path_912" data-name="Path 912" d="M394.322,171.976c-.826,4.746,2.282,6.4,2.282,6.4Z" fill="#fff"/>
    <path id="Path_913" data-name="Path 913" d="M398.456,179.4a2.086,2.086,0,0,0-.827-2.877,3.593,3.593,0,0,1-1.24-4.135,2.142,2.142,0,0,0-1.653-2.481,2.158,2.158,0,0,0-2.482,1.655c-1.222,6.184,3.11,8.664,3.308,8.664a1.793,1.793,0,0,0,1.042.216,2.142,2.142,0,0,0,1.852-1.042Z" fill="#2d2926"/>
    <path id="Path_914" data-name="Path 914" d="M437.241,635.319h366.14s72.61,2.769,64.882-85.09-70.22-101.5-70.22-101.5,45.112-38.006,21.963-110.222-62.329-131.6-115.726-122.7c0,0-44.716,3.776-85.659,31.281A432.2,432.2,0,0,0,574.5,280.13a257.4,257.4,0,0,0-25.916,25.17c-69.627,78.743-98.113,207.176-98.113,207.176s-43.926,18.607-62.132,55.731C372.718,600.495,390.925,635.319,437.241,635.319Z" fill="#fff"/>
    <path id="Path_915" data-name="Path 915" d="M437.241,635.319h366.14s72.61,2.769,64.882-85.09-70.22-101.5-70.22-101.5,45.112-38.006,21.963-110.222-62.329-131.6-115.726-122.7" fill="#fff"/>
    <path id="Path_916" data-name="Path 916" d="M804.37,637.3c5.392,0,30.068-.989,48.077-19.973,14.378-15.246,20.579-38.005,17.973-67.489-6.722-76.387-54.979-97.746-68.441-102.1,9.292-9.707,39.954-47.5,19.986-109.826-12.473-39.191-28.756-71.049-46.891-92.424-21.567-25.169-45.507-35.811-71.207-31.658a1.9,1.9,0,0,0-1.667,1.423,1.924,1.924,0,0,0,.236,1.494,1.91,1.91,0,0,0,.538.555,1.932,1.932,0,0,0,.713.3,1.912,1.912,0,0,0,.772-.013c45.094-7.514,86.449,36.819,113.552,121.315,22.34,70.114-20.974,107.652-21.369,108.047a1.8,1.8,0,0,0-.594,1.977,1.672,1.672,0,0,0,1.582,1.385c.593.2,61.323,14.239,68.638,99.722,2.57,28.3-3.163,49.871-16.8,64.308-18.6,19.4-45.7,18.606-46.1,18.8H437.007a1.978,1.978,0,0,0,0,3.955H803.381A1.477,1.477,0,0,0,804.37,637.3Z" fill="#2d2926"/>
    <path id="Path_917" data-name="Path 917" d="M548.582,307.242a1.807,1.807,0,0,0,.894-.188,1.787,1.787,0,0,0,.687-.6c15.637-20.782,69.052-57.384,69.645-57.528a2.014,2.014,0,0,0-2.174-3.381c-2.194,1.6-54.6,37.214-70.436,58.59a2.126,2.126,0,0,0,.4,2.769C547.792,307.242,548.187,307.242,548.582,307.242Z" fill="#2d2926"/>
    <path id="Path_918" data-name="Path 918" d="M630.088,234.791s-13.838-2.769-15.637,2.174,6.741,11.884,7.191,15.048c.592,6.329-9.706,46.294,25.718,50.338l1.187.2L646.965,317.2s10.676,8.7,23.525,5.394c3.38-5.933,12.079-22.365,12.079-22.365s12.581,13.861,19.393-4.548c2.569-7.317-1.4-17.4-11.288-15.624l10.694-29.483-69.3-21.9Z" fill="#fff"/>
    <path id="Path_919" data-name="Path 919" d="M394.106,400.438s0,5.932,5.392,6.526c0,0,5.536,1.8,10.281-4.943s36.412-19.992,44.931-18.608,0-29.484,0-29.484a44.919,44.919,0,0,1-21.065-3.361c-9.686-4.548-34.812-7.317-47.285,8.7s-16.8,36.819-12.061,40.181a6.091,6.091,0,0,0,8.7-.792l.989-1.187s-.4,7.911,6.146,5.933a4.8,4.8,0,0,0,2.768-1.8Z" fill="#fff"/>
    <path id="Path_920" data-name="Path 920" d="M645.329,520.746c3.757-8.7,14.235-39.372,14.235-39.372l1.384-4.746a29.6,29.6,0,0,0,21.369-20.387l21.568-73.62a49.9,49.9,0,0,0-17.614-53.627L672.81,318.71,647.648,311.2l-25.323-1.385a47.881,47.881,0,0,0-39.379,17.4l-21.568,26.518-21.172,30.076-55.985-24.736-28.415-12.819-5.14,44.531Z" fill="#fff"/>
    <path id="Path_921" data-name="Path 921" d="M399.624,409.176a2.106,2.106,0,0,0,1.977-1.8,1.935,1.935,0,0,0-.069-.779,1.951,1.951,0,0,0-.976-1.181,1.924,1.924,0,0,0-.752-.214c-3.362-.4-3.595-4.154-3.595-4.549a1.979,1.979,0,0,0-3.955,0,8.181,8.181,0,0,0,7.191,8.305C399.5,409.176,399.5,409.176,399.624,409.176Z" fill="#2d2926"/>
    <path id="Path_922" data-name="Path 922" d="M436.611,586.239l.63,49.277H287.1s-13.659.2-13.462-9.888,82.494-24.935,100.5-26.715c6.524-11.074,13.245-24.935,13.245-24.935Z" fill="#fff"/>
    <path id="Path_923" data-name="Path 923" d="M286.863,637.3H437.241a2.03,2.03,0,0,0,1.976-1.977l-.592-49.277a2.087,2.087,0,0,0-1.582-1.978L387.78,571.8a1.8,1.8,0,0,0-2.175.989c0,.2-6.326,13.25-12.581,23.947-9.489.987-33.429,4.943-56.183,10.086-44.931,10.1-45.111,15.837-45.111,18.408a10.272,10.272,0,0,0,2.966,7.515C278.559,637.1,285.677,637.3,286.863,637.3Zm148.365-3.955H287.061s-6.525,0-9.688-3.164a6.42,6.42,0,0,1-1.8-4.746c0-.2,1.187-5.394,42.524-14.652a561.994,561.994,0,0,1,56.237-10.086,2.006,2.006,0,0,0,1.581-.988c5.392-8.99,10.676-19.775,12.581-23.749l46.3,11.488Z" fill="#2d2926"/>
    <path id="Path_924" data-name="Path 924" d="M457.784,432.546,453.039,604.5,338.014,582.535,366.3,449.77c5.392-24.936,28.289-39.552,49.838-31.857Z" fill="#fcd299"/>
    <path id="Path_925" data-name="Path 925" d="M402.985,589.224l-11.072,46.292H241.751s-13.641.2-13.443-9.888,82.5-24.935,100.486-26.715c6.541-11.074,13.263-24.935,13.263-24.935Z" fill="#fff"/>
    <path id="Path_926" data-name="Path 926" d="M241.338,637.3H391.715a1.923,1.923,0,0,0,1.978-1.582l11.071-46.293a2.069,2.069,0,0,0-1.384-2.391L342.453,571.8a1.795,1.795,0,0,0-2.265.971c0,.2-6.326,13.249-12.67,23.946-9.491.988-33.43,4.944-56.183,10.085-44.933,10.1-45.094,15.839-45.094,18.41a10.287,10.287,0,0,0,2.965,7.515C233.251,637.1,240.367,637.3,241.338,637.3Zm148.778-3.956H241.536s-6.524,0-9.688-3.164a6.42,6.42,0,0,1-1.8-4.746c0-.2,1.186-5.393,42.524-14.652a562.409,562.409,0,0,1,56.183-10.085,2.012,2.012,0,0,0,1.581-.988c5.392-8.99,10.694-19.777,12.581-23.749l57.512,14.256Z" fill="#2d2926"/>
    <path id="Path_927" data-name="Path 927" d="M653.633,493.437l-193.28-98.644a49.7,49.7,0,0,0-63.1,15.227l-88.227,163.6,107.835,31.264,36.378-127.39,115.924,74.984a48.523,48.523,0,0,0,74.963-26.121Z" fill="#fcd299"/>
    <path id="Path_928" data-name="Path 928" d="M624.355,226.5l76.959,24.146-10.5,29.681s8.7-1.582,11.485,6.921c.988,3.361-1.2,13.844-6.345,17.223s-13.246-3.974-13.246-3.974l-6.326,11.686s32.836,9.492,47.268-18.409c5.14-12.584,8.52-42.931-7.512-51.453-1.582-18.193-9.886-30.076-30.266-36.4C653.238,196.031,624.355,226.5,624.355,226.5Z" fill="#fcd299"/>
    <path id="Path_929" data-name="Path 929" d="M653.435,305.065h2.372a2,2,0,0,0,0-3.973c-11.484.4-20.183-2.372-25.521-8.107-9.292-9.889-7.71-26.518-6.721-35.417.2-2.372.4-4.153.4-5.141a14.866,14.866,0,0,0-3.361-6.148c-1.978-2.769-4.566-6.132-3.757-8.109s7.513-2.175,13.246-.989a2.012,2.012,0,0,0,2.071-.855,2.011,2.011,0,0,0,.3-1.513,2.018,2.018,0,0,0-1.581-1.586c-2.571-.594-15.835-2.769-17.813,3.594-1.382,3.956,1.8,8.307,4.369,11.884a14.753,14.753,0,0,1,2.569,4.153c0,.792-.2,2.571-.4,4.548-.989,9.493-2.768,27.309,7.908,38.383C633.054,301.884,641.95,305.065,653.435,305.065Z" fill="#2d2926"/>
    <path id="Path_930" data-name="Path 930" d="M664.506,325.632a24.593,24.593,0,0,0,6.525-.79c.592-.2.987-.4,1.185-.989,2.588-4.549,8.322-15.425,10.892-19.974,2.372,1.978,6.524,4.549,10.873,3.6s7.531-4.369,9.9-10.787a15.4,15.4,0,0,0-2.373-14.635,11.748,11.748,0,0,0-11.286-3.756,2.017,2.017,0,0,0-1.282,3.1,2.047,2.047,0,0,0,.557.556,2.029,2.029,0,0,0,1.515.3,7.327,7.327,0,0,1,7.512,2.373A11.224,11.224,0,0,1,700.11,295.3c-1.8,4.748-4.152,7.515-6.92,8.127-4.547.79-9.292-4.171-9.292-4.171a1.791,1.791,0,0,0-1.8-.593,2.006,2.006,0,0,0-1.581.988c0,.2-7.927,15.047-11.485,21.574-9.292,2.175-17.6-2.769-20.165-4.548l1.383-13.448a1.995,1.995,0,1,0-3.953-.414l-1.582,14.652a2.128,2.128,0,0,0,.177,1,2.159,2.159,0,0,0,.613.8C646.12,319.287,654.028,325.632,664.506,325.632Z" fill="#2d2926"/>
    <path id="Path_931" data-name="Path 931" d="M656.6,254.207a2.769,2.769,0,1,1,2.768-2.769A2.768,2.768,0,0,1,656.6,254.207Z" fill="#2d2926"/>
    <path id="Path_932" data-name="Path 932" d="M644.322,252.229a2.769,2.769,0,1,1,2.768-2.768A2.768,2.768,0,0,1,644.322,252.229Z" fill="#2d2926"/>
    <path id="Path_933" data-name="Path 933" d="M653.83,479.6a32.368,32.368,0,0,0,10.478-1.8,30.9,30.9,0,0,0,19.77-20.982L705.646,383.2a52.142,52.142,0,0,0-18.206-55.606L674,317.308a2,2,0,0,0-.7-.346,1.964,1.964,0,0,0-.778-.045,1.985,1.985,0,0,0-1.439,2.986,1.96,1.96,0,0,0,.525.571l13.462,10.282a48.063,48.063,0,0,1,16.84,51.453L680.34,455.828A27.532,27.532,0,0,1,638,470.463l-89.019-63.086,28.289-54.022,66.661,57.96a1.938,1.938,0,0,0,1.435.493,2.054,2.054,0,0,0,1.742-1.355,1.892,1.892,0,0,0,.1-.762,1.921,1.921,0,0,0-.689-1.342l-68.458-59.561a1.543,1.543,0,0,0-1.581-.4c-.594.2-1.187.4-1.384.989l-30.267,57.781a2.161,2.161,0,0,0,.594,2.571l90.4,64.162A31.4,31.4,0,0,0,653.83,479.6Z" fill="#2d2926"/>
    <path id="Path_934" data-name="Path 934" d="M532.964,308.824,484.1,310.6l14.234,90.231,50.252-1.384Z" fill="#fff"/>
    <path id="Path_935" data-name="Path 935" d="M498.348,402.811l50.324-1.384a1.329,1.329,0,0,0,1.383-.79,1.546,1.546,0,0,0,.4-1.582L534.743,308.5a1.8,1.8,0,0,0-1.978-1.582l-49.065,1.8a1.333,1.333,0,0,0-1.384.792,1.545,1.545,0,0,0-.4,1.582l14.235,90.231a2.619,2.619,0,0,0,2.192,1.491Zm47.88-5.141-46.3,1.186-13.641-86.293,45.113-1.582Z" fill="#2d2926"/>
    <path id="Path_936" data-name="Path 936" d="M571.137,360.869S559.869,354.325,555.1,348.2c-6.128-7.91-14.827-11.866-17.4-11.866.592,3.758,1.8,10.284,1.8,10.284s-36.2-6.921-49.461-3.164c-3.954,1.186-3.954,7.317-.594,9.294-7.512.2-6.92,10.1-1.384,12.081a6.58,6.58,0,0,0,3.361,12.459c-5.391,3.757-4.942,12.476,4.547,11.291s47.683,4.152,56.183,8.9C555.3,391.341,571.137,360.869,571.137,360.869Z" fill="#fff"/>
    <path id="Path_937" data-name="Path 937" d="M552.14,399.252h.594a2.033,2.033,0,0,0,1.186-.989l19-36.4a1.909,1.909,0,0,0-.21-2.118,1.914,1.914,0,0,0-.58-.471c-.2,0-11.072-6.526-15.439-12.262-6.524-8.5-15.815-12.584-18.978-12.584a1.8,1.8,0,0,0-1.582.792,1.543,1.543,0,0,0-.4,1.582l1.186,7.317c-8.985-1.582-35.945-5.933-47.484-2.571a5.936,5.936,0,0,0-4.349,5.537,8.9,8.9,0,0,0,.791,4.548,7.187,7.187,0,0,0-3.7,5.412,8.878,8.878,0,0,0,2.569,7.73,8.991,8.991,0,0,0-1.976,7.712,8.315,8.315,0,0,0,4.744,5.933,7.985,7.985,0,0,0-.989,7.515c1.384,3.38,4.944,4.962,9.886,4.368,9.508-1.185,47.089,4.351,55,8.7C551.547,399.252,551.745,399.252,552.14,399.252Zm16.427-37.593-17.415,33.134c-11.664-4.944-46.478-9.51-55.59-8.324-2.966.4-4.942-.395-5.734-1.977a5.4,5.4,0,0,1,2.373-5.735,1.941,1.941,0,0,0-1.186-3.6,4.19,4.19,0,0,1-4.745-3.6,4.405,4.405,0,0,1,2.373-5.141,1.987,1.987,0,0,0,.911-.8,1.967,1.967,0,0,0,.274-1.18,1.793,1.793,0,0,0-1.384-1.8,4.8,4.8,0,0,1-2.766-5.159,3.215,3.215,0,0,1,3.594-2.967,1.8,1.8,0,0,0,1.8-1.583,1.98,1.98,0,0,0-.131-1.251,2,2,0,0,0-.856-.924A3.955,3.955,0,0,1,488.5,347.4a2.4,2.4,0,0,1,1.582-2.176c12.67-3.6,48.076,3.164,48.526,3.363a1.6,1.6,0,0,0,1.8-.594,2.771,2.771,0,0,0,.594-1.8l-1.187-7.191a34.156,34.156,0,0,1,13.444,10.481A90.9,90.9,0,0,0,568.567,361.659Z" fill="#2d2926"/>
    <path id="Path_938" data-name="Path 938" d="M522.468,357.688a2.105,2.105,0,0,0,1.977-1.8,1.819,1.819,0,0,0-.011-.8,1.8,1.8,0,0,0-1.786-1.371c-6.92-.989-32.046-2.966-33.035-3.164a2,2,0,0,0-1.2,3.777,2.015,2.015,0,0,0,.8.178c.2,0,25.918,2.176,32.836,2.966A.611.611,0,0,0,522.468,357.688Z" fill="#2d2926"/>
    <path id="Path_939" data-name="Path 939" d="M523.509,369.769a2.1,2.1,0,0,0,1.978-1.8,1.956,1.956,0,0,0-.436-1.471,1.962,1.962,0,0,0-1.362-.7c-10.478-1.187-35.208-3.361-35.405-3.361-.989-.2-1.978.79-2.176,1.8a2.158,2.158,0,0,0,1.8,2.176c.2,0,24.929,2.175,35.209,3.362Z" fill="#2d2926"/>
    <path id="Path_940" data-name="Path 940" d="M527.213,381.831a1.921,1.921,0,0,0,1.976-1.582,2.178,2.178,0,0,0-1.581-2.373c-7.908-1.385-34.814-2.769-35.946-2.769a1.959,1.959,0,0,0-1.976,1.8,2.158,2.158,0,0,0,1.8,2.174c.2,0,27.894,1.385,35.6,2.769Z" fill="#2d2926"/>
    <path id="Path_941" data-name="Path 941" d="M647.7,311.592l-25.342-1.3a47.869,47.869,0,0,0-39.378,17.4l-21.567,26.517" fill="#fff"/>
    <path id="Path_942" data-name="Path 942" d="M561.253,356.106a1.8,1.8,0,0,0,1.582-.792L584.4,328.8a45.539,45.539,0,0,1,37.743-16.611l25.323,1.385a2,2,0,0,0,.4-3.956L622.54,308.23a49.405,49.405,0,0,0-40.925,18.248l-21.566,26.517a2.1,2.1,0,0,0,.2,2.769A1.516,1.516,0,0,0,561.253,356.106Z" fill="#2d2926"/>
    <path id="Path_943" data-name="Path 943" d="M661.343,476.628s-12.06,35.417-16.014,44.118Z" fill="#fff"/>
    <path id="Path_944" data-name="Path 944" d="M645.329,522.724a1.912,1.912,0,0,0,1.8-1.187c3.756-8.7,15.618-42.931,16.013-44.316a2,2,0,0,0-3.756-1.384c-.2.4-12.257,35.614-16.032,44.118a1.96,1.96,0,0,0,.989,2.571A1.79,1.79,0,0,0,645.329,522.724Z" fill="#2d2926"/>
    <path id="Path_945" data-name="Path 945" d="M416.824,607.022a2.392,2.392,0,0,0,1.995-1.384l35.8-124.856,32.441,20.962a1.918,1.918,0,0,0,1.513.31,2,2,0,0,0,.661-3.673l-34.615-22.346a1.926,1.926,0,0,0-1.8-.2,2.083,2.083,0,0,0-1.186,1.384L415.224,604.649a1.791,1.791,0,0,0,.142,1.507,1.769,1.769,0,0,0,.525.57,1.8,1.8,0,0,0,.717.3Z" fill="#2d2926"/>
    <path id="Path_946" data-name="Path 946" d="M453.417,479.6a1.8,1.8,0,0,0,1.581-.989,1.941,1.941,0,0,0-.593-2.769l-15.241-9.707a2,2,0,1,0-2.174,3.361l15.24,9.709a1.469,1.469,0,0,0,1.187.395Z" fill="#2d2926"/>
    <path id="Path_947" data-name="Path 947" d="M354.71,490.866a2.091,2.091,0,0,0,1.8-.988l39.4-73.224a2.051,2.051,0,0,0-3.594-1.977L352.931,487.9a2,2,0,0,0-.2,1.553,2.012,2.012,0,0,0,.369.709,1.954,1.954,0,0,0,.617.507A1.789,1.789,0,0,0,354.71,490.866Z" fill="#2d2926"/>
    <path id="Path_948" data-name="Path 948" d="M450.469,393.122a2.1,2.1,0,0,0,1.976-1.8l4.746-41.762,25.916,11.883a1.964,1.964,0,1,0,1.582-3.6L456.2,344.995a2.74,2.74,0,0,0-1.8,0,1.558,1.558,0,0,0-.988,1.581L448.3,391.2a1.954,1.954,0,0,0,.068.779,1.958,1.958,0,0,0,.976,1.182,1.994,1.994,0,0,0,.753.214Z" fill="#2d2926"/>
    <path id="Path_949" data-name="Path 949" d="M451.26,384.006s-5.554.989-14.253,7.192c-12.059,8.5-20.776,12.063-28.756,10.786-4.547-.988-5.536-8.108-.989-10.481a121.008,121.008,0,0,0,16.428-13.07" fill="#fff"/>
    <path id="Path_950" data-name="Path 950" d="M411.288,404.2c7.332,0,15.636-3.6,27.1-11.47,8.123-5.753,13.462-6.741,13.462-6.741a2.05,2.05,0,0,0,1.581-2.374,1.961,1.961,0,0,0-2.175-1.582c-.2,0-6.146.989-15.043,7.335-11.862,8.306-19.985,11.47-27.1,10.679a3.143,3.143,0,0,1-2.174-2.967,3.687,3.687,0,0,1,1.977-3.954,125.764,125.764,0,0,0,16.822-13.467,1.952,1.952,0,0,0,.462-.635,1.986,1.986,0,0,0,.174-.765,1.95,1.95,0,0,0-.141-.774,1.971,1.971,0,0,0-.432-.656,1.94,1.94,0,0,0-.656-.432,1.956,1.956,0,0,0-2.175.495c-5.751,5.933-16.031,12.584-16.031,12.871a7.77,7.77,0,0,0-3.757,7.712,7.462,7.462,0,0,0,5.392,6.33h.2A6.9,6.9,0,0,0,411.288,404.2Z" fill="#2d2926"/>
    <path id="Path_951" data-name="Path 951" d="M378.452,403.009a8.467,8.467,0,0,0,2.373-.395c4.152-1.385,7.315-6.328,10.3-15.245a43.427,43.427,0,0,1,11.664-18.787c5.535,9.69,17.811,13.842,18.206,14.04a2,2,0,0,0,1.384-3.757c-.2,0-13.066-4.548-17.02-14.239a1.811,1.811,0,0,0-.446-.74,1.791,1.791,0,0,0-.74-.445,2.087,2.087,0,0,0-1.581.2c-.4.2-10.083,7.191-15.044,22.347-3.163,9.9-6.129,12.278-7.71,12.584a4.474,4.474,0,0,1-3.954-.989,3.781,3.781,0,0,1-.791-1.977c-.989-6.328,3.163-21.97,13.444-35.219,11.484-14.85,35.226-12.675,44.931-8.126a47,47,0,0,0,21.963,3.6,1.993,1.993,0,0,0,1.467-.663,2.037,2.037,0,0,0,.411-.713,2.005,2.005,0,0,0,.089-.818,2,2,0,0,0-2.362-1.761,44.9,44.9,0,0,1-19.985-3.164c-10.478-4.944-36.791-7.317-49.66,9.295-10.28,13.268-15.42,30.274-14.233,38.2a7.745,7.745,0,0,0,2.371,4.747A7.187,7.187,0,0,0,378.452,403.009Z" fill="#2d2926"/>
    <path id="Path_952" data-name="Path 952" d="M388.337,405.778a9.887,9.887,0,0,0,2.391-.4c5.535-1.582,8.5-9.295,10.873-15.426a41.927,41.927,0,0,1,2.57-5.753,17.979,17.979,0,0,1,8.3-6.921,2.142,2.142,0,0,0,1.384-2.374,2.032,2.032,0,0,0-2.372-1.384,21.278,21.278,0,0,0-10.478,8.5,42.289,42.289,0,0,0-2.965,6.545c-1.978,5.141-4.547,12.063-8.3,13.051a2.792,2.792,0,0,1-2.588-.2,5.846,5.846,0,0,1-1.187-3.956,1.961,1.961,0,0,0-1.8-1.977,1.8,1.8,0,0,0-1.824,1.066,1.779,1.779,0,0,0-.152.732c0,.594-.2,4.944,2.57,7.192a4.911,4.911,0,0,0,3.576,1.294Z" fill="#2d2926"/>
    <path id="Path_953" data-name="Path 953" d="M687.655,475.046s-34.022,87.066-195.9,46.491c0,0,14.38,58.967,67.866,72.235C625.739,610.186,678.364,573.978,687.655,475.046Z" fill="#fff"/>
    <path id="Path_954" data-name="Path 954" d="M570.347,534.212c38.372,0,64.288-9.116,81.309-19,29.079-16.828,37.743-38.581,37.976-39.372a2,2,0,0,0-1.187-2.57,1.965,1.965,0,0,0-.771-.122,2,2,0,0,0-1.8,1.307c0,.2-8.7,21.574-36.593,37.593-25.916,15.029-74.191,28.495-156.884,7.712a1.942,1.942,0,0,0-.988,3.757C522.072,531.048,548.384,534.212,570.347,534.212Z" fill="#2d2926"/>
    <path id="Path_955" data-name="Path 955" d="M716.142,244.7a2.791,2.791,0,0,0,1.186-.4,12.1,12.1,0,0,1,11.071-1.384,1.994,1.994,0,0,0,.806.2,2.014,2.014,0,0,0,2.076-2.13,2.012,2.012,0,0,0-.741-1.446,2.014,2.014,0,0,0-.739-.379,16.622,16.622,0,0,0-14.846,2.175,2.12,2.12,0,0,0-.4,2.769A3.792,3.792,0,0,0,716.142,244.7Z" fill="#2d2926"/>
    <path id="Path_956" data-name="Path 956" d="M2.409,636.686H750.775a1.978,1.978,0,0,0,0-3.956H2.211a1.777,1.777,0,0,0-.789.093,1.794,1.794,0,0,0-1.1,1.1,1.794,1.794,0,0,0-.092.789A2.026,2.026,0,0,0,.9,636.162a2.027,2.027,0,0,0,1.51.524Z" fill="#2d2926"/>
  </g>
</svg>
