<svg id="Group_2" data-name="Group 2" xmlns="http://www.w3.org/2000/svg" xmlns:xlink="http://www.w3.org/1999/xlink" width="191.656" height="53.51" viewBox="0 0 191.656 53.51">
  <defs>
    <clipPath id="clip-path">
      <rect id="Rectangle_3" data-name="Rectangle 3" width="191.656" height="53.51" fill="none"/>
    </clipPath>
  </defs>
  <g id="Group_1" data-name="Group 1" clip-path="url(#clip-path)">
    <path id="Path_1" data-name="Path 1" d="M2.513,22.762a2.545,2.545,0,0,1-1.785-.669,2.5,2.5,0,0,1,0-3.528A2.553,2.553,0,0,1,2.513,17.9a2.537,2.537,0,0,1,1.8.669,2.538,2.538,0,0,1,0,3.528,2.529,2.529,0,0,1-1.8.669" transform="translate(0 14.024)" fill="#ffa400"/>
    <path id="Path_2" data-name="Path 2" d="M4.034,34.951A.964.964,0,0,1,3,35.863H.331V39.3H3.747a3.97,3.97,0,0,0,2.647-.928,4.065,4.065,0,0,0,1.37-2.479l3.148-17.756H7Z" transform="translate(0.259 14.212)" fill="#2d2926"/>
    <path id="Path_3" data-name="Path 3" d="M23.135,29.329V18.322H19.286v1.825h-.558a4.771,4.771,0,0,0-1.63-1.566,6.141,6.141,0,0,0-3.212-.685,6.908,6.908,0,0,0-3.43.9A6.6,6.6,0,0,0,7.9,21.424a8.515,8.515,0,0,0-.963,4.2v.487A8.523,8.523,0,0,0,7.9,30.3a6.635,6.635,0,0,0,2.545,2.629,6.85,6.85,0,0,0,3.444.9,6.03,6.03,0,0,0,3.43-.8,4.853,4.853,0,0,0,1.691-1.932h.56v.03A2.061,2.061,0,0,0,20.3,32.8a2.784,2.784,0,0,0,1.846.608h3.1V30.243H24q-.87,0-.869-.913m-3.849-3.314a4.4,4.4,0,0,1-1.2,3.33,4.209,4.209,0,0,1-3.027,1.14,4.22,4.22,0,0,1-3.009-1.14,4.357,4.357,0,0,1-1.211-3.33v-.3a4.352,4.352,0,0,1,1.211-3.33,4.221,4.221,0,0,1,3.009-1.142,4.222,4.222,0,0,1,3.011,1.142,4.352,4.352,0,0,1,1.211,3.33Z" transform="translate(5.432 14.024)" fill="#2d2926"/>
    <path id="Path_4" data-name="Path 4" d="M22.235,15.246h-3.91V32.075a3.312,3.312,0,0,0,.945,2.479,3.381,3.381,0,0,0,2.469.926h4.345V32.317H23.1q-.87,0-.869-.911V23.561h4.222V20.4H22.235Z" transform="translate(14.361 11.948)" fill="#2d2926"/>
    <path id="Path_5" data-name="Path 5" d="M36.351,20.961a6.033,6.033,0,0,0-3.15-.806,6.738,6.738,0,0,0-2.251.319,4.11,4.11,0,0,0-1.411.806,3.505,3.505,0,0,0-.776.974H28.2V15.246h-3.91V35.48H28.2V27.817A4.9,4.9,0,0,1,29.2,24.55a3.46,3.46,0,0,1,2.793-1.172,3.3,3.3,0,0,1,2.436.853,3.462,3.462,0,0,1,.854,2.554v8.7h3.91v-9a7,7,0,0,0-.744-3.3,5.545,5.545,0,0,0-2.1-2.219" transform="translate(19.038 11.948)" fill="#2d2926"/>
    <path id="Path_6" data-name="Path 6" d="M63.029,18.591A5.615,5.615,0,0,0,60.437,18a4.915,4.915,0,0,0-2.731.639,4.465,4.465,0,0,0-1.489,1.611h-.56a4.207,4.207,0,0,0-1.52-1.627A4.919,4.919,0,0,0,51.5,18a4.706,4.706,0,0,0-2.453.562,3.489,3.489,0,0,0-1.334,1.323h-.558V18.242H43.305V33.324h3.91V24.415a3.531,3.531,0,0,1,.73-2.388,2.6,2.6,0,0,1,2.064-.835,2.545,2.545,0,0,1,1.832.622,2.472,2.472,0,0,1,.651,1.871v9.639H56.4V24.415a3.522,3.522,0,0,1,.73-2.388,2.592,2.592,0,0,1,2.064-.835,2.545,2.545,0,0,1,1.832.622,2.479,2.479,0,0,1,.651,1.871v9.639H65.59V23.411a5.946,5.946,0,0,0-.7-3.025,4.491,4.491,0,0,0-1.862-1.794" transform="translate(33.936 14.105)" fill="#2d2926"/>
    <path id="Path_7" data-name="Path 7" d="M69.371,18.809a9.788,9.788,0,0,0-8.257,0,6.913,6.913,0,0,0-2.886,2.645,7.85,7.85,0,0,0-1.056,4.165v.487a7.856,7.856,0,0,0,1.056,4.167,6.913,6.913,0,0,0,2.886,2.645,9.8,9.8,0,0,0,8.257,0,6.934,6.934,0,0,0,2.886-2.645,7.872,7.872,0,0,0,1.054-4.167v-.487a7.865,7.865,0,0,0-1.054-4.165,6.934,6.934,0,0,0-2.886-2.645m.03,7.206a4.346,4.346,0,0,1-1.179,3.269,4.465,4.465,0,0,1-5.959,0,4.339,4.339,0,0,1-1.179-3.269v-.3a4.336,4.336,0,0,1,1.179-3.269,4.483,4.483,0,0,1,5.973,0A4.364,4.364,0,0,1,69.4,25.712Z" transform="translate(44.804 14.024)" fill="#2d2926"/>
    <path id="Path_8" data-name="Path 8" d="M82.315,20.4H77.225l-5.089,5.565h-.56V15.245h-3.91V35.481h3.91V29.49h.56l5.4,5.991h5.028L75.207,27.7Z" transform="translate(53.027 11.947)" fill="#2d2926"/>
    <path id="Path_9" data-name="Path 9" d="M92.168,29.329V18.322H88.319v1.825H87.76a4.771,4.771,0,0,0-1.63-1.566,6.141,6.141,0,0,0-3.212-.685,6.908,6.908,0,0,0-3.43.9,6.6,6.6,0,0,0-2.56,2.631,8.515,8.515,0,0,0-.963,4.2v.487a8.523,8.523,0,0,0,.963,4.2,6.635,6.635,0,0,0,2.545,2.629,6.85,6.85,0,0,0,3.444.9,6.03,6.03,0,0,0,3.43-.8,4.853,4.853,0,0,0,1.691-1.932h.56v.03a2.061,2.061,0,0,0,.73,1.673,2.784,2.784,0,0,0,1.846.608h3.1V30.243H93.036q-.87,0-.869-.913m-3.849-3.314a4.4,4.4,0,0,1-1.2,3.33,4.565,4.565,0,0,1-6.036,0,4.357,4.357,0,0,1-1.211-3.33v-.3a4.352,4.352,0,0,1,1.211-3.33,4.539,4.539,0,0,1,6.02,0,4.352,4.352,0,0,1,1.211,3.33Z" transform="translate(59.531 14.024)" fill="#2d2926"/>
    <path id="Path_10" data-name="Path 10" d="M103.078,29.329V18.322H99.229v1.825H98.67a4.771,4.771,0,0,0-1.63-1.566,6.141,6.141,0,0,0-3.212-.685,6.908,6.908,0,0,0-3.43.9,6.6,6.6,0,0,0-2.56,2.631,8.515,8.515,0,0,0-.963,4.2v.487a8.522,8.522,0,0,0,.963,4.2,6.635,6.635,0,0,0,2.545,2.629,6.85,6.85,0,0,0,3.444.9,6.03,6.03,0,0,0,3.43-.8,4.853,4.853,0,0,0,1.691-1.932h.558v.03a2.062,2.062,0,0,0,.731,1.673,2.784,2.784,0,0,0,1.846.608h3.1V30.243h-1.241q-.87,0-.869-.913m-3.849-3.314a4.4,4.4,0,0,1-1.2,3.33,4.565,4.565,0,0,1-6.036,0,4.357,4.357,0,0,1-1.211-3.33v-.3A4.352,4.352,0,0,1,92,22.382a4.539,4.539,0,0,1,6.02,0,4.352,4.352,0,0,1,1.211,3.33Z" transform="translate(68.081 14.024)" fill="#2d2926"/>
    <path id="Path_11" data-name="Path 11" d="M113.443,23.5A6.64,6.64,0,0,0,110.9,20.87a6.868,6.868,0,0,0-3.444-.9,7.431,7.431,0,0,0-2.344.319,4.605,4.605,0,0,0-1.521.806,4.526,4.526,0,0,0-.915,1.033h-.558V15.246H98.2V35.482h3.849V33.657h.558a4.99,4.99,0,0,0,1.646,1.55,6.037,6.037,0,0,0,3.2.7,6.85,6.85,0,0,0,3.444-.9,6.647,6.647,0,0,0,2.545-2.629,8.522,8.522,0,0,0,.963-4.2V27.7a8.515,8.515,0,0,0-.963-4.2m-2.948,4.591a4.357,4.357,0,0,1-1.211,3.33,4.544,4.544,0,0,1-6.02,0,4.357,4.357,0,0,1-1.211-3.33v-.3a4.352,4.352,0,0,1,1.211-3.33,4.56,4.56,0,0,1,6.036,0,4.385,4.385,0,0,1,1.2,3.33Z" transform="translate(76.958 11.948)" fill="#2d2926"/>
    <path id="Path_12" data-name="Path 12" d="M37.277,18.134h-2.84V33.217h3.91V21.547h5.078V18.134H37.277Z" transform="translate(26.987 14.211)" fill="#2d2926"/>
    <path id="Path_13" data-name="Path 13" d="M111.358,6.719a6.621,6.621,0,0,0-3.236-.772,30.922,30.922,0,0,0-4.447.46l-.112.018v8.353H99.472a2.555,2.555,0,0,1-1.914-.653,5.867,5.867,0,0,0,.357-2.03,4.508,4.508,0,0,0-1.637-3.669A6.89,6.89,0,0,0,91.8,7.092H88.062L94.913,0H90.737L84.391,7.2l1.27,2.9h5.581a4.274,4.274,0,0,1,2.415.606,1.957,1.957,0,0,1,.876,1.755,2.1,2.1,0,0,1-.346,1.175,2.456,2.456,0,0,1-.919.837,2.493,2.493,0,0,1-1.181.305H80.7l-.032,0-.036,0a20.234,20.234,0,0,1-2.615-.139,7.3,7.3,0,0,0,1.511-1.923,4.905,4.905,0,0,0,.639-2.337,3.9,3.9,0,0,0-.86-2.388,6.182,6.182,0,0,0-2.285-1.812,7,7,0,0,0-3.061-.688,9.445,9.445,0,0,0-2.663.383,25.079,25.079,0,0,0-3.02,1.138l-.061.027L67.5,10.126l.025.045a37.368,37.368,0,0,0,2.938,4.416,25.713,25.713,0,0,1-3.555.191H64A2.562,2.562,0,0,1,61.963,14a6.212,6.212,0,0,0,.123-1.222V9.833H58.7v2.444a2.678,2.678,0,0,1-.6,1.825,1.817,1.817,0,0,1-1.423.676H49.9c-2.108,0-3.134-.969-3.134-2.957V9.837H43.381v2.486a5.772,5.772,0,0,0,1.343,3.894,5.331,5.331,0,0,0,4.24,1.568h8.651a4.085,4.085,0,0,0,3.136-1.347h.157a4.76,4.76,0,0,0,1.425.958A4.253,4.253,0,0,0,64,17.785h2.913a29.887,29.887,0,0,0,7.425-.842,21.593,21.593,0,0,0,6.3.842l.036,0,11.842,0a5.076,5.076,0,0,0,3.5-1.347h.366a4.74,4.74,0,0,0,1.363.935,4.332,4.332,0,0,0,1.736.412h13.46l.032-.087a17.762,17.762,0,0,0,1.343-5.786,6.126,6.126,0,0,0-.772-3.048,5.541,5.541,0,0,0-2.176-2.144m-.546,5.239a10.729,10.729,0,0,1-.412,2.82h-3.455V9.09a6.546,6.546,0,0,1,1.29-.134c1.735,0,2.577.981,2.577,3M70.673,9.664a7.918,7.918,0,0,1,3.111-.824,3.807,3.807,0,0,1,2.149.585,1.739,1.739,0,0,1,.853,1.527,2.709,2.709,0,0,1-.82,1.855,7.075,7.075,0,0,1-1.914,1.438,16.084,16.084,0,0,1-1.871-2.169,17.675,17.675,0,0,1-1.507-2.412" transform="translate(33.996)" fill="#2d2926"/>
    <path id="Path_14" data-name="Path 14" d="M89.009,14.345a3.912,3.912,0,0,1-.3,1.693,1.734,1.734,0,0,1-.869.842,6.716,6.716,0,0,1-1.677.423l-.114.018,0,3.1h.134a8.2,8.2,0,0,0,4.827-1.7,6.3,6.3,0,0,0,1.382-4.47V3.463H89.009Z" transform="translate(67.433 2.714)" fill="#2d2926"/>
    <path id="Path_15" data-name="Path 15" d="M103.227,10.952h-.26a1.573,1.573,0,1,0,0,3.145h.26a1.573,1.573,0,1,0,0-3.145" transform="translate(79.433 8.583)" fill="#2d2926"/>
    <path id="Path_16" data-name="Path 16" d="M120.8,12.165a2.034,2.034,0,0,1-1.987-1.63l-1.2-3.157a6.085,6.085,0,0,0-2.306-2.956,6.558,6.558,0,0,0-3.758-1.088A8.756,8.756,0,0,0,107.325,4.4l-.105.059,1.236,2.845.128-.062a5.573,5.573,0,0,1,2.5-.558,3.736,3.736,0,0,1,2.1.583,3.5,3.5,0,0,1,1.307,1.666l.974,2.417a10.934,10.934,0,0,1-2.524.642,24.292,24.292,0,0,1-3.018.171h-6.6a2.921,2.921,0,0,1-1.488-.314,1.845,1.845,0,0,1-.767-1L98.253,3.334H94.632l2.986,7.991a7.48,7.48,0,0,1-3.772.84H90.264v3.007h4.049a7.009,7.009,0,0,0,4.056-1.347h.4a3.56,3.56,0,0,0,1.514.961,9.7,9.7,0,0,0,3.036.385h6.6a15.585,15.585,0,0,0,3.533-.428,13.162,13.162,0,0,0,2.663-.919h.815a5.522,5.522,0,0,0,1.315.876,6.61,6.61,0,0,0,2.315.482,1.869,1.869,0,0,0,.237-.012l.116-.014V12.177Z" transform="translate(70.736 2.613)" fill="#2d2926"/>
    <path id="Path_17" data-name="Path 17" d="M94.325,3.774h.26A1.592,1.592,0,0,0,96.191,2.2,1.59,1.59,0,0,0,94.586.629h-.26A1.59,1.59,0,0,0,92.72,2.2a1.592,1.592,0,0,0,1.605,1.573" transform="translate(72.661 0.493)" fill="#2d2926"/>
    <path id="Path_18" data-name="Path 18" d="M49.947,10.952h-.26a1.573,1.573,0,1,0,0,3.145h.26a1.573,1.573,0,1,0,0-3.145" transform="translate(37.679 8.583)" fill="#2d2926"/>
  </g>
</svg>
