<svg xmlns="http://www.w3.org/2000/svg" xmlns:xlink="http://www.w3.org/1999/xlink" width="329" height="91.855" viewBox="0 0 329 91.855">
  <defs>
    <clipPath id="clip-path">
      <rect id="Rectangle_277" data-name="Rectangle 277" width="329" height="91.856" fill="#fff"/>
    </clipPath>
  </defs>
  <g id="logo-f" clip-path="url(#clip-path)">
    <path id="Path_378" data-name="Path 378" d="M4.314,26.249A4.369,4.369,0,0,1,1.249,25.1,3.919,3.919,0,0,1,0,22.072a3.919,3.919,0,0,1,1.249-3.028A4.383,4.383,0,0,1,4.314,17.9,4.354,4.354,0,0,1,7.4,19.044a3.955,3.955,0,0,1,1.225,3.028A3.955,3.955,0,0,1,7.4,25.1a4.341,4.341,0,0,1-3.089,1.148" transform="translate(0 36.899)" fill="#fff"/>
    <path id="Path_379" data-name="Path 379" d="M6.687,47a1.654,1.654,0,0,1-1.77,1.565H.331v5.9H6.194a6.816,6.816,0,0,0,4.544-1.592,6.978,6.978,0,0,0,2.352-4.256l5.4-30.481H11.779Z" transform="translate(0.682 37.392)" fill="#fff"/>
    <path id="Path_380" data-name="Path 380" d="M34.746,37.523V18.628H28.138V21.76H27.18a8.189,8.189,0,0,0-2.8-2.688A10.542,10.542,0,0,0,18.867,17.9a11.858,11.858,0,0,0-5.888,1.54,11.334,11.334,0,0,0-4.394,4.516,14.618,14.618,0,0,0-1.653,7.2v.836a14.63,14.63,0,0,0,1.653,7.2,11.39,11.39,0,0,0,4.369,4.513,11.759,11.759,0,0,0,5.912,1.54,10.351,10.351,0,0,0,5.888-1.381,8.33,8.33,0,0,0,2.9-3.316h.961V40.6a3.538,3.538,0,0,0,1.252,2.872,4.779,4.779,0,0,0,3.169,1.044h5.328V39.09H36.237q-1.493,0-1.491-1.568m-6.607-5.689a7.549,7.549,0,0,1-2.051,5.716,7.226,7.226,0,0,1-5.2,1.957,7.243,7.243,0,0,1-5.165-1.957,7.48,7.48,0,0,1-2.079-5.716v-.521A7.471,7.471,0,0,1,15.726,25.6a7.246,7.246,0,0,1,5.165-1.96,7.248,7.248,0,0,1,5.168,1.96,7.471,7.471,0,0,1,2.079,5.716Z" transform="translate(14.293 36.899)" fill="#fff"/>
    <path id="Path_381" data-name="Path 381" d="M25.037,15.246H18.325V44.135a5.685,5.685,0,0,0,1.623,4.256,5.8,5.8,0,0,0,4.238,1.589h7.459V44.551H26.528q-1.493,0-1.491-1.565V29.52h7.247V24.092H25.037Z" transform="translate(37.784 31.435)" fill="#fff"/>
    <path id="Path_382" data-name="Path 382" d="M44.991,25.056a10.356,10.356,0,0,0-5.407-1.384,11.567,11.567,0,0,0-3.864.548A7.055,7.055,0,0,0,33.3,25.6a6.017,6.017,0,0,0-1.332,1.672H31V15.246H24.293V49.98H31V36.826a8.411,8.411,0,0,1,1.705-5.609A5.94,5.94,0,0,1,37.5,29.205a5.669,5.669,0,0,1,4.183,1.464,5.943,5.943,0,0,1,1.467,4.385V49.98h6.712V34.53a12.009,12.009,0,0,0-1.277-5.664,9.518,9.518,0,0,0-3.6-3.809" transform="translate(50.089 31.435)" fill="#fff"/>
    <path id="Path_383" data-name="Path 383" d="M77.163,19.016A9.639,9.639,0,0,0,72.714,18a8.437,8.437,0,0,0-4.688,1.1A7.664,7.664,0,0,0,65.47,21.86h-.961A7.222,7.222,0,0,0,61.9,19.068,8.445,8.445,0,0,0,57.371,18a8.078,8.078,0,0,0-4.21.964,5.989,5.989,0,0,0-2.29,2.272h-.958v-2.82H43.305V44.306h6.712V29.013a6.062,6.062,0,0,1,1.252-4.1,4.458,4.458,0,0,1,3.543-1.433,4.368,4.368,0,0,1,3.145,1.069,4.244,4.244,0,0,1,1.118,3.212V44.306h6.715V29.013a6.046,6.046,0,0,1,1.252-4.1,4.45,4.45,0,0,1,3.543-1.433,4.368,4.368,0,0,1,3.145,1.069,4.255,4.255,0,0,1,1.118,3.212V44.306H81.56V27.289a10.206,10.206,0,0,0-1.2-5.193,7.71,7.71,0,0,0-3.2-3.08" transform="translate(89.289 37.111)" fill="#fff"/>
    <path id="Path_384" data-name="Path 384" d="M78.113,19.464a16.8,16.8,0,0,0-14.173,0A11.867,11.867,0,0,0,58.986,24a13.475,13.475,0,0,0-1.813,7.149v.836a13.486,13.486,0,0,0,1.813,7.153,11.867,11.867,0,0,0,4.954,4.541,16.831,16.831,0,0,0,14.173,0,11.9,11.9,0,0,0,4.954-4.541,13.513,13.513,0,0,0,1.81-7.153v-.836A13.5,13.5,0,0,0,83.067,24a11.9,11.9,0,0,0-4.954-4.541m.052,12.37a7.46,7.46,0,0,1-2.024,5.612,7.664,7.664,0,0,1-10.23,0,7.448,7.448,0,0,1-2.024-5.612v-.521A7.443,7.443,0,0,1,65.912,25.7a7.7,7.7,0,0,1,10.254,0,7.491,7.491,0,0,1,2,5.612Z" transform="translate(117.883 36.899)" fill="#fff"/>
    <path id="Path_385" data-name="Path 385" d="M92.813,24.091H84.075l-8.735,9.553h-.961v-18.4H67.666V49.982h6.712V39.7h.961l9.268,10.285h8.631L80.612,36.62Z" transform="translate(139.518 31.434)" fill="#fff"/>
    <path id="Path_386" data-name="Path 386" d="M103.779,37.523V18.628H97.171V21.76h-.958a8.19,8.19,0,0,0-2.8-2.688A10.542,10.542,0,0,0,87.9,17.9a11.858,11.858,0,0,0-5.888,1.54,11.334,11.334,0,0,0-4.394,4.516,14.618,14.618,0,0,0-1.653,7.2v.836a14.63,14.63,0,0,0,1.653,7.2,11.39,11.39,0,0,0,4.369,4.513,11.759,11.759,0,0,0,5.912,1.54,10.351,10.351,0,0,0,5.888-1.381,8.33,8.33,0,0,0,2.9-3.316h.961V40.6A3.538,3.538,0,0,0,98.9,43.475a4.779,4.779,0,0,0,3.169,1.044H107.4V39.09H105.27q-1.493,0-1.491-1.568m-6.608-5.689A7.549,7.549,0,0,1,95.12,37.55a7.837,7.837,0,0,1-10.361,0,7.48,7.48,0,0,1-2.079-5.716v-.521A7.471,7.471,0,0,1,84.759,25.6a7.792,7.792,0,0,1,10.334,0,7.471,7.471,0,0,1,2.079,5.716Z" transform="translate(156.629 36.899)" fill="#fff"/>
    <path id="Path_387" data-name="Path 387" d="M114.689,37.523V18.628h-6.607V21.76h-.958a8.19,8.19,0,0,0-2.8-2.688A10.542,10.542,0,0,0,98.81,17.9a11.858,11.858,0,0,0-5.888,1.54,11.334,11.334,0,0,0-4.394,4.516,14.618,14.618,0,0,0-1.653,7.2v.836a14.63,14.63,0,0,0,1.653,7.2A11.39,11.39,0,0,0,92.9,43.707a11.759,11.759,0,0,0,5.912,1.54,10.351,10.351,0,0,0,5.888-1.381,8.33,8.33,0,0,0,2.9-3.316h.958V40.6a3.54,3.54,0,0,0,1.255,2.872,4.779,4.779,0,0,0,3.169,1.044h5.328V39.09H116.18q-1.493,0-1.491-1.568m-6.607-5.689a7.548,7.548,0,0,1-2.051,5.716,7.837,7.837,0,0,1-10.361,0,7.48,7.48,0,0,1-2.079-5.716v-.521A7.471,7.471,0,0,1,95.669,25.6,7.792,7.792,0,0,1,106,25.6a7.471,7.471,0,0,1,2.079,5.716Z" transform="translate(179.124 36.899)" fill="#fff"/>
    <path id="Path_388" data-name="Path 388" d="M124.364,29.416a11.4,11.4,0,0,0-4.369-4.516,11.79,11.79,0,0,0-5.912-1.54,12.757,12.757,0,0,0-4.023.548,7.906,7.906,0,0,0-2.612,1.384,7.769,7.769,0,0,0-1.571,1.773h-.958V15.246H98.2V49.983h6.607V46.851h.958a8.566,8.566,0,0,0,2.826,2.661,10.363,10.363,0,0,0,5.487,1.2,11.759,11.759,0,0,0,5.912-1.54,11.41,11.41,0,0,0,4.369-4.513,14.63,14.63,0,0,0,1.653-7.2v-.836a14.618,14.618,0,0,0-1.653-7.2M119.3,37.3a7.48,7.48,0,0,1-2.079,5.716,7.8,7.8,0,0,1-10.334,0A7.48,7.48,0,0,1,104.81,37.3v-.521a7.471,7.471,0,0,1,2.079-5.716,7.828,7.828,0,0,1,10.361,0,7.528,7.528,0,0,1,2.051,5.716Z" transform="translate(202.481 31.435)" fill="#fff"/>
    <path id="Path_389" data-name="Path 389" d="M39.312,18.134H34.438V44.026h6.712V23.992h8.717V18.134H39.312Z" transform="translate(71.006 37.391)" fill="#fff"/>
    <path id="Path_390" data-name="Path 390" d="M160.072,11.534a11.365,11.365,0,0,0-5.554-1.326,53.081,53.081,0,0,0-7.633.79l-.193.031V25.368h-7.024a4.386,4.386,0,0,1-3.285-1.121,10.071,10.071,0,0,0,.612-3.484,7.738,7.738,0,0,0-2.811-6.3,11.828,11.828,0,0,0-7.688-2.29h-6.415L131.841,0h-7.168L113.779,12.358l2.18,4.979h9.581a7.336,7.336,0,0,1,4.146,1.041,3.36,3.36,0,0,1,1.5,3.013,3.608,3.608,0,0,1-.594,2.018,4.215,4.215,0,0,1-1.577,1.436,4.28,4.28,0,0,1-2.027.524H107.444l-.055,0-.061,0a34.734,34.734,0,0,1-4.489-.239,12.523,12.523,0,0,0,2.593-3.3,8.421,8.421,0,0,0,1.1-4.011,6.7,6.7,0,0,0-1.476-4.1,10.612,10.612,0,0,0-3.922-3.111,12.013,12.013,0,0,0-5.254-1.182,16.213,16.213,0,0,0-4.571.658,43.051,43.051,0,0,0-5.184,1.953l-.1.046-1.228,5.3.043.077a64.145,64.145,0,0,0,5.043,7.581,44.139,44.139,0,0,1-6.1.328h-5a4.4,4.4,0,0,1-3.494-1.329,10.663,10.663,0,0,0,.211-2.1V16.88H69.685v4.195a4.6,4.6,0,0,1-1.032,3.132,3.119,3.119,0,0,1-2.443,1.16H54.566c-3.619,0-5.38-1.663-5.38-5.077v-3.4H43.381v4.268a9.909,9.909,0,0,0,2.306,6.684c1.54,1.785,3.99,2.691,7.278,2.691h14.85A7.013,7.013,0,0,0,73.2,28.218h.269a8.171,8.171,0,0,0,2.446,1.644,7.3,7.3,0,0,0,2.86.667h5A51.3,51.3,0,0,0,96.52,29.085a37.066,37.066,0,0,0,10.808,1.445l.061-.006,20.328.006a8.713,8.713,0,0,0,6-2.312h.628a8.137,8.137,0,0,0,2.339,1.6,7.437,7.437,0,0,0,2.979.707h23.1l.055-.15a30.491,30.491,0,0,0,2.306-9.933,10.516,10.516,0,0,0-1.326-5.233,9.511,9.511,0,0,0-3.735-3.68m-.937,8.993a18.417,18.417,0,0,1-.707,4.841H152.5V15.6a11.238,11.238,0,0,1,2.214-.23c2.979,0,4.424,1.684,4.424,5.153m-68.9-3.938a13.592,13.592,0,0,1,5.34-1.415,6.535,6.535,0,0,1,3.69,1,2.985,2.985,0,0,1,1.464,2.621,4.651,4.651,0,0,1-1.408,3.184,12.145,12.145,0,0,1-3.285,2.468,27.611,27.611,0,0,1-3.212-3.723,30.343,30.343,0,0,1-2.587-4.14" transform="translate(89.446)" fill="#fff"/>
    <path id="Path_391" data-name="Path 391" d="M91.131,22.143a6.716,6.716,0,0,1-.511,2.906,2.977,2.977,0,0,1-1.491,1.445,11.528,11.528,0,0,1-2.878.726l-.2.031-.006,5.328h.23c2.541,0,6.715-1.274,8.285-2.918s2.373-4.228,2.373-7.673V3.463H91.131Z" transform="translate(177.419 7.14)" fill="#fff"/>
    <path id="Path_392" data-name="Path 392" d="M104.564,10.952h-.447a2.7,2.7,0,1,0,0,5.4h.447a2.7,2.7,0,1,0,0-5.4" transform="translate(208.992 22.581)" fill="#fff"/>
    <path id="Path_393" data-name="Path 393" d="M142.683,18.493c-2.1-.22-2.777-1.078-3.411-2.8l-2.061-5.419A10.446,10.446,0,0,0,133.253,5.2,11.257,11.257,0,0,0,126.8,3.334a15.03,15.03,0,0,0-7.25,1.834l-.181.1,2.122,4.884.22-.107A9.567,9.567,0,0,1,126,9.087a6.412,6.412,0,0,1,3.613,1,6,6,0,0,1,2.244,2.86l1.672,4.149a18.77,18.77,0,0,1-4.333,1.1,41.7,41.7,0,0,1-5.181.294H112.677a5.014,5.014,0,0,1-2.554-.539,3.168,3.168,0,0,1-1.317-1.709L103.978,3.334H97.762l5.126,13.717a12.84,12.84,0,0,1-6.476,1.442H90.264v5.162h6.95a12.032,12.032,0,0,0,6.963-2.312h.689a6.111,6.111,0,0,0,2.6,1.65,16.647,16.647,0,0,0,5.211.661h11.338a26.753,26.753,0,0,0,6.066-.735,22.594,22.594,0,0,0,4.571-1.577h1.4a9.479,9.479,0,0,0,2.257,1.5,11.347,11.347,0,0,0,3.974.827,3.209,3.209,0,0,0,.407-.021l.2-.024V18.515Z" transform="translate(186.112 6.874)" fill="#fff"/>
    <path id="Path_394" data-name="Path 394" d="M95.476,6.027h.447a2.733,2.733,0,0,0,2.756-2.7,2.73,2.73,0,0,0-2.756-2.7h-.447a2.73,2.73,0,0,0-2.756,2.7,2.733,2.733,0,0,0,2.756,2.7" transform="translate(191.176 1.297)" fill="#fff"/>
    <path id="Path_395" data-name="Path 395" d="M51.284,10.952h-.447a2.7,2.7,0,1,0,0,5.4h.447a2.7,2.7,0,1,0,0-5.4" transform="translate(99.136 22.581)" fill="#fff"/>
  </g>
</svg>
