<svg xmlns="http://www.w3.org/2000/svg" width="664.665" height="678.909" viewBox="0 0 664.665 678.909">
  <g id="sat" transform="translate(0 -0.481)">
    <path id="Path_1061" data-name="Path 1061" d="M72.024,360.935l-.7,13.7,11.173,9.2-13.739,3.811-5.146,13.4L55.7,388.962l-14.62-.88L50.4,377.108l-3.508-13.8,13.785,4.908Z" fill="#fff"/>
    <path id="Path_1062" data-name="Path 1062" d="M632.024,107.112l-5.764,18.552-18.746,6.2,15.578,11.189.293,19.369,15.81-11.482,18.684,6.1-5.965-18.382,11-16.067-20,.186Z" fill="#fff"/>
    <path id="Path_1063" data-name="Path 1063" d="M273.98,76.4l30.136,51.749,2.009,2.3,11.143,9.321,23.258-13.5-2.488-14.214-.958-2.84-30.1-51.9Z" fill="#fff"/>
    <path id="Path_1064" data-name="Path 1064" d="M543.255,615.96a39.465,39.465,0,1,0-39.517-39.465A39.491,39.491,0,0,0,543.255,615.96Z" fill="#fff"/>
    <path id="Path_1065" data-name="Path 1065" d="M173.853,356.552s12.007-18.66,44.414-45.344c10.556-7.918,11.885-10.6,45.993-26.809,7.99-3.163,43.921-11.683,51-11.76,5.625-3.087,69.976-35.652,69.976-35.652s39.686-20.495,44.431-22.3c1.376,3.086,16.257,34.695,16.257,34.695s-49.345,23.458-56.686,27.209-32.454,16.082-46.671,26.361c-5.007,3.765-13.909,9.846-15.918,12.7-.618,2.978-2.1,15.279-8.422,21.607l35.065.8-3.709,40-52.421-3.489-3.013,5.433L243.273,378.1Z" fill="#fff"/>
    <path id="Path_1066" data-name="Path 1066" d="M321.841,333.168c82.34-49.233,152.071-64.389,152.071-64.389l24.463,31.269,37.6,48.184s-48.558,96.892-153.244,178.413c-40.182,31.268-73.547,50.452-99.541,62.135-45.126,20.45-68.6,18.66-68.6,18.66L154.52,530.426l-4.437-5.6-6.768-8.7s4.064-23.152,34.911-61.658c4.637-5.88,10.045-12.224,16.119-18.891Z" fill="#fff"/>
    <path id="Path_1067" data-name="Path 1067" d="M558.709,266.589l-84.8,2.191,30.97,39.633L535.821,348.2Z" fill="rgba(75,56,76,0.75)"/>
    <path id="Path_1068" data-name="Path 1068" d="M170.035,631.887l-61.291-78.65,34.6-37.133,71.243,91.336Z" fill="rgba(75,56,76,0.75)"/>
    <path id="Path_1069" data-name="Path 1069" d="M178.257,454.385l-63.208-14.462L84.7,463.46l58.618,52.66S147.41,492.969,178.257,454.385Z" fill="rgba(75,56,76,0.75)"/>
    <path id="Path_1070" data-name="Path 1070" d="M283.005,588.9c-44.941,20.327-68.416,18.522-68.416,18.522l36.69,69.62,30.336-23.567Z" fill="rgba(75,56,76,0.75)"/>
    <path id="Path_1071" data-name="Path 1071" d="M214.281,608.922a1.544,1.544,0,0,1-1.206-1.651,1.422,1.422,0,0,1,.153-.589,1.44,1.44,0,0,1,.38-.473,1.44,1.44,0,0,1,1.152-.3c.293,0,23.706,1.39,67.783-18.52,30.907-13.891,64.2-34.834,99.215-62.059,103.188-80.255,152.286-176.9,152.811-177.872a1.545,1.545,0,0,1,2.674,1.343c-.51.972-49.9,98.2-153.646,178.937-35.2,27.363-68.74,48.37-99.912,62.46-44.94,20.326-68.322,18.86-69.249,18.829Z" fill="#2d2926"/>
    <path id="Path_1072" data-name="Path 1072" d="M143.037,517.664a1.546,1.546,0,0,1-1.19-1.806c.186-.9,4.558-23.954,35.22-62.383,5.054-6.251,10.432-12.594,16.274-18.845a1.567,1.567,0,0,1,2.364,2.053c-5.672,6.281-11.205,12.593-16.088,18.737-30.12,37.673-34.571,60.7-34.633,61.024a1.791,1.791,0,0,1-1.947,1.157Z" fill="#2d2926"/>
    <path id="Path_1073" data-name="Path 1073" d="M321.533,334.666a1.568,1.568,0,0,1-1.189-1.224,1.365,1.365,0,0,1,.034-.606,1.379,1.379,0,0,1,.784-.887c81.614-48.786,151.776-64.45,152.6-64.6a1.543,1.543,0,0,1,.618,2.932c-.649.185-70.487,15.773-151.591,64.343A5.084,5.084,0,0,1,321.533,334.666Z" fill="#2d2926"/>
    <path id="Path_1074" data-name="Path 1074" d="M392.267,458.892a1.573,1.573,0,0,1,.185-3.072,54.332,54.332,0,0,0,34.958-87.169,50.449,50.449,0,0,0-10.2-10.078,1.544,1.544,0,0,1-.138-2.781,1.591,1.591,0,0,1,.664-.184,1.568,1.568,0,0,1,.679.122,1.551,1.551,0,0,1,.557.4,57.7,57.7,0,0,1,10.817,10.68,56.656,56.656,0,0,1,11.793,42.3,57.522,57.522,0,0,1-21.744,38.261,56.209,56.209,0,0,1-26.875,11.5A1.258,1.258,0,0,1,392.267,458.892Z" fill="#2d2926"/>
    <path id="Path_1075" data-name="Path 1075" d="M372.44,458.321a57.206,57.206,0,0,1-43.427-71.658,1.36,1.36,0,0,1,.25-.567,1.374,1.374,0,0,1,1.075-.55,1.384,1.384,0,0,1,.607.129,1.358,1.358,0,0,1,.989,1.913,54.658,54.658,0,0,0,9.411,48.045,53.83,53.83,0,0,0,36.874,20.619,1.546,1.546,0,0,1,1.36,1.7,1.654,1.654,0,0,1-1.684,1.359C376.055,458.923,374.232,458.706,372.44,458.321Z" fill="#2d2926"/>
    <path id="Path_1076" data-name="Path 1076" d="M558.385,268.086a1.767,1.767,0,0,1-.9-.448,1.542,1.542,0,0,1,.293-2.13l51.231-39.865a1.515,1.515,0,0,1,1.84,2.407l-51.231,39.866A1.722,1.722,0,0,1,558.385,268.086Z" fill="#2d2926"/>
    <path id="Path_1077" data-name="Path 1077" d="M298.784,518.883l-2.3,36.253s86.064-14.987,94.379-16.684,10.292-6.714.494-9.074-45.652-3.8-51-2.888c-.077-7.793-.926-17.161-.926-17.161Z" fill="#fff"/>
    <path id="Path_1078" data-name="Path 1078" d="M296.172,556.633a1.333,1.333,0,0,1-.71-.309,1.806,1.806,0,0,1-.541-1.2l2.318-36.253a1.639,1.639,0,0,1,1.237-1.451l40.8-9.522a1.743,1.743,0,0,1,1.205.263.953.953,0,0,1,.556,1.048c0,.14.757,8.242.928,15.605,9.133-.433,40.628,1.017,49.855,3.086,6.4,1.543,7.727,3.966,7.634,5.958-.108,2.777-3.09,5.124-8.283,6.049-8.3,1.7-93.56,16.545-94.364,16.685A.924.924,0,0,1,296.172,556.633ZM300.1,520.1l-1.979,33.2c12.765-2.144,85-14.908,92.416-16.313,4.42-.941,5.827-2.516,5.81-3.086s-1.451-2.022-5.33-2.84c-9.938-2.393-45.545-3.611-50.367-2.9a1.114,1.114,0,0,1-1.158-.4c-.417-.247-.479-.725-.525-1.2-.078-5.617-.557-12.254-.7-15.233Z" fill="#2d2926"/>
    <path id="Path_1079" data-name="Path 1079" d="M473.279,203.435a42.456,42.456,0,0,1,8.87,1.543c3.354,1.157,9.689,4.352,7.974,9.6-1.39,4.383-5.193,3.9-8.1,2.192s-4.219-3.673-6.846-3.766c-7.634,0-9.273-5.185-9.273-5.185Z" fill="#fff"/>
    <path id="Path_1080" data-name="Path 1080" d="M484.421,219.454a9.3,9.3,0,0,1-3.168-1.282,11.27,11.27,0,0,1-2.427-1.76,7.588,7.588,0,0,0-3.662-1.851c-8.716-.108-10.6-5.957-10.7-6.282a1.637,1.637,0,0,1,.68-1.728l7.341-4.537a6.377,6.377,0,0,1,.989-.263,49.125,49.125,0,0,1,9.273,1.652c5.517,1.929,10.74,5.972,8.963,11.513a6.5,6.5,0,0,1-3.693,4.213A5.973,5.973,0,0,1,484.421,219.454Zm-7.9-7.717a9.763,9.763,0,0,1,4.2,2.284c.68.447,1.344,1.049,2.164,1.543a4.743,4.743,0,0,0,4.033.833,2.854,2.854,0,0,0,1.731-2.284c1.391-4.383-5.084-6.975-6.954-7.716a44.723,44.723,0,0,0-7.959-1.543l-5.7,3.472c.819,1.266,2.921,3.087,7.3,3.087C475.581,211.691,476.076,211.644,476.524,211.737Z" fill="#2d2926"/>
    <path id="Path_1081" data-name="Path 1081" d="M323.851,234.441s6.3-.4,12.44-.664,7.325,4.49,5.5,7.994-10.524,4.8-11.235,11.977c-1.545,17.255-3.693,24.277-14.326,28.907-3.616,1.543-8.484,1.034-12.487,0h-.294s-.9,3.55-1.623,7.716a15.559,15.559,0,0,1-17.741-3.873s5.27-6.513,6.042-18.18c-2.672.833-11.544,2.253-10.415-6.081.8-5.279,6.305-9.261,12.008-4.492l.525-21.051Z" fill="#fff"/>
    <path id="Path_1082" data-name="Path 1082" d="M291.768,258.084l.542-21.22,38.959-2.9s14.327-29.694-24.726-26.808c-30.569,2.315-28.683,21.606-28.683,21.606s-11.421,2.439-14.6,17.641,12.471,29.71,25.081,32.026C289.713,273.055,288.584,274.691,291.768,258.084Z" fill="#fcd299"/>
    <path id="Path_1083" data-name="Path 1083" d="M291.768,258.084c-5.672-4.922-11.065-.756-12.008,4.492-1.128,8.319,7.727,6.914,10.416,6.066-.741,11.683-6.012,18.211-6.012,18.211a15.673,15.673,0,0,0,17.742,3.859c.726-4.2,1.622-7.718,1.622-7.718" fill="#fff"/>
    <path id="Path_1084" data-name="Path 1084" d="M292.371,293.072A18.06,18.06,0,0,1,283.1,287.7a1.449,1.449,0,0,1,0-1.882,31.251,31.251,0,0,0,5.518-15.187,10.583,10.583,0,0,1-8.268-1.42c-1.731-1.451-2.334-3.75-2.041-6.651a9.445,9.445,0,0,1,5.78-7.517,8.739,8.739,0,0,1,8.748,2.145,1.572,1.572,0,0,1,.465,1.682,1.568,1.568,0,0,1-1.378,1.072,1.569,1.569,0,0,1-.609-.075,1.546,1.546,0,0,1-.534-.3c-1.994-1.667-3.895-2.223-5.61-1.543a6.416,6.416,0,0,0-3.724,5.123,4.626,4.626,0,0,0,.9,3.936c1.871,1.543,5.733.879,7.557.324a1.146,1.146,0,0,1,1.344.294,1.185,1.185,0,0,1,.495,1.343,35.651,35.651,0,0,1-5.61,17.825,13.924,13.924,0,0,0,14.528,2.871c.663-3.9,1.437-6.853,1.468-7.008a1.545,1.545,0,0,1,2.982.634s-.9,3.534-1.545,7.593a2.285,2.285,0,0,1-.881,1.219A18.57,18.57,0,0,1,292.371,293.072Z" fill="#2d2926"/>
    <path id="Path_1085" data-name="Path 1085" d="M296.852,280.632s12.457,5.248,19.488,2.207c10.632-4.629,12.735-11.667,14.327-28.921.694-7.008,9.535-8.273,11.235-11.961s.649-8.273-5.487-8.011-12.362.694-12.362.694" fill="#fff"/>
    <path id="Path_1086" data-name="Path 1086" d="M304.456,284.614a59.3,59.3,0,0,1-8.361-2.531,1.553,1.553,0,0,1,1.221-2.855c.155,0,11.9,4.985,18.406,2.145,9.8-4.336,11.823-10.293,13.46-27.779.433-5.047,4.513-7.455,7.588-9.462a12.088,12.088,0,0,0,3.741-2.963,4.151,4.151,0,0,0,0-4.352,5.067,5.067,0,0,0-4.2-1.543c-6.183.278-12.364.694-12.364.694a1.541,1.541,0,0,1-.939-2.389,1.541,1.541,0,0,1,.8-.589s6.337-.541,12.473-.819a6.774,6.774,0,0,1,7.061,10.2c-.849,1.838-2.812,2.98-4.79,4.276-2.859,1.744-5.9,3.6-6.181,7.115-1.468,16.668-3.555,25.11-15.239,30.281C313.312,285.773,308.674,285.418,304.456,284.614Z" fill="#2d2926"/>
    <path id="Path_1087" data-name="Path 1087" d="M309.216,247.05a2.285,2.285,0,1,0-2.288-2.284A2.285,2.285,0,0,0,309.216,247.05Z" fill="#2d2926"/>
    <path id="Path_1088" data-name="Path 1088" d="M318.828,245.785a2.285,2.285,0,1,0-2.286-2.285A2.286,2.286,0,0,0,318.828,245.785Z" fill="#2d2926"/>
    <path id="Path_1089" data-name="Path 1089" d="M277.349,230.165a1.347,1.347,0,0,1-.547-.235,1.39,1.39,0,0,1-.4-.443c-.123-.17-2.07-2.763-7.974-2.13a1.546,1.546,0,0,1-1.746-1.3,1.57,1.57,0,0,1,.027-.6,1.517,1.517,0,0,1,.257-.545,1.539,1.539,0,0,1,1.014-.611c8.113-.787,10.818,3.365,10.957,3.55a1.541,1.541,0,0,1-.448,2.083,1.4,1.4,0,0,1-.547.24A1.382,1.382,0,0,1,277.349,230.165Z" fill="#2d2926"/>
    <path id="Path_1090" data-name="Path 1090" d="M172.678,358.7a.981.981,0,0,1-.573-.263,1.545,1.545,0,0,1-.339-2.1c58.9-75.625,115.768-79.3,116.247-79.359a1.551,1.551,0,0,1,1.334.216,1.537,1.537,0,0,1,.653,1.182,1.546,1.546,0,0,1-.528,1.243,1.557,1.557,0,0,1-.612.326,1.541,1.541,0,0,1-.692.027c-.619,0-56.1,3.673-113.96,78.125a1.438,1.438,0,0,1-1.53.6Z" fill="#2d2926"/>
    <path id="Path_1091" data-name="Path 1091" d="M326.231,317.443a1.33,1.33,0,0,1-.711-.309,1.541,1.541,0,0,1-.169-2.207c18.668-21.329,105.968-60.809,118.673-66.365-2.489-5.2-11.051-23.8-15.145-31.824-15.053,7.131-98.2,49.82-99.078,50.267a1.621,1.621,0,0,1-2.055-.587,1.542,1.542,0,0,1,.587-2.052c3.663-1.882,89.974-46.3,100.607-50.931a1.653,1.653,0,0,1,2.024.741c4.359,8.226,16.32,34.386,16.443,34.572a1.647,1.647,0,0,1,0,1.249,1.542,1.542,0,0,1-.818.927c-1.02.4-99.711,44.371-119,66.364A2.86,2.86,0,0,1,326.231,317.443Z" fill="#2d2926"/>
    <path id="Path_1092" data-name="Path 1092" d="M268.494,373.065a27.06,27.06,0,0,1-19.781-35.976l7.263-19.029a1.468,1.468,0,0,1,2.443-.65,1.456,1.456,0,0,1,.335.5,1.461,1.461,0,0,1-.042,1.182l-7.217,18.967a24.03,24.03,0,0,0,2.086,21.3A23.428,23.428,0,0,0,272,370.379l76.174,6.173,3.524-37.564-66.361-.186a1.224,1.224,0,0,1-1.251-.725,1.536,1.536,0,0,1,0-1.4l10.076-19.832a1.5,1.5,0,0,1,2.689,1.327l-8.871,17.764,65.433.14a1.2,1.2,0,0,1,1.128.555,1.532,1.532,0,0,1,.387,1.173l-3.724,40.775a1.547,1.547,0,0,1-1.685,1.359L271.8,373.652A25.541,25.541,0,0,1,268.494,373.065Z" fill="#2d2926"/>
    <path id="Path_1093" data-name="Path 1093" d="M318.288,338.972a.55.55,0,0,1-.237-.075.591.591,0,0,1-.181-.171,1.547,1.547,0,0,1-.69-.963,1.55,1.55,0,0,1-.018-.6,1.524,1.524,0,0,1,.214-.564c6.6-10.6,9.149-21.283,7.495-31.269a1.562,1.562,0,0,1,3.092-.447c1.792,10.8-.943,22.363-7.82,33.537a2.084,2.084,0,0,1-1.855.555Z" fill="#2d2926"/>
    <path id="Path_1094" data-name="Path 1094" d="M324.346,300.389a1.757,1.757,0,0,1-1.175-1.034,28.538,28.538,0,0,0-3.54-6.96,1.545,1.545,0,0,1-.361-1.878,1.551,1.551,0,0,1,1.062-.8,1.541,1.541,0,0,1,1.71.859,32.266,32.266,0,0,1,3.973,7.824,1.542,1.542,0,0,1-.881,1.991A1.148,1.148,0,0,1,324.346,300.389Z" fill="#2d2926"/>
    <path id="Path_1095" data-name="Path 1095" d="M468.89,209.515s7.139-2.084,8.87,2.315-.757,14.014-3.724,17.748-12.967.881-12.967.881-2.674-8.814-.788-14.8S468.89,209.515,468.89,209.515Z" fill="#fff"/>
    <path id="Path_1096" data-name="Path 1096" d="M462.243,232.249l-1.638-.34a1.352,1.352,0,0,1-1.035-.988c-.093-.339-2.735-9.26-.757-15.727s8.654-7.068,9.906-7.114c3.09-.9,8.809-1.111,10.54,3.287,1.777,4.892-.711,15.264-4.034,19.246C472.35,233.9,465.536,232.944,462.243,232.249Zm-.107-3.087c3.276.694,8.9,1.389,10.555-.587,2.549-3.209,4.929-12.347,3.415-16.252-1.113-2.885-6.861-1.449-7.047-1.326a.554.554,0,0,0-.34.092c-.294,0-5.795.186-7.279,5.016-1.236,4.352.232,10.742.7,12.949Z" fill="#2d2926"/>
    <path id="Path_1097" data-name="Path 1097" d="M466.308,226.26c-1.746-10.957,8.485-20.341,13.229-22.918,1.963-1.159,10.524-5.588,13.121-8.32s-.51-6.481-4.5-6.065c-15.717,2.161-56.345,30.08-56.345,30.08l11.868,25.2s11.344,2.376,21.111-1.806c4.945-2.068,19.812-11.266,19.92-16.221,0-4.507-3.724-5.294-6.6-4.954-2.4.262-5.98,3.256-11.467,4.908Z" fill="#fff"/>
    <path id="Path_1098" data-name="Path 1098" d="M443.545,245.614a1.356,1.356,0,0,1-1.067-.833l-11.853-25.218a1.421,1.421,0,0,1,.556-1.9c1.654-1.218,41.123-28.135,56.995-30.265a6.759,6.759,0,0,1,6.614,3.411,4.621,4.621,0,0,1-.942,5.247c-2.411,2.608-9.628,6.544-12.611,8.1l-.866.448c-4.249,2.376-12.935,10.355-12.688,19.6a55.422,55.422,0,0,0,5.673-2.546,15.116,15.116,0,0,1,4.775-1.96c1.546-.139,4.435-.324,6.4,1.543a5.909,5.909,0,0,1,1.917,4.907c-.108,6.513-17.4,16.129-20.832,17.6C455.351,248.084,443.993,245.722,443.545,245.614Zm-9.814-26.021,10.941,23.352c2.581.386,11.684,1.543,19.565-1.821,5.966-2.485,19.04-11.282,19.009-14.863a4.177,4.177,0,0,0-.834-2.67,5.384,5.384,0,0,0-4.034-.834,14.45,14.45,0,0,0-3.617,1.544,45.783,45.783,0,0,1-7.525,3.256l-.341.077a1.255,1.255,0,0,1-1.221-.092,1.43,1.43,0,0,1-.711-1.1c-1.93-11.606,8.577-21.606,14.018-24.462l.865-.433c2.658-1.543,9.69-5.293,11.869-7.484a1.389,1.389,0,0,0,.371-1.791,3.83,3.83,0,0,0-3.554-1.682C474.514,192.322,440.268,215.164,433.731,219.593Z" fill="#2d2926"/>
    <path id="Path_1099" data-name="Path 1099" d="M459.88,229.424a1.361,1.361,0,0,1-1.16-1.174,1.543,1.543,0,0,1,.029-.6,1.518,1.518,0,0,1,.26-.547,1.552,1.552,0,0,1,.452-.406,1.522,1.522,0,0,1,.573-.2c.8-.139,3.956-1.033,5.935-1.543a1.567,1.567,0,1,1,.926,2.994,64.65,64.65,0,0,1-6.273,1.651Z" fill="#2d2926"/>
    <path id="Path_1100" data-name="Path 1100" d="M412.791,350.641s6.49,1.049,5.284,5.308-12.038,5.726-17.292,5.834-14.867-.463-14.867-.463,15.346,4.137,21.945,4.631c2.3.184,5.115.926,4.883,3.519s-3.091,4.337-8.346,3.395-23.783-4.044-23.783-4.044-20.647,3.3-29.549-4.784c.232-3.38,2.457-26.577,2.457-26.577s9.721-.293,14.218-3.873,8.7-10.31,11.5-10.974,5.5.525,4.481,3.889a27.547,27.547,0,0,1-4.806,8.8c3.57-.648,25.144-4.63,30.754-6.945,3.091-1.08,6.691-1.4,8.128,1.39s-1.808,5.7-5.532,7.083a196.713,196.713,0,0,1-21.157,6.482c4.961.88,23.738-1.728,23.738-1.728s4.914-.37,5.532,3.334-2.874,4.846-8.191,5.6a195.109,195.109,0,0,1-21.945,2.1" fill="#fff"/>
    <path id="Path_1101" data-name="Path 1101" d="M360.663,370.257A22.01,22.01,0,0,1,350,365.379a1.793,1.793,0,0,1-.525-1.2l2.472-26.576a1.544,1.544,0,0,1,1.545-1.39c.14,0,9.273-.385,13.214-3.611a39.354,39.354,0,0,0,5.378-5.572c2.642-2.871,4.544-5.278,6.677-5.771a6.18,6.18,0,0,1,5.516,1.157,4.62,4.62,0,0,1,.881,4.707,31.112,31.112,0,0,1-2.689,6.174c7.464-1.39,22.424-4.337,26.69-6.1,4.868-1.621,8.452-.879,10.014,2.1a4.056,4.056,0,0,1,.138,3.766c-.772,2.176-3.214,4.152-6.459,5.494-1.7.741-5.393,1.991-9.4,3.179,4.327-.508,8.777-.972,11.173-1.249s6.614.447,7.325,4.49a5.152,5.152,0,0,1-2.565,5.541,10.44,10.44,0,0,1-1.546.6,4.322,4.322,0,0,1,1.391,1.543,4.474,4.474,0,0,1,.449,3.828c-1.978,6.436-18.438,6.884-18.622,7.007,2.689.556,5.269.942,7.093,1.172,1.36.124,3.972.355,5.332,2.038a4.164,4.164,0,0,1,.9,3.087,4.74,4.74,0,0,1-2.164,3.6c-1.283.972-3.663,1.883-8.02,1.127-4.961-.88-21.389-3.535-23.491-3.982A65.09,65.09,0,0,1,360.663,370.257ZM352.6,363.42c8.515,6.929,27.524,4.043,27.694,3.935a.421.421,0,0,1,.479,0c.139.093,18.546,3.088,23.784,4.044a7.74,7.74,0,0,0,5.579-.54,2.292,2.292,0,0,0,.928-1.544.838.838,0,0,0-.14-.8,4.5,4.5,0,0,0-3.214-.988c-6.769-.478-21.637-4.522-22.254-4.63a1.466,1.466,0,0,1,.448-2.87c.139,0,9.86.509,14.866.462,6.553,0,14.976-2.314,15.81-4.784a1.663,1.663,0,0,0,.08-.737,1.688,1.688,0,0,0-.249-.7,6.734,6.734,0,0,0-3.632-2.007c-.155,0-.325.092-.479,0a185.366,185.366,0,0,1-22.1,2.084,1.543,1.543,0,1,1,0-3.086,172.368,172.368,0,0,0,21.636-2.007h.773A18.184,18.184,0,0,0,417.6,347.8a1.946,1.946,0,0,0,1.129-2.408c-.309-2.238-3.786-2.037-3.941-2.067-.65.169-19.117,2.7-24.186,1.635a1.546,1.546,0,0,1-1.252-1.543,1.4,1.4,0,0,1,1.252-1.451c5.393-1.2,17.278-5.093,20.817-6.374a8.885,8.885,0,0,0,4.822-3.673,1.177,1.177,0,0,0,0-1.251c-1.114-2.1-4.389-1.388-6.182-.678-6.182,2.593-30.769,6.945-31.094,7.037a1.684,1.684,0,0,1-1.7-.818,1.387,1.387,0,0,1,.371-1.79,22.54,22.54,0,0,0,4.326-7.979c.125-.587.279-1.343-.107-1.729a3.092,3.092,0,0,0-2.565-.386c-1.144.232-3.231,2.748-5.039,4.631a55.585,55.585,0,0,1-5.78,5.957c-3.755,3.087-10.818,3.966-13.646,4.152Z" fill="#2d2926"/>
    <path id="Path_1102" data-name="Path 1102" d="M181.008,358.82l62.219,19.247,91.365,3.549a24.934,24.934,0,0,1,24.2,21.39l4.774,109.58L283.114,531.26,298.3,434.337l-88.923,5.525A39.631,39.631,0,0,1,169.2,383.684Z" fill="#fcd299"/>
    <path id="Path_1103" data-name="Path 1103" d="M290.748,386.292a.561.561,0,0,1-.236-.076.569.569,0,0,1-.181-.171,1.532,1.532,0,0,1-.69-.962,1.536,1.536,0,0,1-.019-.6,1.555,1.555,0,0,1,.214-.564l6.29-10.664a1.548,1.548,0,1,1,2.628,1.635l-6.291,10.681a1.547,1.547,0,0,1-1.715.725Z" fill="#2d2926"/>
    <path id="Path_1104" data-name="Path 1104" d="M251.881,438.565a1.878,1.878,0,0,1-1.267-1.357,1.543,1.543,0,0,1,1.422-1.544l68.709-4.306a1.484,1.484,0,0,1,.124,2.964l-68.695,4.305Z" fill="#2d2926"/>
    <path id="Path_1105" data-name="Path 1105" d="M1.136,679.362a.614.614,0,0,1-.233-.073.6.6,0,0,1-.185-.159A1.543,1.543,0,0,1,.24,677c9.412-15.156,24.279-14.692,38.852-14.291a137.731,137.731,0,0,0,14.511-.077c3.833-.448,6.383-1.466,7.6-3.55,2.674-4.63-.927-13.427-3.956-20.588-1.051-2.408-1.947-4.769-2.735-6.961a16.837,16.837,0,0,1,3.709-16.977c3.6-3.766,12.564-9.368,30.908-4.121s32.454-8.612,32.732-8.874a1.546,1.546,0,0,1,2.179,0,1.571,1.571,0,0,1,.338.5,1.54,1.54,0,0,1,0,1.187,1.574,1.574,0,0,1-.338.5c-.6.648-15.455,15.434-35.7,9.645-16.768-4.753-24.618,0-27.818,3.365a13.523,13.523,0,0,0-3.091,13.89,62.231,62.231,0,0,0,2.658,6.622c3.431,8.194,7.263,17.409,3.678,23.35-1.7,2.9-5.007,4.554-9.953,5.078a122.393,122.393,0,0,1-14.836.155c-14.249-.479-27.586-.788-36.055,12.856a1.914,1.914,0,0,1-1.793.648Z" fill="#2d2926"/>
    <path id="Path_1106" data-name="Path 1106" d="M534.817,616.763a41.179,41.179,0,0,1-31.882-48.709,40.535,40.535,0,0,1,12.826-22.085,41.148,41.148,0,1,1,19.132,70.794Zm16.227-77.4a38.026,38.026,0,1,0,13.71,5.756A38.1,38.1,0,0,0,551.044,539.364Z" fill="#2d2926"/>
    <path id="Path_1107" data-name="Path 1107" d="M529.3,559.1c-8.809-1.852-15.1-9.075-15.455-9.476a1.654,1.654,0,0,1,.139-2.146,1.671,1.671,0,0,1,2.164.139c.108.184,9.674,11.051,20.677,8.38,4.931-1.157,7.511-5.278,10.062-9.261,3-4.629,6.459-10.015,13.909-7.53a1.544,1.544,0,0,1-.928,2.917c-4.961-1.652-6.892.894-10.2,6.281-2.766,4.244-5.8,9.059-11.885,10.587A18.154,18.154,0,0,1,529.3,559.1Z" fill="#2d2926"/>
    <path id="Path_1108" data-name="Path 1108" d="M548.4,606.206c-4.034-.833-7.062-3.489-10.123-6s-5.934-5.124-10.045-6.3a11.079,11.079,0,0,0-10.895,2.855,1.545,1.545,0,1,1-2.194-2.176,14.527,14.527,0,0,1,13.909-3.642,28.228,28.228,0,0,1,11.327,6.883c3.184,2.7,5.95,5.14,9.767,5.479,4.436.448,6.722-1.543,9.165-3.534a10.529,10.529,0,0,1,5.98-3.272,12.21,12.21,0,0,1,10.17,3.534,1.545,1.545,0,0,1-2.164,2.192,9.532,9.532,0,0,0-7.557-2.671,10.433,10.433,0,0,0-4.451,2.655c-2.472,2.13-5.7,4.877-11.5,4.291Z" fill="#2d2926"/>
    <path id="Path_1109" data-name="Path 1109" d="M578.243,592.531c-2.983-.632-5.039-1.99-5.888-3.873a7.447,7.447,0,0,1-.341-5.062c-3.847.447-8.685-.263-10.817-4.908-3.324-7.239,1.653-10.8,7.4-15.264l.9-.587c6.306-4.753.7-12.934.464-13.289a1.545,1.545,0,0,1-.254-1.907,1.547,1.547,0,0,1,2.4-.318,1.535,1.535,0,0,1,.377.575c2.627,3.811,5.7,12.239-1.175,17.5l-.9.587c-6.089,4.491-8.592,6.76-6.491,11.56,2.35,5.17,10.03,2.715,10.03,2.715a1.4,1.4,0,0,1,.9-.027,1.381,1.381,0,0,1,.727.522,1.725,1.725,0,0,1,.092,1.744c-.479.833-1.545,3.241-.726,4.984q.973,2.055,5.1,2.455a1.541,1.541,0,0,1,1.36,1.7,1.824,1.824,0,0,1-1.7,1.358A4.662,4.662,0,0,0,578.243,592.531Z" fill="#2d2926"/>
    <path id="Path_1110" data-name="Path 1110" d="M613.74,446.91a14.341,14.341,0,1,0-16.978,11.081A14.323,14.323,0,0,0,613.74,446.91Z" fill="#fcd299"/>
    <path id="Path_1111" data-name="Path 1111" d="M63.092,402.806a1.45,1.45,0,0,1-.549-.231,1.424,1.424,0,0,1-.409-.433l-7.341-11.807-13.909-.57a1.547,1.547,0,0,1-1.36-.911,2.111,2.111,0,0,1,.185-1.682l8.933-10.588L44.9,363.2a1.666,1.666,0,0,1,.495-1.543,1.423,1.423,0,0,1,1.545-.294l12.951,5.2,11.591-7.717a1.206,1.206,0,0,1,1.545,0,1.542,1.542,0,0,1,.8,1.42l-1.035,13.8,10.818,8.643a1.744,1.744,0,0,1,.618,1.544,1.545,1.545,0,0,1-1.175,1.157l-13.507,3.4-4.9,12.98a1.545,1.545,0,0,1-1.3.988C63.386,402.868,63.247,402.837,63.092,402.806Zm-7.078-15.325a1.353,1.353,0,0,1,.958.663l6.182,9.862,4.126-10.8a1.284,1.284,0,0,1,1.128-.85l11.328-2.777-9.056-7.208a1.187,1.187,0,0,1-.494-1.343l.881-11.652-9.752,6.374a2.176,2.176,0,0,1-1.437.17L49.06,365.626l3.091,11.236a1.542,1.542,0,0,1-.278,1.343l-7.464,8.874,11.575.54C55.721,387.418,55.875,387.449,56.014,387.481Z" fill="#2d2926"/>
    <path id="Path_1112" data-name="Path 1112" d="M165.307,225.272l2.426,19.663,17.509,9.415-18.081,8.211-3.508,19.646-13.445-14.63-19.751,2.715,9.859-17.239-8.885-17.9,19.6,3.951Z" fill="#fcd299"/>
    <path id="Path_1113" data-name="Path 1113" d="M622.952,164.51l-.448-.092a1.454,1.454,0,0,1-.8-1.4l.124-19.122L606.03,132.964a1.328,1.328,0,0,1-.619-1.543,1.537,1.537,0,0,1,1.035-1.188l18.206-5.851,5.564-18.288a1.293,1.293,0,0,1,1.143-1c.634,0,1.221.092,1.422.6l11.235,15.588,19.086-.371a1.377,1.377,0,0,1,1.406.757,1.4,1.4,0,0,1-.17,1.543L653.01,138.644l6.368,17.871a1.667,1.667,0,0,1-.34,1.637,1.913,1.913,0,0,1-1.654.432L639.148,152.6l-15.207,11.638C623.941,164.556,623.4,164.619,622.952,164.51Zm-12.58-32.195,13.909,9.6a1.526,1.526,0,0,1,.477.53,1.55,1.55,0,0,1,.188.688l-.093,16.793L638.205,149.8a1.442,1.442,0,0,1,.7-.276,1.457,1.457,0,0,1,.741.106l16.057,5.233-5.485-15.943a1.537,1.537,0,0,1,.138-1.374l10.03-13.628-16.907.355a1.568,1.568,0,0,1-.712-.138,1.544,1.544,0,0,1-.57-.449l-9.938-13.6-4.775,16.128a1.55,1.55,0,0,1-1.005,1.034Z" fill="#2d2926"/>
    <path id="Path_1114" data-name="Path 1114" d="M303.22,131.7a1.437,1.437,0,0,1-.959-.663l-31.6-54.4a1.672,1.672,0,0,1-.232-1.142,1.375,1.375,0,0,1,.665-.941l35.653-20.573a1.547,1.547,0,0,1,2.055.587l31.6,54.4a1.541,1.541,0,0,1,.232,1.142,1.447,1.447,0,0,1-.23.549,1.432,1.432,0,0,1-.434.408l-35.637,20.558a1.309,1.309,0,0,1-1.113.077ZM273.981,76.4l30.135,51.75,32.995-19.092L306.976,57.292Z" fill="#2d2926"/>
    <path id="Path_1115" data-name="Path 1115" d="M316.727,143.088a1.328,1.328,0,0,1-.711-.308l-13.523-11.236a1.363,1.363,0,0,1-.51-1.343,2.535,2.535,0,0,1,.742-1.25l35.638-20.573a1.547,1.547,0,0,1,1.406,0,1.639,1.639,0,0,1,.865,1.111l3.091,17.3a1.234,1.234,0,0,1-.788,1.543l-25.175,14.507a.925.925,0,0,1-1.035.247Zm-10.6-12.64,11.019,9.152,23.181-13.5-2.472-14.215Z" fill="#2d2926"/>
    <path id="Path_1116" data-name="Path 1116" d="M200.527,185.1,281.6,127.022l-17.773-30.5-90.639,41.286Z" fill="rgba(75,56,76,0.75)"/>
    <path id="Path_1117" data-name="Path 1117" d="M186.587,162.89a1.454,1.454,0,0,1-.55-.231,1.417,1.417,0,0,1-.408-.433,1.54,1.54,0,0,1,.587-2.068L292.664,98.531a1.548,1.548,0,0,1,1.848-.049,1.543,1.543,0,0,1,.573,1.755,1.544,1.544,0,0,1-.875.933L187.762,162.813A1.551,1.551,0,0,1,186.587,162.89Z" fill="#2d2926"/>
    <path id="Path_1118" data-name="Path 1118" d="M226.629,167.674a1.406,1.406,0,0,1-.958-.664l-24.418-41.855a1.537,1.537,0,0,1-.305-1.243,1.547,1.547,0,0,1,2.948-.3l24.278,41.81a1.54,1.54,0,0,1-.587,2.068A2.35,2.35,0,0,1,226.629,167.674Z" fill="#2d2926"/>
    <path id="Path_1119" data-name="Path 1119" d="M253.581,148.4a1.365,1.365,0,0,1-.958-.664l-20.94-36.13a1.542,1.542,0,0,1,.433-2.287,1.549,1.549,0,0,1,.622-.2,1.546,1.546,0,0,1,1.215.409,1.547,1.547,0,0,1,.372.539l20.941,36.145a1.543,1.543,0,0,1-.587,2.053A2.692,2.692,0,0,1,253.581,148.4Z" fill="#2d2926"/>
    <path id="Path_1120" data-name="Path 1120" d="M410.395.481,329.462,58.574,347.079,89.04,437.9,47.647Z" fill="rgba(75,56,76,0.75)"/>
    <path id="Path_1121" data-name="Path 1121" d="M317.391,87.187a1.406,1.406,0,0,1-.958-.664,1.544,1.544,0,0,1,.588-2.053L423.468,22.829a1.559,1.559,0,0,1,.59-.287,1.543,1.543,0,0,1,.957,2.926l-106.526,61.6A1.456,1.456,0,0,1,317.391,87.187Z" fill="#2d2926"/>
    <path id="Path_1122" data-name="Path 1122" d="M408.122,62.586a1.4,1.4,0,0,1-.552-.235,1.384,1.384,0,0,1-.4-.444L382.855,20.1a1.545,1.545,0,0,1,2.643-1.543l24.278,41.81a1.543,1.543,0,0,1-.587,2.053A2.8,2.8,0,0,1,408.122,62.586Z" fill="#2d2926"/>
    <path id="Path_1123" data-name="Path 1123" d="M377.8,76.26a1.376,1.376,0,0,1-.543-.229,1.362,1.362,0,0,1-.4-.435L355.9,39.513a1.546,1.546,0,0,1,2.659-1.543L379.5,74.1a1.541,1.541,0,0,1-.586,2.068A2.359,2.359,0,0,1,377.8,76.26Z" fill="#2d2926"/>
    <path id="Path_1124" data-name="Path 1124" d="M253.163,630.144,217.4,654.251" fill="none" stroke="#2d2926" stroke-linecap="round" stroke-linejoin="round" stroke-width="2"/>
  </g>
</svg>
