<svg xmlns="http://www.w3.org/2000/svg" xmlns:xlink="http://www.w3.org/1999/xlink" width="579" height="498" viewBox="0 0 579 498">
  <defs>
    <clipPath id="clip-path">
      <rect id="Rectangle_302" data-name="Rectangle 302" width="579" height="498" transform="translate(0 -0.356)" fill="#fff"/>
    </clipPath>
  </defs>
  <g id="h4" transform="translate(0 0.355)" clip-path="url(#clip-path)">
    <path id="Path_625" data-name="Path 625" d="M567.644,325.693s7.592-47.726,8.537-53.475L571.29,248.5l5.268-12.7c2.223-5.461,6.2-10.954,13.241-11.509l5.357-.412,40.585,3.147s7.114,2.447,9.715,8.584c1.5,3.636,6.993,21.595,11.227,35.584A18.137,18.137,0,0,1,646.291,293.2l.332,2.457s3.436,23.763,3.492,29.779Z" transform="translate(-101.098 -39.873)" fill="#fff"/>
    <path id="Path_626" data-name="Path 626" d="M522.694,207.484l20.575-4.592s-.766-14.4-14.451-13.033C513.089,191.538,522.694,207.484,522.694,207.484Z" transform="translate(-92.576 -33.798)" fill="#fff"/>
    <path id="Path_627" data-name="Path 627" d="M567.306,330.668H567.2a1.31,1.31,0,0,1-.685-.474,1.324,1.324,0,0,1-.26-.793c.145-.778,12.328-77.128,13.274-82.865a1.123,1.123,0,1,1,2.222.323c-.945,5.748-13.128,82.1-13.272,82.865a1.111,1.111,0,0,1-1.168.944Z" transform="translate(-100.85 -43.737)" fill="#2d2926"/>
    <path id="Path_628" data-name="Path 628" d="M517.895,195.354s-1.434-.289-2.423,1.891-2.012,9.6.378,10.709,3.245-2.736,3.635-3.837,1.567-7.161,1.567-7.161S518.907,195.132,517.895,195.354Z" transform="translate(-91.612 -34.79)" fill="#fff"/>
    <path id="Path_629" data-name="Path 629" d="M516.445,209.093a6.088,6.088,0,0,1-1.2-.288c-3.591-1.724-1.746-10.32-.989-12.176,1-2.224,2.467-2.669,3.334-2.624,1.456-.156,3.268,1.379,4.024,1.968a1.191,1.191,0,0,1,.389,1.022c-.133.667-1.29,6.172-1.678,7.273l-.122.323c-.389,1.211-1.056,3.514-2.646,4.214A1.674,1.674,0,0,1,516.445,209.093Zm1.111-12.865c-.222,0-.678.3-1.168,1.279-1.011,2.4-1.522,8.607-.11,9.23.333.133.444.133.556,0,.689-.3,1.223-2.224,1.479-2.826l.123-.444c.256-.656.966-3.958,1.423-6.383a6.09,6.09,0,0,0-1.846-1.112.557.557,0,0,1-.219.2.566.566,0,0,1-.291.057Z" transform="translate(-91.385 -34.55)" fill="#2d2926"/>
    <path id="Path_630" data-name="Path 630" d="M522.231,187.872s-3.168-1.267-4.769-.233-.81,5.305-.333,6.9,2.4,5.782,4.336,4.881S524.943,189.33,522.231,187.872Z" transform="translate(-91.991 -33.347)" fill="#fff"/>
    <path id="Path_631" data-name="Path 631" d="M520.472,200.384a2.753,2.753,0,0,1-.889-.155c-2.291-1-3.746-5.415-3.857-5.56s-2.023-6.438.833-8.084c2.223-1.345,5.447,0,5.78.155h.111c1.3.723,2,2.425,1.979,5.1,0,2.891-1.012,7.405-2.835,8.317A4.023,4.023,0,0,1,520.472,200.384Zm-1.423-12.232a2.386,2.386,0,0,0-1.356.278c-.8.4-.489,3.425.188,5.56.478,1.468,1.7,3.869,2.579,4.236h.112c.578-.422,1.857-3.925,1.667-7.049,0-1.557-.455-2.224-.778-2.48a7.264,7.264,0,0,0-2.412-.523Z" transform="translate(-91.722 -33.126)" fill="#2d2926"/>
    <path id="Path_632" data-name="Path 632" d="M530.255,184.8a7.3,7.3,0,0,0-3.423-2.836c-2.09-.656-3.88,4.382-3.957,8.162s.455,7.039,3.012,6.928,3.334-2.846,3.758-4.159S530.255,184.8,530.255,184.8Z" transform="translate(-93.124 -32.398)" fill="#fff"/>
    <path id="Path_633" data-name="Path 633" d="M525.368,197.914a3.474,3.474,0,0,1-2.223-.99c-1.279-1.29-1.834-3.648-1.668-7.095.145-3.214,1.345-7.284,3.191-8.752a2.5,2.5,0,0,1,2.134-.455,8.43,8.43,0,0,1,4.081,3.336,1.113,1.113,0,0,1,.188.555c-.077,1.668-.223,7.118-.734,8.54l-.133.334c-.51,1.424-1.645,4.371-4.658,4.56Zm.923-14.979a.316.316,0,0,0-.122.026.319.319,0,0,0-.1.074c-1.045.846-2.223,4.126-2.334,7.017-.19,3.88.645,5.148.967,5.493a.7.7,0,0,0,.768.267c1.445,0,2.067-1.579,2.7-3.1l.123-.334a57.662,57.662,0,0,0,.579-7.317,4.045,4.045,0,0,0-2.579-2.125Z" transform="translate(-92.871 -32.156)" fill="#2d2926"/>
    <path id="Path_634" data-name="Path 634" d="M538.691,184.125s-1.479,5.382-2.413,8.674-3.334,4.447-5.558,3.524-.9-6.671.523-11,5.558-6.3,9.137-5.015c1.423.512,3.09,3.035,2.734,5.693" transform="translate(-94.311 -32.044)" fill="#fff"/>
    <path id="Path_635" data-name="Path 635" d="M531.809,197.617a4.654,4.654,0,0,1-1.645-.411c-3.335-1.28-1.5-8.318-.09-12.365a9.22,9.22,0,0,1,4.591-5.349,7.847,7.847,0,0,1,5.926-.39c1.967.657,3.823,3.748,3.557,6.961a1.123,1.123,0,1,1-2.223-.322c.222-2.224-1.234-4.293-2-4.56a5.7,5.7,0,0,0-4.247.246,7.166,7.166,0,0,0-3.524,4.069c-1.945,5.8-2,9.252-1.111,9.518a3.061,3.061,0,0,0,2.223,0,3.913,3.913,0,0,0,1.8-2.7c.934-3.335,2.411-8.684,2.411-8.684l2.223.556s-1.479,5.383-2.411,8.674a5.848,5.848,0,0,1-2.98,4.091A4.019,4.019,0,0,1,531.809,197.617Z" transform="translate(-94.088 -31.826)" fill="#2d2926"/>
    <path id="Path_636" data-name="Path 636" d="M546.327,192.944l-45.11-13.266a2.526,2.526,0,0,1-1.746-3.091,2.5,2.5,0,0,1,3.08-1.746l45.121,13.288a2.536,2.536,0,0,1,1.745,3.091,2.457,2.457,0,0,1-3.089,1.724Z" transform="translate(-88.941 -31.123)" fill="#fff"/>
    <path id="Path_637" data-name="Path 637" d="M546.572,193.937a2.2,2.2,0,0,1-.889-.156l-45.11-13.265a3.636,3.636,0,0,1-2.456-4.571,3.333,3.333,0,0,1,1.767-2.135,3.45,3.45,0,0,1,2.8-.322l45.109,13.277a3.637,3.637,0,0,1,2.458,4.559,3.68,3.68,0,0,1-3.68,2.614Zm-.233-2.224a1.991,1.991,0,0,0,1.111-.056,1.747,1.747,0,0,0,.712-.856,1.964,1.964,0,0,0-.055-1.112c-.1-.334-.534-.579-.857-.712l-45.108-13.333a1.936,1.936,0,0,0-1.112.067,1.641,1.641,0,0,0-.7.856,1.357,1.357,0,0,0-.065.536,1.337,1.337,0,0,0,.977,1.177l45.109,13.344Z" transform="translate(-88.686 -30.87)" fill="#2d2926"/>
    <path id="Path_638" data-name="Path 638" d="M581.156,317.689l-44.964-2.124L521.428,251.3l44.965,2.125Z" transform="translate(-92.867 -44.757)" fill="#fff"/>
    <path id="Path_639" data-name="Path 639" d="M586.62,168.371s-11.472-.47-11.472,5.591c0,4.059,8.118,6.374,10.78,8.353s1.274,17.043,8.229,24.345c3.478,3.59,10.668,6.027,17.736,4.64l.58-.123,1.622,8.354s7.079,3.589,12.413,1.041c.458-5.681,1.5-24.11,1.5-24.11s7.536,3.009,9.281-3.835-4.987-10.545-10.064-7.179l1.968-19.133-40.256-.694Z" transform="translate(-102.435 -29.497)" fill="#fff"/>
    <path id="Path_640" data-name="Path 640" d="M629.095,180.652l-.7-18.428-37.672-1.51s-14.033-17.389,6.832-22.141c6.261-1.119,8.946,6.262,8.946,6.262s10.321-11.362,24.343-6.028,11.7,19.48,11.7,19.48,10.21,3.02,9.158,11.6-6.832,11.832-6.832,11.832,10.309,6.955,4.048,15.3-19.468,1.51-19.468,1.51l.347-6.844s4.283,1.51,6.486,0a7.192,7.192,0,0,0,2.785-4.63,6.87,6.87,0,0,0-2.08-6.5C633.378,177.712,629.095,180.652,629.095,180.652Z" transform="translate(-104.386 -24.468)" fill="#fcd299"/>
    <path id="Path_641" data-name="Path 641" d="M607.662,213.364a23.393,23.393,0,0,0,8.7-1.733,1.138,1.138,0,0,0,0-2.1,1.138,1.138,0,0,0-.871,0c-7.827,3.354-16.7.928-20.519-3.131-4.059-4.283-5.1-11.474-5.915-16.773-.58-4.059-1.039-6.709-2.425-7.829a18.786,18.786,0,0,0-3.478-1.967c-2.785-1.387-6.709-3.356-6.709-5.446a2.945,2.945,0,0,1,.928-2.237c2.236-2.091,7.425-2.326,9.281-2.236a1.118,1.118,0,1,0,0-2.236c-.357,0-7.659-.347-11.014,2.907A4.836,4.836,0,0,0,574,174.4c0,3.59,4.405,5.793,8.006,7.538a22.971,22.971,0,0,1,3.131,1.733c.694.47,1.118,3.713,1.509,6.262.805,5.592,2.08,13.219,6.609,17.971C596.212,211.161,601.78,213.364,607.662,213.364Z" transform="translate(-102.23 -29.861)" fill="#2d2926"/>
    <path id="Path_642" data-name="Path 642" d="M610.66,176.961a1.745,1.745,0,1,1,1.744-1.745A1.746,1.746,0,0,1,610.66,176.961Z" transform="translate(-108.449 -30.895)" fill="#2d2926"/>
    <path id="Path_643" data-name="Path 643" d="M601.776,176.252a1.744,1.744,0,1,1,1.745-1.744A1.744,1.744,0,0,1,601.776,176.252Z" transform="translate(-106.867 -30.77)" fill="#2d2926"/>
    <path id="Path_644" data-name="Path 644" d="M629.824,226.692a12.866,12.866,0,0,0,4.987-1.04,1.2,1.2,0,0,0,.581-.928c.347-4.641,1.118-18.206,1.387-22.611a8.948,8.948,0,0,0,5.915-.459,6.474,6.474,0,0,0,3.355-4.641c.8-3.477-.123-6.608-2.785-8.465a8.055,8.055,0,0,0-9.158.123,1.206,1.206,0,0,0-.328.318,1.182,1.182,0,0,0-.188.879,1.21,1.21,0,0,0,.169.425,1.172,1.172,0,0,0,1.622.346,5.8,5.8,0,0,1,6.5-.112,5.591,5.591,0,0,1,1.844,6.028,4.278,4.278,0,0,1-2.236,3.131c-2.314,1.118-5.445-.123-5.591-.123a1.113,1.113,0,0,0-1.04.123,1.544,1.544,0,0,0-.582.927c0,.224-.928,17.155-1.4,23.417-3.824,1.51-8.689-.347-10.2-1.041l-1.431-7.749a1.187,1.187,0,0,0-1.861-.834,1.188,1.188,0,0,0-.492.818,1.182,1.182,0,0,0,.039.486l1.622,8.343a1.487,1.487,0,0,0,.581.815C621.594,224.724,625.541,226.692,629.824,226.692Z" transform="translate(-110.224 -33.337)" fill="#2d2926"/>
    <path id="Path_645" data-name="Path 645" d="M580.861,318.585l-44.977-2.124a1.334,1.334,0,0,1-1.111-.835l-14.729-64.151a1.11,1.11,0,0,1,.267-.99,1.342,1.342,0,0,1,.911-.4l44.964,2.124a1.337,1.337,0,0,1,.672.261,1.351,1.351,0,0,1,.44.572l14.741,64.151a1.115,1.115,0,0,1-.268.99A1.347,1.347,0,0,1,580.861,318.585Zm-44.021-4.3,42.631,2.013L565.264,254.4l-42.642-2.024Z" transform="translate(-92.616 -44.541)" fill="#2d2926"/>
    <path id="Path_646" data-name="Path 646" d="M605.208,309.048c-.223,0-.334,0-.434-.122a1.115,1.115,0,0,1-.332-.3,1.1,1.1,0,0,1-.19-.4l-7.6-29.857a1.171,1.171,0,0,1,.155-.889,1.43,1.43,0,0,1,.8-.512l39.34-5.927a1.112,1.112,0,0,1,1.143.527,1.212,1.212,0,0,1,.132.861,1.11,1.11,0,0,1-.513.7,1.138,1.138,0,0,1-.418.146l-38.107,5.66,7.037,27.6,43.475-13.411A17.059,17.059,0,0,0,660.944,272c-6.158-20.449-10-32.758-11.227-35.582-2.3-5.561-8.971-8-9.082-8a1.109,1.109,0,0,1-.461-.158,1.124,1.124,0,0,1-.35-.339,1.114,1.114,0,0,1,.116-1.365,1.114,1.114,0,0,1,1.352-.218c.321.122,7.658,2.691,10.359,9.175,1.5,3.625,6.992,21.472,11.327,35.7a19.329,19.329,0,0,1-12.7,23.931l-44.609,13.8A.8.8,0,0,1,605.208,309.048Z" transform="translate(-106.259 -40.287)" fill="#2d2926"/>
    <path id="Path_647" data-name="Path 647" d="M553.64,296.9a6.895,6.895,0,1,0-6.892-6.894A6.893,6.893,0,0,0,553.64,296.9Z" transform="translate(-97.377 -50.423)" fill="#fcd299"/>
    <path id="Path_648" data-name="Path 648" d="M590.19,286.467s-2.789-4.448-6.047-6.294-5.558-8.506-8.037-6.505c.9,4.449,3.236,14.067,3.236,14.067s-11.506.79-17.308-1.267S555.6,288.5,555.6,288.5s-.589,3.091,3.535,5.293c-2.457.1-4.557,2.125-4.446,3.791s1.257,4.071,4.825,4.015c-3.079,1.635-3.334,3.069-3.435,4.292-.211,4.447,10.293,3.6,10.293,3.6s-5.225,2.224-3.9,4.826c1.423,2.857,6.114,2.513,12.283,1.368,8.425-1.613,21.243-6.672,21.243-6.672Z" transform="translate(-98.79 -48.675)" fill="#fff"/>
    <path id="Path_649" data-name="Path 649" d="M566.624,317.281c-2.556-.122-4.524-.879-5.558-2.824a3.127,3.127,0,0,1-.1-2.447,5.811,5.811,0,0,1,1.189-1.724c-2.335-.111-5.092-.69-6.581-2.1a3.342,3.342,0,0,1-.872-1.234,3.308,3.308,0,0,1-.239-1.492,4.671,4.671,0,0,1,1.722-3.592,5.293,5.293,0,0,1-3.123-4.447,3.945,3.945,0,0,1,1.111-2.958,6.947,6.947,0,0,1,1.735-1.357,5.558,5.558,0,0,1-1.991-5.1,4.271,4.271,0,0,1,2.024-2.8c1.49-.935,3.5-.946,5.9,0,4.379,1.545,12.394,1.479,15.629,1.3-.644-2.813-2.224-9.352-2.957-12.832a1.114,1.114,0,0,1,.389-1.112,2.71,2.71,0,0,1,1.924-.69c1.556.19,2.7,1.691,4.068,3.537a13.767,13.767,0,0,0,3.335,3.492c3.469,1.945,6.369,6.538,6.469,6.671a.408.408,0,0,1,.089.155.4.4,0,0,1,.012.178l5.724,22.429a1.187,1.187,0,0,1-.611,1.3c-.567.2-13.039,5.06-21.465,6.772A28.1,28.1,0,0,1,566.624,317.281Zm-.566-9.263a1.348,1.348,0,0,1,1.111.834,1.21,1.21,0,0,1-.622,1.3c-1.112.5-2.968,1.534-3.334,2.624a.534.534,0,0,0,.077.678c1.112,2.224,6.258,1.624,11.116.745,6.958-1.345,17.04-5.092,20.1-6.283L588.99,286.6a20.481,20.481,0,0,0-5.558-5.826,14.954,14.954,0,0,1-4.024-4.07,17.582,17.582,0,0,0-2.224-2.557c1,4.725,2.957,12.831,2.957,12.942a1.191,1.191,0,0,1-.156.879,1.108,1.108,0,0,1-.8.412c-.445,0-11.839.778-17.787-1.4-1.745-.634-3.19-.7-4-.188a1.953,1.953,0,0,0-.944,1.29c0,.111-.333,2.324,2.923,4.147a1.268,1.268,0,0,1,.6,1.257,1.176,1.176,0,0,1-1.034.846,4.2,4.2,0,0,0-2.734,1.312,1.971,1.971,0,0,0-.622,1.313c.078.667.411,3.025,3.758,2.957a1.112,1.112,0,0,1,1.111.833,1.337,1.337,0,0,1-.612,1.3c-2.734,1.434-2.79,2.425-2.835,3.336a1.263,1.263,0,0,0,.4,1.023c1.49,1.412,6.158,1.634,8.726,1.412-.188.189-.067.2-.067.2Z" transform="translate(-98.5 -48.42)" fill="#2d2926"/>
    <path id="Path_650" data-name="Path 650" d="M571.961,300.327c-5.324-.256-12.171-1.357-12.394-1.368a1.314,1.314,0,0,1-.945-1.269,1.112,1.112,0,0,1,.832-.924,1.1,1.1,0,0,1,.436-.021c.111,0,8.4,1.29,13.616,1.423a1.112,1.112,0,1,1,0,2.223Z" transform="translate(-99.492 -52.849)" fill="#2d2926"/>
    <path id="Path_651" data-name="Path 651" d="M563.389,308.707l-3.223-.144a1.114,1.114,0,0,1-.692-1.938,1.106,1.106,0,0,1,.8-.286c.1,0,9.638.789,14.7-.2a1.112,1.112,0,0,1,.456,2.146A54.882,54.882,0,0,1,563.389,308.707Z" transform="translate(-99.578 -54.524)" fill="#2d2926"/>
    <path id="Path_652" data-name="Path 652" d="M568.512,317.588a1.191,1.191,0,0,1-1.112-1.056,1.142,1.142,0,0,1,.06-.434,1.112,1.112,0,0,1,.572-.639,1.1,1.1,0,0,1,.424-.106c.111,0,8.37-.489,11.561-2.124a1.123,1.123,0,0,1,.433-.118,1.146,1.146,0,0,1,.444.056,1.189,1.189,0,0,1,.39.224,1.157,1.157,0,0,1,.39.787,1.12,1.12,0,0,1-.057.445,1.142,1.142,0,0,1-.222.39,1.158,1.158,0,0,1-.354.273c-3.657,1.947-12.139,2.436-12.473,2.414a.1.1,0,0,0-.007-.066A.1.1,0,0,0,568.512,317.588Z" transform="translate(-101.054 -55.765)" fill="#2d2926"/>
    <path id="Path_653" data-name="Path 653" d="M571.806,249.241a.465.465,0,0,1-.334-.122,1.131,1.131,0,0,1-.366-.247,1.11,1.11,0,0,1-.32-.8,1.09,1.09,0,0,1,.1-.43l5.268-12.666c3.135-7.528,7.893-11.654,14.151-12.131l5.357-.412a1.126,1.126,0,0,1,.434.059,1.139,1.139,0,0,1,.376.222,1.12,1.12,0,0,1,.3,1.218,1.111,1.111,0,0,1-1.044.725l-5.369.422c-5.248.411-9.427,4-12.228,10.775l-5.27,12.666a1.112,1.112,0,0,1-1.055.722Z" transform="translate(-101.658 -39.615)" fill="#2d2926"/>
    <path id="Path_654" data-name="Path 654" d="M558.1,247.026l-6.292-29.357-27.691,4.37,7,23.708Z" transform="translate(-93.347 -38.767)" fill="#fff"/>
    <path id="Path_655" data-name="Path 655" d="M557.816,247.872l-26.979-1.28a1.11,1.11,0,0,1-.956-.823l-6.992-23.819a.858.858,0,0,1,.155-.889c.123-.323.467-.423.8-.523l27.7-4.359a1.209,1.209,0,0,1,1.289.833l6.281,29.468a1.1,1.1,0,0,1-.012.528,1.118,1.118,0,0,1-.255.462,1.206,1.206,0,0,1-.469.324A1.23,1.23,0,0,1,557.816,247.872Zm-26.1-3.436,24.768,1.112-5.736-26.988-25.457,4.025Z" transform="translate(-93.117 -38.501)" fill="#2d2926"/>
    <path id="Path_656" data-name="Path 656" d="M520.711,202.395a50.435,50.435,0,0,1,2.913,6.671c.567,2.135,2.468,6.672,4.936,6.349s18.9-3,18.9-3-1.189-7.617-.422-12.042,2.09-6.671-1.478-8.752-7.114-7.35-9.26-6.56-2.012,7.027,1.9,9.218c-2.667,2.1-3.979,3.937-4.268,5.482" transform="translate(-92.739 -32.945)" fill="#fff"/>
    <path id="Path_657" data-name="Path 657" d="M527.827,216.371c-3.557-.167-5.458-6.938-5.559-7.161a56.594,56.594,0,0,0-2.812-6.483,1.148,1.148,0,0,1-.115-.431,1.142,1.142,0,0,1,.637-1.1,1.147,1.147,0,0,1,1.262.167,1.122,1.122,0,0,1,.272.355,64.849,64.849,0,0,1,2.979,6.972c.756,2.825,2.513,5.694,3.624,5.561l17.941-2.826a48.406,48.406,0,0,1-.355-11.253c.155-.889.3-1.657.445-2.324.7-3.08.745-4.081-1.312-5.293a21.606,21.606,0,0,1-4.447-3.658c-1.268-1.28-3.335-3.158-3.869-2.859-.223.112-.589.645-.634,1.646a6.455,6.455,0,0,0,2.746,5.56.989.989,0,0,1,.511.911,1.388,1.388,0,0,1-.089.533,1.371,1.371,0,0,1-.289.456c-2.89,2.314-3.634,3.837-3.791,4.826a1.123,1.123,0,1,1-2.222-.322q.442-2.49,3.579-5.171a8.341,8.341,0,0,1-2.579-6.671,3.962,3.962,0,0,1,2.069-3.581c1.922-.8,3.957,1.112,6.291,3.336a20.264,20.264,0,0,0,3.968,3.336c3.569,2.056,3.013,4.593,2.424,7.572-.144.656-.289,1.435-.445,2.224-.634,4.2.456,11.6.456,11.71a1.112,1.112,0,0,1-.956,1.29l-18.954,3A3.094,3.094,0,0,0,527.827,216.371Z" transform="translate(-92.495 -32.777)" fill="#2d2926"/>
    <path id="Path_658" data-name="Path 658" d="M666.87,341.247a1.113,1.113,0,0,1-1.112-1.057c0-5.9-3.724-31.792-3.712-32.126a1.1,1.1,0,0,1,.02-.437,1.123,1.123,0,0,1,.187-.4,1.105,1.105,0,0,1,.325-.3,1.127,1.127,0,0,1,.851-.127,1.144,1.144,0,0,1,.4.187,1.136,1.136,0,0,1,.443.737c.167,1.112,3.646,26.333,3.814,32.348a1.326,1.326,0,0,1-1.29,1.168Z" transform="translate(-117.909 -54.637)" fill="#2d2926"/>
    <path id="Path_659" data-name="Path 659" d="M565.014,554.793a191.517,191.517,0,0,1,.21,19.26c-16.763-.411-57.37,9.585-58.3,14.267s4.58,4.792,4.58,4.792l89.429.212-1.668-39.365Z" transform="translate(-90.264 -98.661)" fill="#fff"/>
    <path id="Path_660" data-name="Path 660" d="M600.721,594.1l-89.33-.311c-.1,0-3.224-.113-4.779-2.091a4.646,4.646,0,0,1-.833-3.959c1.244-5.938,42.786-15.1,58.4-15.1.412-7.284-.312-18.014-.312-18.115a1.108,1.108,0,0,1,.312-.733.9.9,0,0,1,.325-.238.915.915,0,0,1,.4-.073l34.149-.835a1.114,1.114,0,0,1,1.045,1.046l1.668,39.364a1.114,1.114,0,0,1-.323.735.964.964,0,0,1-.326.234A.951.951,0,0,1,600.721,594.1ZM565.95,555.46a167.272,167.272,0,0,1,.211,18.326,1.033,1.033,0,0,1-1.045.945c-17.7-.522-56.114,9.886-57.26,13.434a3.1,3.1,0,0,0,.412,2.29,4.445,4.445,0,0,0,3.123,1.357l88.286.2-1.558-37.275Z" transform="translate(-90.056 -98.427)" fill="#2d2926"/>
    <path id="Path_661" data-name="Path 661" d="M603.518,567.436s.722,1.457.212,8.9c-16.763-.412-57.37,9.586-58.3,14.266s4.58,4.793,4.58,4.793l89.43.211-1.668-28.912Z" transform="translate(-97.122 -100.929)" fill="#fff"/>
    <path id="Path_662" data-name="Path 662" d="M639.227,596.382l-89.33-.211c-.1,0-3.223-.1-4.779-2.079a4.667,4.667,0,0,1-.833-3.958c1.244-5.939,42.786-15.1,58.4-15.1.312-5.837-.212-7.293-.212-7.293a.946.946,0,0,1,0-1.046.816.816,0,0,1,.834-.511l34.249-.734a1.034,1.034,0,0,1,1.045.935l1.667,28.912a1.111,1.111,0,0,1-.322.734.933.933,0,0,1-.327.234.944.944,0,0,1-.4.076Zm-34.56-28.223a37.946,37.946,0,0,1,0,7.907,1.041,1.041,0,0,1-.337.679,1.03,1.03,0,0,1-.708.266c-17.7-.523-56.115,9.886-57.26,13.433a3.049,3.049,0,0,0,.422,2.29,4.359,4.359,0,0,0,3.113,1.358l88.284.2-1.556-26.865Z" transform="translate(-96.914 -100.707)" fill="#2d2926"/>
    <path id="Path_663" data-name="Path 663" d="M620.577,524.629h-68.92L565.4,349.19l48.911-.623C614.33,365.4,620.577,524.529,620.577,524.629Z" transform="translate(-98.251 -62.08)" fill="#fcd299"/>
    <path id="Path_664" data-name="Path 664" d="M661.355,530.567H592.436L597.86,349.19l57.36-.623C655.22,365.925,661.467,530.567,661.355,530.567Z" transform="translate(-105.514 -62.08)" fill="#fcd299"/>
    <path id="Path_665" data-name="Path 665" d="M592.343,547.933a1.047,1.047,0,0,1-1.045-1.045l3.124-105.639a1.044,1.044,0,0,1,1.045-1.045.994.994,0,0,1,.982.635,1.014,1.014,0,0,1,.063.41l-3.125,105.639a1.04,1.04,0,0,1-.079.4,1.055,1.055,0,0,1-.226.339,1.047,1.047,0,0,1-.74.307Z" transform="translate(-105.311 -78.401)" fill="#2d2926"/>
    <path id="Path_667" data-name="Path 667" d="M67.943,552.634l-1.779,42.034,95.488-.223s5.891-.111,4.891-5.116-44.354-15.679-62.251-15.235a201.819,201.819,0,0,1,.223-20.571Z" transform="translate(-11.784 -98.425)" fill="#fff"/>
    <path id="Path_668" data-name="Path 668" d="M65.923,595.539a1.018,1.018,0,0,1-.778-.334,1.2,1.2,0,0,1-.333-.778l1.779-42.034a1.2,1.2,0,0,1,1.112-1.112l36.461.889a1.011,1.011,0,0,1,.778.334,1.2,1.2,0,0,1,.334.778c0,.112-.778,11.564-.334,19.349,16.674,0,61.028,9.785,62.362,16.124a4.979,4.979,0,0,1-.888,4.225c-1.668,2.113-5,2.224-5.115,2.224ZM68.7,553.505l-1.667,39.809,94.264-.223a4.649,4.649,0,0,0,3.336-1.446,3.26,3.26,0,0,0,.444-2.446c-1.223-3.781-42.241-14.9-61.139-14.345a1.111,1.111,0,0,1-1.112-1,178.272,178.272,0,0,1,.223-19.57Z" transform="translate(-11.543 -98.184)" fill="#2d2926"/>
    <path id="Path_669" data-name="Path 669" d="M26.827,566.164l-1.779,30.913,95.488-.223s5.891-.111,4.891-5.115S81.074,576.06,63.177,576.505c-.556-7.894.222-9.452.222-9.452Z" transform="translate(-4.461 -100.835)" fill="#fff"/>
    <path id="Path_670" data-name="Path 670" d="M24.807,597.972a1.01,1.01,0,0,1-.778-.334,1.2,1.2,0,0,1-.333-.778l1.779-30.913a1.111,1.111,0,0,1,1.112-1l36.572.778a.878.878,0,0,1,.889.556,1.012,1.012,0,0,1,0,1.112s-.556,1.557-.222,7.783c16.674,0,61.028,9.786,62.362,16.124a4.978,4.978,0,0,1-.888,4.226c-1.668,2.112-5,2.223-5.115,2.223Zm2.779-30.913-1.667,28.69,94.264-.223a4.657,4.657,0,0,0,3.336-1.446,3.262,3.262,0,0,0,.444-2.447c-1.222-3.78-42.241-14.9-61.139-14.345a1.112,1.112,0,0,1-1.112-1,39.927,39.927,0,0,1,0-8.452Z" transform="translate(-4.22 -100.618)" fill="#2d2926"/>
    <path id="Path_671" data-name="Path 671" d="M57.686,333.32l52.245.667,14.674,187.371H51.016C51.016,521.246,57.686,351.334,57.686,333.32Z" transform="translate(-9.086 -59.365)" fill="#fcd299"/>
    <path id="Path_672" data-name="Path 672" d="M14.024,333.32l61.25.667,5.78,193.743H7.465C7.354,527.729,14.024,351.89,14.024,333.32Z" transform="translate(-1.329 -59.365)" fill="#fcd299"/>
    <path id="Path_673" data-name="Path 673" d="M245.685,192.675c3.113-.222,5.559,4.893,0,6.783s-10.116-.445-13.339,2.891l-4.557.445.445-5.449,6.781-5Z" transform="translate(-40.569 -34.256)" fill="#fff"/>
    <path id="Path_674" data-name="Path 674" d="M227.547,203.53a1.011,1.011,0,0,1-.778-.334,1.265,1.265,0,0,1-.333-.889l.445-5.448a.932.932,0,0,1,.444-.778l6.781-5a1.565,1.565,0,0,1,.667-.223l10.672.333a4.449,4.449,0,0,1,4.335,3.447c.334,1.779-.444,4.226-4,5.449a19.893,19.893,0,0,1-6.892.889c-2.556,0-4.557.111-6,1.668a.936.936,0,0,1-.3.234.962.962,0,0,1-.367.1l-4.558.445C227.658,203.53,227.658,203.53,227.547,203.53Zm1.556-6-.333,3.669,2.89-.334c2.112-1.89,4.669-2,7.336-2a20.8,20.8,0,0,0,6.226-.778c1.89-.667,2.779-1.668,2.557-2.891a2.035,2.035,0,0,0-2.112-1.668h-.111l-10.339-.334Z" transform="translate(-40.329 -33.991)" fill="#2d2926"/>
    <path id="Path_675" data-name="Path 675" d="M225.78,205.136s6.114-1.668,8.337-.445c2.556,1.334,2.89,2.335,1.89,6.338l-7.67,5.449L224,210.063Z" transform="translate(-39.895 -36.376)" fill="#fff"/>
    <path id="Path_676" data-name="Path 676" d="M227.945,217.369h-.223a1.118,1.118,0,0,1-.436-.141,1.079,1.079,0,0,1-.343-.3l-4.335-6.449a1.078,1.078,0,0,1-.175-.487,1.1,1.1,0,0,1,.063-.514l1.779-4.893a1.183,1.183,0,0,1,.778-.667c1.112-.334,6.67-1.668,9.226-.334,3.336,1.779,3.446,3.559,2.335,7.561a2.312,2.312,0,0,1-.445.667l-7.671,5.448A4.426,4.426,0,0,1,227.945,217.369Zm-3-7.673,3.336,5,6.446-4.559c.89-3.447.445-3.67-1.445-4.67-1.112-.667-4.557-.112-7,.445Z" transform="translate(-39.615 -36.154)" fill="#2d2926"/>
    <path id="Path_677" data-name="Path 677" d="M130.131,255.458l48.245-18.9-12.116-29.579L112.68,231.55,95.45,202.417a31.319,31.319,0,0,0-20.565-14.679l-7.559-1.558-18.564-.332L31.42,190.629s-11.894,5-14.006,14.233-9.56,41.923-9.56,41.923S4.63,257.9,11.967,267.468c1.779,2.223,5.336,5.67,5.336,5.67l-3.335,33.917H102.23L100.9,265.021Z" transform="translate(-1.273 -33.1)" fill="#fff"/>
    <path id="Path_678" data-name="Path 678" d="M142.926,256.429a.965.965,0,0,1-1-.667,1.117,1.117,0,0,1-.073-.434,1.132,1.132,0,0,1,.1-.429,1.107,1.107,0,0,1,.261-.356,1.1,1.1,0,0,1,.378-.227l47.244-18.459-11.228-27.465-52.579,24.13a1.219,1.219,0,0,1-.8.03,1.206,1.206,0,0,1-.645-.476l-17.229-29.134a29.894,29.894,0,0,0-19.9-14.089L79.9,187.3a1.122,1.122,0,0,1-.408-.169,1.135,1.135,0,0,1-.481-1.165,1.13,1.13,0,0,1,1.334-.888l7.559,1.556a32.236,32.236,0,0,1,21.343,15.236l16.675,28.244,52.689-24.13a1.224,1.224,0,0,1,.89,0,1,1,0,0,1,.418.25,1.015,1.015,0,0,1,.25.418l12.116,29.578a1.223,1.223,0,0,1,0,.89,1.11,1.11,0,0,1-.667.556l-48.245,18.9A.844.844,0,0,0,142.926,256.429Z" transform="translate(-14.068 -32.958)" fill="#2d2926"/>
    <path id="Path_679" data-name="Path 679" d="M137.937,266.3,71.351,232.39,22.884,327.131l66.364,35.139Z" transform="translate(-4.076 -41.389)" fill="#fff"/>
    <path id="Path_680" data-name="Path 680" d="M89.024,363.158a1,1,0,0,1-.556-.111L22.216,327.908a1.01,1.01,0,0,1-.337-.255,1.023,1.023,0,0,1-.108-1.19l48.467-94.742a1.017,1.017,0,0,1,.255-.337,1.029,1.029,0,0,1,.369-.2,1.011,1.011,0,0,1,.421-.038,1.031,1.031,0,0,1,.4.134l66.587,33.916a1.016,1.016,0,0,1,.54.625,1.014,1.014,0,0,1-.1.821L89.913,362.6a1.108,1.108,0,0,1-.667.556Zm-64.807-36.7L88.579,360.6l47.8-93.964L71.794,233.756Z" transform="translate(-3.852 -41.165)" fill="#2d2926"/>
    <path id="Path_681" data-name="Path 681" d="M41.352,251.33l52.913,23.129L77.924,310.266,30.458,289.584Z" transform="translate(-5.425 -44.762)" fill="#fff"/>
    <path id="Path_682" data-name="Path 682" d="M92.913,118.492s7.114-27.132-22.788-23.24c-15.229,2.224-33.349,13.122-29.569,24.13-4.78,2.891-13.339,16.235-10.116,29.357,3.113,12.9,11.783,17.014,22.788,15.679-.222-4.448-4-40.7-4-40.7Z" transform="translate(-5.295 -16.897)" fill="#fcd299"/>
    <path id="Path_683" data-name="Path 683" d="M73.759,170.2v6.338s-6.225,4.225-17.563.112c-.334-3.67-.778-15.012-.778-15.012A5.279,5.279,0,0,1,49.3,164.31c-4.558-.888-5.669-4.781-6-8.117s2-9.451,10.338-4l-1.89-23.352,41.241-5s10.227-1.556,10.449,3.559-3,6.783-9.782,8.34c-.111,3.114,2.668,36.251-16.007,34.917Z" transform="translate(-7.706 -22.015)" fill="#fff"/>
    <path id="Path_684" data-name="Path 684" d="M79.328,141.018a1.668,1.668,0,1,0-1.667-1.668A1.668,1.668,0,0,0,79.328,141.018Z" transform="translate(-13.831 -24.521)" fill="#2d2926"/>
    <path id="Path_685" data-name="Path 685" d="M88.254,140.477a1.668,1.668,0,1,0-1.667-1.668A1.668,1.668,0,0,0,88.254,140.477Z" transform="translate(-15.421 -24.425)" fill="#2d2926"/>
    <path id="Path_686" data-name="Path 686" d="M65.264,185.134a27.34,27.34,0,0,1-9.782-1.89,1.235,1.235,0,0,1-.778-1c-.222-2.557-.556-8.784-.667-12.342a6.665,6.665,0,0,1-5.336,1c-4.113-.779-6.447-3.893-6.892-9.119a7.272,7.272,0,0,1,2.89-6.671c2.334-1.335,5.336-.89,9.115,1.557a1.125,1.125,0,1,1-1.223,1.89c-3-1.89-5.336-2.446-6.781-1.556s-1.89,3.224-1.779,4.559c.334,4.337,2,6.56,5,7.116,3.668.667,4.891-2,4.891-2a1.1,1.1,0,0,1,2.112.334c0,.111.445,10.119.778,14.234,8.559,2.891,13.784.778,15.452,0v-5.56a1.112,1.112,0,0,1,2.223,0v6.338a1.366,1.366,0,0,1-.445.89C73.823,183.133,70.822,185.134,65.264,185.134Z" transform="translate(-7.438 -27.494)" fill="#2d2926"/>
    <path id="Path_687" data-name="Path 687" d="M84.062,171.562H82.839l-7.559-.778a1.3,1.3,0,0,1-1-1.223,1.212,1.212,0,0,1,1.223-1l7.559.778a10.26,10.26,0,0,0,8.226-2.78c7.115-6.784,6.669-23.686,6.558-29.246v-1.779a1.114,1.114,0,0,1,.889-1c7-1.556,9-3.224,8.893-7.228a1.653,1.653,0,0,0-.667-1.445c-1.89-1.557-6.67-1.223-8.448-1a1.112,1.112,0,1,1-.84-2.057,1.128,1.128,0,0,1,.506-.056c.778-.111,7.225-1,10.116,1.446a4.249,4.249,0,0,1,1.556,3.113c.223,6.228-4.224,8.006-9.782,9.341v.778c.111,5.782.556,23.575-7.225,30.913A12.951,12.951,0,0,1,84.062,171.562Z" transform="translate(-13.229 -21.817)" fill="#2d2926"/>
    <path id="Path_688" data-name="Path 688" d="M40.14,124.4a1.166,1.166,0,0,1-1-.555c-.111-.334-3.779-6.784-10.227-4.449a1.115,1.115,0,0,1-.434.069,1.126,1.126,0,0,1-.344-2.181c6.559-2.447,11.338,2.446,12.895,5.448a1.112,1.112,0,0,1-.095,1.273,1.127,1.127,0,0,1-.35.284C40.474,124.257,40.362,124.4,40.14,124.4Z" transform="translate(-4.88 -20.771)" fill="#2d2926"/>
    <path id="Path_689" data-name="Path 689" d="M73.554,299.426a.666.666,0,0,1-.445-.111L24.2,278.076A27.3,27.3,0,0,1,6.524,246.605l8.448-39.03a25.36,25.36,0,0,1,18.564-19.348l15.452-4a1.112,1.112,0,0,1,.556,2.113l-15.451,4A23.059,23.059,0,0,0,17.2,208.02L8.747,247.052a25.009,25.009,0,0,0,16.341,28.911L73,296.868l15.34-33.8-51.8-22.684a1.112,1.112,0,0,1,.889-2L90.34,261.507a1.1,1.1,0,0,1,.345.277,1.118,1.118,0,0,1,.21.39,1.219,1.219,0,0,1,0,.888L74.666,298.87a1.365,1.365,0,0,1-1.112.556Z" transform="translate(-1.055 -32.81)" fill="#2d2926"/>
    <path id="Path_690" data-name="Path 690" d="M101.707,288.673s10.449,4.447,16.9,5.337c7.671,1.112,26.123-4.892,28.679-1,1.445,2.224-1.89,4.225-3.557,5.449a87.3,87.3,0,0,1-8.67,4.336s6.114.334,6.558,4.558c.112,1.668.112,5.561-5,4.894,2,2.224,3.557,3.781,2.224,6s-6.337,1.112-6.337,1.112,4.558,3.114,2.557,5.893c-1.335,1.779-2.891,2.558-6.225,1.224,1,2,.556,3.559-.223,4.337-3.668,4.114-15.785-2.558-19.342-5.227-2.891-2.223-14.673-14.678-17.675-14.678Z" transform="translate(-16.313 -51.413)" fill="#fff"/>
    <path id="Path_691" data-name="Path 691" d="M124.793,332.892c-6,0-14.673-5.338-16.452-6.672-.889-.667-2.556-2.335-4.779-4.336-3.446-3.225-10.672-10.12-12.339-10.12a.986.986,0,0,1-.889-.556,1.279,1.279,0,0,1-.111-1.112l10.116-22.24a1.111,1.111,0,0,1,1.445-.556c.111,0,10.338,4.338,16.563,5.227,3.113.445,8.226-.334,13.117-1.111,7.78-1.224,14.451-2.224,16.34.555s-1.556,5.338-3.445,6.562l-.445.334a45.049,45.049,0,0,1-5.78,3c1.89.778,4,2.113,4.225,4.894.223,2.224-.222,3.891-1.445,4.892a4.682,4.682,0,0,1-2.223,1.112c1.222,1.668,2,3.337.778,5.448a5.019,5.019,0,0,1-4.224,2,5.683,5.683,0,0,1,1.111,2.335,3.892,3.892,0,0,1-.667,2.892,5.082,5.082,0,0,1-5.559,2.223,4,4,0,0,1-1,3.336,4.853,4.853,0,0,1-4.336,1.89Zm-31.9-22.907c2.668,1.223,6.892,5.116,12.339,10.23a48.8,48.8,0,0,0,4.558,4.114c4,3,14.9,8.563,17.786,5.337.223-.222.889-1.223,0-3.113a1.112,1.112,0,0,1,.809-1.5,1.094,1.094,0,0,1,.636.058c3.113,1.222,4,.334,4.891-.779a2.15,2.15,0,0,0,.334-1.112,5.669,5.669,0,0,0-2.558-3.113,1.28,1.28,0,0,1-.444-1.335,1.2,1.2,0,0,1,1.223-.667c1.667.334,4.446.445,5.113-.667.778-1.333.222-2.223-1.779-4.336l-.334-.445a1.01,1.01,0,0,1-.11-1.223.969.969,0,0,1,.456-.478.981.981,0,0,1,.655-.079,3.423,3.423,0,0,0,3-.556,3.654,3.654,0,0,0,.667-3.113c-.334-3.225-5.447-3.559-5.447-3.559a1.1,1.1,0,0,1-.334-2.113,74.642,74.642,0,0,0,8.447-4.225l.556-.334c2.223-1.557,3.446-2.669,2.78-3.559-1.112-1.667-8.671-.445-14.119.334-5.113.779-10.337,1.558-13.783,1.112-5.448-.778-13.339-3.891-16.23-5Z" transform="translate(-16.055 -51.153)" fill="#2d2926"/>
    <path id="Path_692" data-name="Path 692" d="M145.09,317.161a25.6,25.6,0,0,1-5.891-.889Z" transform="translate(-24.792 -56.329)" fill="#fff"/>
    <path id="Path_693" data-name="Path 693" d="M144.859,318.042a26.87,26.87,0,0,1-6.225-.889,1.126,1.126,0,0,1,.778-2.113,26.163,26.163,0,0,0,5.559.778,1.113,1.113,0,0,1,1.111,1.112,1.291,1.291,0,0,1-1.223,1.112Z" transform="translate(-24.56 -56.097)" fill="#2d2926"/>
    <path id="Path_694" data-name="Path 694" d="M140.375,325.845s-3.223-.445-4.557-.778Z" transform="translate(-24.189 -57.895)" fill="#fff"/>
    <path id="Path_695" data-name="Path 695" d="M140.19,326.74h-.111c-.112,0-3.335-.445-4.668-.778a1.112,1.112,0,0,1,.555-2.113c1.224.334,4.336.778,4.336.778a1.3,1.3,0,0,1,1,1.223,1.112,1.112,0,0,1-1.112.89Z" transform="translate(-24.004 -57.678)" fill="#2d2926"/>
    <path id="Path_696" data-name="Path 696" d="M135.961,334.215a29.385,29.385,0,0,1-4.336-2.112Z" transform="translate(-23.443 -59.148)" fill="#fff"/>
    <path id="Path_697" data-name="Path 697" d="M135.7,335.068a.663.663,0,0,1-.445-.112,22.8,22.8,0,0,1-4.668-2.3,1.111,1.111,0,0,1-.442-.81,1.108,1.108,0,0,1,.72-1.12,1.11,1.11,0,0,1,1.278.374,23.116,23.116,0,0,0,4,1.89,1.115,1.115,0,0,1,.74,1.011,1.133,1.133,0,0,1-.072.435A1.992,1.992,0,0,1,135.7,335.068Z" transform="translate(-23.178 -58.89)" fill="#2d2926"/>
    <path id="Path_698" data-name="Path 698" d="M143.149,305.661a48.083,48.083,0,0,1-6.114-.89Z" transform="translate(-24.406 -54.28)" fill="#fff"/>
    <path id="Path_699" data-name="Path 699" d="M142.964,306.557a45.122,45.122,0,0,1-6.337-.89,1.112,1.112,0,0,1,.556-2.112c2,.445,5.891.778,5.891.778a1,1,0,0,1,.442.09,1,1,0,0,1,.558,1.133,1.178,1.178,0,0,1-1.111,1Z" transform="translate(-24.221 -54.063)" fill="#2d2926"/>
    <path id="Path_700" data-name="Path 700" d="M218.044,214.142c1.333-4,10.45-6.894,15.34-9.341s6.67.89,6.337,3.225c-.445,2.112-4.113,3.224-7.559,6.338s-1.557,9.786-5.558,14.011-15.563,2.669-15.563,2.669l-8-19.571s8.781-3.447,12.117-9.564,7-11.008,12.338-13.565c4.558-2.113,13.339-3.448,16.563-2.558,2.335.667,4.446,4.67-3.557,6.339s-10.56,2.223-12.672,4.893-3,8.784-2.557,11.454" transform="translate(-36.161 -33.039)" fill="#fff"/>
    <path id="Path_701" data-name="Path 701" d="M215.45,232.1a23.889,23.889,0,0,1-4.89-.334.963.963,0,0,1-.889-.667l-8-19.57a1.223,1.223,0,0,1,0-.89,1.116,1.116,0,0,1,.667-.556c.111,0,8.448-3.448,11.45-9.119,3.89-7.339,7.893-11.676,12.894-14.01,4.781-2.225,13.785-3.671,17.342-2.669a3.828,3.828,0,0,1,2.891,3.67c0,1.334-.89,3.67-6.56,4.893-8,1.668-10.226,2.224-12,4.447-1.446,1.891-2.446,6.339-2.446,9.23,1-.445,2-.89,2.89-1.222,1.335-.556,2.669-1.113,3.78-1.668,3.224-1.557,5.224-.89,6.225-.111a4.979,4.979,0,0,1,1.668,4.558c-.334,1.779-2,2.891-4.114,4.226a36.755,36.755,0,0,0-3.89,2.78c-1.445,1.223-1.779,3.336-2.223,5.672-.445,2.668-1,5.782-3.335,8.117C224.567,231.549,219.341,232.1,215.45,232.1Zm-4-2.447c3.446.334,11.227.557,14.006-2.334,1.779-1.89,2.223-4.56,2.668-7.006s.889-5.226,3-7.005c1.445-1.224,2.891-2.113,4.113-3,1.557-1,2.89-1.89,3.113-2.669a2.38,2.38,0,0,0-.778-2.334c-.778-.667-2.223-.556-3.891.332-1.112.556-2.446,1.113-3.891,1.668-4.225,1.779-10.116,4.337-11,6.894a1.135,1.135,0,0,1-.584.634,1.126,1.126,0,0,1-1.528-1.412c.777-2.446,3.668-4.336,7-6-.223-3.224.778-9.007,2.89-11.564,2.335-3,5.337-3.559,13.228-5.226,3.447-.778,4.78-1.891,4.78-2.78,0-.667-.667-1.223-1.333-1.446-2.78-.778-11.228.334-15.785,2.557s-8.226,6.228-11.895,13.122c-2.779,5.226-9.116,8.451-11.562,9.674Z" transform="translate(-35.902 -32.765)" fill="#2d2926"/>
    <path id="Path_702" data-name="Path 702" d="M15.2,326.84c-.667-.112-1.223-.556-1.112-1.224L17.425,291.7a1.117,1.117,0,1,1,2.223.223l-3.335,33.916a1.179,1.179,0,0,1-1.112,1Z" transform="translate(-2.507 -51.773)" fill="#2d2926"/>
    <path id="Path_703" data-name="Path 703" d="M95.9,546.293a1.11,1.11,0,0,1-1.112-1.112L91.455,432.426a1.041,1.041,0,0,1,.065-.436,1.028,1.028,0,0,1,.239-.371,1.039,1.039,0,0,1,.808-.3,1.111,1.111,0,0,1,1.112,1.112l3.335,112.755a1.11,1.11,0,0,1-1.112,1.112Z" transform="translate(-16.288 -76.817)" fill="#2d2926"/>
    <path id="Path_705" data-name="Path 705" d="M263.481,266.162c10.093-78.508,35.86-131.416,35.86-131.416l32.759.145,50.423.289s38.072,81,37.461,190.44c-.245,42.055-4.825,73.447-10.5,96.254-9.783,39.676-22.922,53.965-22.922,53.965l-80.581-.467h-5.9l-9.093-.09s-12.917-14.444-22.154-54.087c-1.434-6.026-2.8-12.754-4.024-20.093Z" transform="translate(-46.926 -23.998)" fill="#fff"/>
    <path id="Path_706" data-name="Path 706" d="M348.964,66.57,307.112,122.6l41.508.211,41.575.3Z" transform="translate(-54.697 -11.856)" fill="rgba(75,56,76,0.75)"/>
    <path id="Path_707" data-name="Path 707" d="M385.626,591l-82.27-.523-6.415-41.388,95.577.545Z" transform="translate(-52.886 -97.794)" fill="rgba(75,56,76,0.75)"/>
    <path id="Path_708" data-name="Path 708" d="M260.912,483.268,219.27,516.817l-.233,31.68,64.029-11.119S270.149,522.911,260.912,483.268Z" transform="translate(-39.011 -86.071)" fill="rgba(75,56,76,0.75)"/>
    <path id="Path_709" data-name="Path 709" d="M436.129,484.3c-9.761,39.509-22.9,53.8-22.9,53.8l63.863,11.832.221-31.681Z" transform="translate(-73.597 -86.254)" fill="rgba(75,56,76,0.75)"/>
    <path id="Path_710" data-name="Path 710" d="M412.892,476.64a1.323,1.323,0,0,1-1.689-.056,1.189,1.189,0,0,1-.3-1.386,1.177,1.177,0,0,1,.3-.4c.188-.155,13-14.656,22.6-53.376,6.67-27.1,10.183-59.391,10.394-95.988.644-107.863-36.962-189.038-37.34-189.905a1.235,1.235,0,0,1,2.224-1.045c.367.834,38.206,82.52,37.594,191-.233,36.773-3.746,69.243-10.549,96.6-9.76,39.5-22.644,53.9-23.144,54.487Z" transform="translate(-72.449 -23.843)" fill="#2d2926"/>
    <path id="Path_711" data-name="Path 711" d="M291.812,533.683a1.242,1.242,0,0,1-1.387.154,1.241,1.241,0,0,1-.381-.309c-.478-.578-13.206-15.19-22.466-54.688-1.479-6.472-2.845-13.21-3.924-20.183a1.3,1.3,0,0,1,2.545-.489c1.179,6.894,2.446,13.711,3.936,20.016,9.047,38.853,21.776,53.464,21.932,53.665a1.444,1.444,0,0,1-.256,1.845Z" transform="translate(-46.956 -81.431)" fill="#2d2926"/>
    <path id="Path_712" data-name="Path 712" d="M264.022,266.845a1.115,1.115,0,0,1-.911.279,1.119,1.119,0,0,1-.491-.128,1.137,1.137,0,0,1-.382-.333,1.112,1.112,0,0,1-.194-.468,1.1,1.1,0,0,1,.032-.506c10-77.839,35.672-131.215,35.994-131.849a1.243,1.243,0,0,1,2.223,1.112c-.223.523-25.756,53.721-35.66,131.082A3.338,3.338,0,0,1,264.022,266.845Z" transform="translate(-46.668 -23.715)" fill="#2d2926"/>
    <path id="Path_713" data-name="Path 713" d="M394.706,301.859a1.2,1.2,0,0,1-1.435,0,1.292,1.292,0,0,1-.467-1.735,44.9,44.9,0,0,0-38.683-67.208,42.2,42.2,0,0,0-11.738,1.456,1.237,1.237,0,1,1-.679-2.379,47.479,47.479,0,0,1,12.461-1.579,46.8,46.8,0,0,1,33.349,14.045,47.494,47.494,0,0,1,13.762,33.648,46.4,46.4,0,0,1-6.269,23.353A1.023,1.023,0,0,1,394.706,301.859Z" transform="translate(-60.698 -41.037)" fill="#2d2926"/>
    <path id="Path_714" data-name="Path 714" d="M378.689,330.328a47.257,47.257,0,0,1-68.62-8.507,1.267,1.267,0,0,1,.282-1.833,1.239,1.239,0,0,1,.477-.2,1.285,1.285,0,0,1,.516.009,1.281,1.281,0,0,1,.815.6,45.163,45.163,0,0,0,35.95,18.471,44.461,44.461,0,0,0,32.17-13.344,1.255,1.255,0,0,1,1.779,0,1.359,1.359,0,0,1,0,1.789C380.923,328.293,379.845,329.361,378.689,330.328Z" transform="translate(-55.175 -56.951)" fill="#2d2926"/>
    <path id="Path_715" data-name="Path 715" d="M358.594,55.682a1.257,1.257,0,0,1-.745.289,1.213,1.213,0,0,1-1.147-.784,1.243,1.243,0,0,1-.077-.484l.29-53.565a1.256,1.256,0,0,1,2.5,0l-.3,53.565a1.359,1.359,0,0,1-.158.544A1.381,1.381,0,0,1,358.594,55.682Z" transform="translate(-63.515 0)" fill="#2d2926"/>
    <path id="Path_716" data-name="Path 716" d="M344.594,320.827a42.812,42.812,0,1,0-42.8-42.812A42.805,42.805,0,0,0,344.594,320.827Z" transform="translate(-53.751 -41.89)" fill="#fcd299"/>
  </g>
</svg>
