<?xml version="1.0" encoding="UTF-8" standalone="no"?>
<svg
   id="h2"
   width="499.571"
   height="590.985"
   viewBox="0 0 499.571 590.985"
   version="1.1"
   sodipodi:docname="step-2.svg"
   inkscape:version="1.2.2 (b0a84865, 2022-12-01)"
   xmlns:inkscape="http://www.inkscape.org/namespaces/inkscape"
   xmlns:sodipodi="http://sodipodi.sourceforge.net/DTD/sodipodi-0.dtd"
   xmlns="http://www.w3.org/2000/svg"
   xmlns:svg="http://www.w3.org/2000/svg">
  <defs
     id="defs186" />
  <sodipodi:namedview
     id="namedview184"
     pagecolor="#ffffff"
     bordercolor="#000000"
     borderopacity="0.25"
     inkscape:showpageshadow="2"
     inkscape:pageopacity="0.0"
     inkscape:pagecheckerboard="0"
     inkscape:deskcolor="#d1d1d1"
     showgrid="false"
     inkscape:zoom="1.5973333"
     inkscape:cx="247.28715"
     inkscape:cy="290.48415"
     inkscape:window-width="1800"
     inkscape:window-height="1126"
     inkscape:window-x="0"
     inkscape:window-y="43"
     inkscape:window-maximized="0"
     inkscape:current-layer="h2" />
  <path
     id="Path_516"
     data-name="Path 516"
     d="M182.934,157.088v62.606h-62.45V157.088Z"
     transform="translate(272.684 -30.155)"
     fill="#fff" />
  <path
     id="Path_517"
     data-name="Path 517"
     d="M119.93,220.855h62.606a1.46,1.46,0,0,0,.613-.09,1.5,1.5,0,0,0,.521-.336,1.476,1.476,0,0,0,.336-.522,1.457,1.457,0,0,0,.091-.613V156.687a1.471,1.471,0,0,0-1.561-1.561H119.93a1.478,1.478,0,0,0-.614.092,1.441,1.441,0,0,0-.52.336,1.459,1.459,0,0,0-.336.52,1.477,1.477,0,0,0-.092.613v62.607a1.562,1.562,0,0,0,1.562,1.561Zm60.889-3.122H121.335V158.249h59.484Z"
     transform="translate(273.238 -29.786)"
     fill="#2d2926" />
  <path
     id="Path_518"
     data-name="Path 518"
     d="M238.452,65.291a12.178,12.178,0,1,0-21.39-7.962,13.342,13.342,0,0,0,.469,3.591v4.371H197.859V2.685h62.607V65.291Z"
     transform="translate(132.327 -1.121)"
     fill="#fff" />
  <path
     id="Path_519"
     data-name="Path 519"
     d="M197.036,66.527h19.671a1.465,1.465,0,0,0,1.134-.427,1.451,1.451,0,0,0,.336-.521,1.476,1.476,0,0,0,.092-.613v-4.84A10.057,10.057,0,0,1,217.8,57a10.616,10.616,0,0,1,21.233,0,10.926,10.926,0,0,1-2.654,7.026,1.689,1.689,0,0,0-.393.816,1.707,1.707,0,0,0,.081.9,1.559,1.559,0,0,0,1.4.937h22.17a1.468,1.468,0,0,0,1.47-.948,1.45,1.45,0,0,0,.09-.613V2.515a1.463,1.463,0,0,0-.426-1.135,1.464,1.464,0,0,0-1.133-.427H197.036a1.471,1.471,0,0,0-1.135.427,1.463,1.463,0,0,0-.426,1.135V65.121a1.437,1.437,0,0,0,1.561,1.405Zm18.11-3.123H198.6V3.92H258.08V63.4h-17.7a13.364,13.364,0,0,0,1.561-6.4,13.739,13.739,0,1,0-27.477,0,15.384,15.384,0,0,0,.469,3.747V63.4Z"
     transform="translate(133.526 -0.794)"
     fill="#2d2926" />
  <path
     id="Path_520"
     data-name="Path 520"
     d="M132.471,94.521a11.648,11.648,0,0,1,7.962,2.967V75.318H162.6a12.178,12.178,0,1,1,21.389-7.962,11.642,11.642,0,0,1-2.966,7.962H203.2v62.606h-22.17a12.178,12.178,0,1,1-21.389,7.963,11.647,11.647,0,0,1,2.966-7.963h-22.17v-22.17a12.148,12.148,0,0,1-19.2-13.841,12.071,12.071,0,0,1,11.235-7.393Z"
     transform="translate(252.578 -10.991)"
     fill="#fff" />
  <path
     id="Path_521"
     data-name="Path 521"
     d="M171.448,159.265a13.753,13.753,0,0,0,13.739-13.739,14.358,14.358,0,0,0-1.561-6.4h19.2a1.448,1.448,0,0,0,.613-.091,1.464,1.464,0,0,0,.857-.857,1.457,1.457,0,0,0,.091-.613V74.957a1.468,1.468,0,0,0-1.561-1.561h-19.2a13.391,13.391,0,0,0,1.561-6.4,13.739,13.739,0,1,0-27.478,0,14.371,14.371,0,0,0,1.561,6.4h-19.2a1.466,1.466,0,0,0-1.561,1.561v19.2a13.367,13.367,0,0,0-6.4-1.561,13.739,13.739,0,1,0,0,27.478,14.349,14.349,0,0,0,6.4-1.561v19.171a1.466,1.466,0,0,0,1.561,1.562h19.2a13.37,13.37,0,0,0-1.561,6.4,13.724,13.724,0,0,0,13.739,13.615ZM201.112,136H180.5a1.558,1.558,0,0,0-1.4.936,1.421,1.421,0,0,0,.312,1.717,10.337,10.337,0,0,1,2.655,7.025,10.617,10.617,0,0,1-21.233,0,10.93,10.93,0,0,1,2.653-7.025,1.7,1.7,0,0,0,.313-1.717,1.56,1.56,0,0,0-1.4-.936H141.784V115.393a1.564,1.564,0,0,0-.937-1.4,1.421,1.421,0,0,0-1.717.312,10.339,10.339,0,0,1-7.026,2.654,10.617,10.617,0,0,1,0-21.233,10.937,10.937,0,0,1,7.026,2.654,1.7,1.7,0,0,0,1.717.313,1.566,1.566,0,0,0,.937-1.406V76.674h20.608a1.562,1.562,0,0,0,1.4-.937,1.417,1.417,0,0,0-.313-1.717,10.335,10.335,0,0,1-2.653-7.026,10.617,10.617,0,0,1,21.233,0,10.926,10.926,0,0,1-2.655,7.026,1.7,1.7,0,0,0-.312,1.717,1.559,1.559,0,0,0,1.4.937h20.609Z"
     transform="translate(252.945 -10.63)"
     fill="#2d2926" />
  <path
     id="Path_522"
     data-name="Path 522"
     d="M194.411,157.088A12.178,12.178,0,1,0,215.8,165.05a11.642,11.642,0,0,0-2.967-7.962H235v22.17a12.178,12.178,0,1,1,7.962,21.389A11.645,11.645,0,0,1,235,197.681v22.17H172.4V157.212h22.014Z"
     transform="translate(158.321 -30.155)"
     fill="#fff" />
  <path
     id="Path_523"
     data-name="Path 523"
     d="M172.111,220.819h62.607a1.45,1.45,0,0,0,.613-.091,1.479,1.479,0,0,0,.52-.335,1.467,1.467,0,0,0,.426-1.135v-19.2a13.385,13.385,0,0,0,6.4,1.561,13.739,13.739,0,1,0,0-27.477,14.348,14.348,0,0,0-6.4,1.561V156.5a1.467,1.467,0,0,0-.426-1.136,1.476,1.476,0,0,0-1.133-.426h-22.17a1.565,1.565,0,0,0-1.405.938,1.423,1.423,0,0,0,.313,1.717,10.34,10.34,0,0,1,2.654,7.025,10.616,10.616,0,1,1-21.233,0,10.926,10.926,0,0,1,2.653-7.025,1.7,1.7,0,0,0,.313-1.717,1.567,1.567,0,0,0-1.406-.938H172.268a1.483,1.483,0,0,0-1.135.426,1.493,1.493,0,0,0-.335.522,1.478,1.478,0,0,0-.091.614V219.1a1.407,1.407,0,0,0,1.4,1.717Zm61.045-3.122H173.672V158.213h17.642a13.38,13.38,0,0,0-1.561,6.4,13.739,13.739,0,1,0,27.478,0,14.324,14.324,0,0,0-1.561-6.4h17.642v20.608a1.563,1.563,0,0,0,.938,1.4,1.422,1.422,0,0,0,1.717-.312,10.327,10.327,0,0,1,7.025-2.654,10.616,10.616,0,1,1,0,21.233,10.919,10.919,0,0,1-7.025-2.654,1.7,1.7,0,0,0-1.717-.312,1.563,1.563,0,0,0-.938,1.4V217.7Z"
     transform="translate(158.45 -29.749)"
     fill="#2d2926" />
  <path
     id="Path_524"
     data-name="Path 524"
     d="M181.413,65.255a12.178,12.178,0,1,0-21.389-7.962,11.646,11.646,0,0,0,2.966,7.962H140.82V43.085A12.177,12.177,0,1,1,132.858,21.7a11.645,11.645,0,0,1,7.962,2.966V2.493h62.607V65.1H181.413Z"
     transform="translate(252.035 -1.084)"
     fill="#fff" />
  <path
     id="Path_525"
     data-name="Path 525"
     d="M140.417,66.49h22.169a1.562,1.562,0,0,0,1.406-.937,1.423,1.423,0,0,0-.313-1.717,10.339,10.339,0,0,1-2.654-7.026,10.617,10.617,0,0,1,21.234,0,10.94,10.94,0,0,1-2.655,7.026,1.7,1.7,0,0,0-.313,1.717,1.562,1.562,0,0,0,1.406.937h22.17a1.468,1.468,0,0,0,1.561-1.561V2.323A1.467,1.467,0,0,0,202.866.762H140.259a1.465,1.465,0,0,0-1.133.427,1.463,1.463,0,0,0-.426,1.135v19.2a13.387,13.387,0,0,0-6.4-1.561,13.739,13.739,0,0,0,0,27.478,14.359,14.359,0,0,0,6.4-1.561v19.2a1.7,1.7,0,0,0,1.717,1.405Zm19.2-3.123H141.976V42.759a1.561,1.561,0,0,0-.935-1.405,1.42,1.42,0,0,0-1.717.312A10.339,10.339,0,0,1,132.3,44.32a10.617,10.617,0,0,1,0-21.233,10.934,10.934,0,0,1,7.027,2.654,1.7,1.7,0,0,0,1.717.312,1.561,1.561,0,0,0,.935-1.405V4.04h59.485V63.524H183.818a13.375,13.375,0,0,0,1.562-6.4,13.739,13.739,0,1,0-27.478,0A12.977,12.977,0,0,0,159.619,63.368Z"
     transform="translate(252.752 -0.758)"
     fill="#2d2926" />
  <path
     id="Path_526"
     data-name="Path 526"
     d="M443.862,678.917s-1.093,12.334-1.717,17.955c10.3-.624,63.074,9.054,64.323,14.207a4.685,4.685,0,0,1-3.747,5.933H398.584l2.967-40.124Z"
     transform="translate(-276.841 -127.901)"
     fill="#fff" />
  <path
     id="Path_527"
     data-name="Path 527"
     d="M502.652,718.559a6.239,6.239,0,0,0,4.216-2.655,6.376,6.376,0,0,0,.78-5.152c-.313-1.249-1.093-4.528-29.976-10.46-13.895-2.81-27.791-4.839-34.192-5,.624-6.088,1.562-16.237,1.562-16.237a1.217,1.217,0,0,0-.313-1.249,1.388,1.388,0,0,0-.494-.354,1.417,1.417,0,0,0-.6-.114l-42.309-2.187a1.467,1.467,0,0,0-.581.069,1.422,1.422,0,0,0-.505.3,1.437,1.437,0,0,0-.347.47,1.461,1.461,0,0,0-.129.572L396.8,716.685a1.776,1.776,0,0,0,.468,1.249,1.427,1.427,0,0,0,1.093.469H502.5C502.652,718.4,502.652,718.4,502.652,718.559Zm-99.92-40.124,39.031,2.029c-.312,3.435-1.093,11.866-1.561,16.238a1.544,1.544,0,0,0,.08.684,1.566,1.566,0,0,0,.369.585,1.541,1.541,0,0,0,.583.367,1.562,1.562,0,0,0,.686.081c10.928-.624,60.107,8.9,62.762,12.958a3.6,3.6,0,0,1-.313,2.654,2.952,2.952,0,0,1-2.029,1.249H400.078Z"
     transform="translate(-276.617 -127.574)"
     fill="#2d2926" />
  <path
     id="Path_528"
     data-name="Path 528"
     d="M491.163,678.917s-1.093,12.334-1.719,17.955c10.3-.624,63.232,9.054,64.325,14.207a4.683,4.683,0,0,1-3.747,5.933H445.887l2.966-40.124Z"
     transform="translate(-362.549 -127.901)"
     fill="#fff" />
  <path
     id="Path_529"
     data-name="Path 529"
     d="M549.952,718.559a6.241,6.241,0,0,0,4.215-2.655,6.36,6.36,0,0,0,.78-5.152c-.312-1.249-1.091-4.528-29.976-10.46-13.9-2.81-27.79-4.839-34.191-5,.624-6.088,1.561-16.237,1.561-16.237a1.212,1.212,0,0,0-.312-1.249,1.422,1.422,0,0,0-1.093-.469l-42.31-2.187a1.472,1.472,0,0,0-.581.069,1.441,1.441,0,0,0-.85.766,1.449,1.449,0,0,0-.13.572L444.1,716.685a1.783,1.783,0,0,0,.469,1.249,1.427,1.427,0,0,0,1.093.469H549.8C549.952,718.4,549.952,718.4,549.952,718.559Zm-99.92-40.124,39.031,2.029c-.313,3.435-1.093,11.866-1.561,16.238a1.557,1.557,0,0,0,.448,1.269,1.566,1.566,0,0,0,1.269.448c10.929-.624,60.108,8.9,62.762,12.958a3.6,3.6,0,0,1-.312,2.654,2.956,2.956,0,0,1-2.03,1.249H447.393Z"
     transform="translate(-362.323 -127.574)"
     fill="#2d2926" />
  <path
     id="Path_530"
     data-name="Path 530"
     d="m 194.655,301.48621 h -69.008 l -20.3,255.46279 h 78.376 z"
     fill="#fcd299"
     style="stroke-width:0.92005" />
  <path
     id="Path_531"
     data-name="Path 531"
     d="M 155.468,301.48621 H 86.304 L 66.004,556.949 h 78.531 z"
     fill="#fcd299"
     style="stroke-width:0.92005" />
  <path
     id="Path_532"
     data-name="Path 532"
     d="M495.962,485.411l.626-14.052a1.562,1.562,0,0,0-3.124,0l-.624,14.052a1.561,1.561,0,1,0,3.122,0Z"
     transform="translate(-343.306 -88.959)"
     fill="#2d2926" />
  <path
     id="Path_533"
     data-name="Path 533"
     d="M497.116,652.6l6.246-145.665a1.561,1.561,0,1,0-3.122,0L493.994,652.6a1.561,1.561,0,0,0,1.561,1.561,1.467,1.467,0,0,0,1.47-.948A1.449,1.449,0,0,0,497.116,652.6Z"
     transform="translate(-351.017 -95.648)"
     fill="#2d2926" />
  <path
     id="Path_534"
     data-name="Path 534"
     d="M296.536,107.972s2.342-12.646,1.717-16.081-3.435-3.9-6.557-1.717c-9.524,6.87-3.124,26.073-1.875,34.348s-4.839,14.832-4.839,14.832l22.795,13.9a36.743,36.743,0,0,1,11.864-12.49c7.807-4.839,13.739-8.9,17.175-14.832,0,0,5.152-17.642-11.553-26.541S296.536,107.972,296.536,107.972Z"
     transform="translate(-15.513 -17.322)"
     fill="#fff" />
  <path
     id="Path_535"
     data-name="Path 535"
     d="M262.363,102.778l-20.3-9.055,25.449-57.142,20.3,9.055a12.583,12.583,0,0,1,.469-8.587,12.193,12.193,0,1,1,16.237,15.925l20.3,9.055-9.054,20.3a12.163,12.163,0,1,0-15.925,16.237,11.707,11.707,0,0,0,8.586.468l-9.055,20.3-20.3-9.055a12.577,12.577,0,0,1-.468,8.586,12.2,12.2,0,1,1-22.326-9.835A13.145,13.145,0,0,1,262.363,102.778Z"
     transform="translate(32.087 -6.196)"
     fill="rgba(75,56,76,0.75)" />
  <path
     id="Path_536"
     data-name="Path 536"
     d="M333.306,125.612a1.7,1.7,0,0,0,1.562-1.717,18.189,18.189,0,0,0-8.119-13.271,1.61,1.61,0,0,0-1.222-.14,1.6,1.6,0,0,0-.559.287,1.616,1.616,0,0,0-.405.478,1.606,1.606,0,0,0,.624,2.186,14.881,14.881,0,0,1,6.714,10.929C331.745,125.019,332.527,125.612,333.306,125.612Z"
     transform="translate(-44.79 -21.38)"
     fill="#2d2926" />
  <path
     id="Path_537"
     data-name="Path 537"
     d="M333.077,139.343s6.09-6.558,4.841-14.832-7.807-27.478,1.873-34.348c3.122-2.186,5.932-1.873,6.557,1.717s-1.717,16.081-1.717,16.081"
     transform="translate(-63.452 -17.312)"
     fill="#fff" />
  <path
     id="Path_538"
     data-name="Path 538"
     d="M332.716,140.6a1.418,1.418,0,0,0,1.093-.468c.313-.313,6.558-7.183,5.309-16.082a48.519,48.519,0,0,0-1.093-5.464c-1.875-8.9-4.685-22.326,2.185-27.322,1.406-1.093,2.5-1.249,3.123-.937s.78,1.093.936,1.717c.469,2.654-1.092,12.177-1.717,15.613a1.592,1.592,0,1,0,3.122.624c.313-1.25,2.342-12.959,1.717-16.706a5.011,5.011,0,0,0-2.81-4.059c-1.717-.781-3.9-.156-6.09,1.405-8.586,6.245-5.464,20.921-3.435,30.6.468,2.03.781,3.9,1.093,5.309,1.093,7.494-4.371,13.427-4.371,13.427a1.406,1.406,0,0,0,.156,2.186A3.1,3.1,0,0,0,332.716,140.6Z"
     transform="translate(-63.091 -17.01)"
     fill="#2d2926" />
  <path
     id="Path_539"
     data-name="Path 539"
     d="M410.845,166.447s-19.827.78-30.288,15.925-67.134,113.035-67.134,113.035l41.686,27.478,14.519-37.471,100.233-3.746-7.649-42.31-.782-4.059,17.174,6.245a30.619,30.619,0,0,0,32.788-7.806l61.341-65.885L532.606,143.34l-44.182,57.61s-19.2-15.144-33.567-22.481a100.78,100.78,0,0,0-25.137-9.524Z"
     transform="translate(-273.77 -27.57)"
     fill="#fff" />
  <path
     id="Path_540"
     data-name="Path 540"
     d="M372.591,244.633a32.292,32.292,0,0,0,23.419-10.149L457.367,168.6a1.773,1.773,0,0,0,.468-1.249,1.171,1.171,0,0,0-.78-1.093l-40.124-24.511a1.564,1.564,0,0,0-2.031.312L371.81,198.419c-4.527-3.435-20.452-15.456-32.63-21.7a105.2,105.2,0,0,0-25.6-9.68,1.592,1.592,0,1,0-.624,3.122,95.06,95.06,0,0,1,24.668,9.368c14.051,7.338,33.1,22.17,33.41,22.326a1.533,1.533,0,0,0,1.705.116,1.587,1.587,0,0,0,.481-.427l43.246-56.519,37.314,22.795L393.668,232.3a28.928,28.928,0,0,1-31.069,7.494l-17.175-6.244a1.581,1.581,0,0,0-1.093,2.966l17.174,6.246A34.457,34.457,0,0,0,372.591,244.633Z"
     transform="translate(-157.454 -27.225)"
     fill="#2d2926" />
  <path
     id="Path_541"
     data-name="Path 541"
     d="M525.743,85.834s9.284-35.416-29.738-30.335C476.132,58.4,452.487,72.626,457.42,87c-6.238,3.774-17.408,21.191-13.2,38.318,4.061,16.837,15.376,22.207,29.737,20.466-.29-5.806-5.223-53.124-5.223-53.124Z"
     transform="translate(-333.198 -10.958)"
     fill="#fcd299" />
  <path
     id="Path_542"
     data-name="Path 542"
     d="M472.784,154.578v8.273s-8.124,5.516-22.92.145c-.435-4.79-1.016-19.594-1.016-19.594a6.888,6.888,0,0,1-7.978,3.484c-5.947-1.162-7.4-6.242-7.832-10.6s2.61-12.338,13.49-5.226l-2.466-30.481,53.818-6.531s13.345-2.032,13.634,4.645-3.916,8.854-12.765,10.886c-.145,4.065,3.482,47.318-20.888,45.576Z"
     transform="translate(-309.657 -18.247)"
     fill="#fff" />
  <path
     id="Path_543"
     data-name="Path 543"
     d="M479.532,115.921a2.177,2.177,0,1,0-2.175-2.177A2.176,2.176,0,0,0,479.532,115.921Z"
     transform="translate(-315.855 -21.595)"
     fill="#2d2926" />
  <path
     id="Path_544"
     data-name="Path 544"
     d="M467.742,115.206a2.177,2.177,0,1,0-2.176-2.177A2.176,2.176,0,0,0,467.742,115.206Z"
     transform="translate(-294.49 -21.461)"
     fill="#2d2926" />
  <path
     id="Path_545"
     data-name="Path 545"
     d="M508.205,173.771A35.692,35.692,0,0,1,495.44,171.3,1.613,1.613,0,0,1,494.424,170c-.29-3.339-.725-11.466-.87-16.111a8.7,8.7,0,0,1-6.963,1.306c-5.367-1.017-8.413-5.08-8.994-11.9a9.495,9.495,0,0,1,3.772-8.709c3.046-1.742,6.963-1.161,11.894,2.032a1.469,1.469,0,1,1-1.6,2.468c-3.917-2.468-6.963-3.193-8.849-2.032s-2.466,4.21-2.321,5.951c.436,5.661,2.611,8.564,6.527,9.29,4.787.871,6.384-2.613,6.384-2.613a1.434,1.434,0,0,1,2.756.436c0,.145.581,13.208,1.015,18.578,11.17,3.774,17.988,1.016,20.163,0v-7.256a1.451,1.451,0,1,1,2.9,0v8.272a1.785,1.785,0,0,1-.581,1.162C519.374,171.159,515.458,173.771,508.205,173.771Z"
     transform="translate(-354.537 -25.742)"
     fill="#2d2926" />
  <path
     id="Path_546"
     data-name="Path 546"
     d="M442.766,155.547h-1.6l-9.864-1.017a1.695,1.695,0,0,1-1.306-1.6,1.583,1.583,0,0,1,1.6-1.306l9.864,1.017a13.382,13.382,0,0,0,10.733-3.629c9.285-8.854,8.7-30.915,8.559-38.173v-2.322a1.452,1.452,0,0,1,1.161-1.306c9.139-2.032,11.75-4.209,11.6-9.434a2.164,2.164,0,0,0-.87-1.887c-2.466-2.032-8.7-1.6-11.024-1.306a1.451,1.451,0,1,1-.435-2.758c1.014-.145,9.428-1.306,13.2,1.887a5.538,5.538,0,0,1,2.032,4.064c.291,8.129-5.512,10.451-12.765,12.192v1.016c.145,7.548.725,30.771-9.429,40.35A16.907,16.907,0,0,1,442.766,155.547Z"
     transform="translate(-272.125 -17.822)"
     fill="#2d2926" />
  <path
     id="Path_547"
     data-name="Path 547"
     d="M492.441,117.312A1.562,1.562,0,0,0,494,115.751l.78-31.381c0-.468,1.717-14.051,25.449-14.051a1.561,1.561,0,1,0,0-3.123c-26.7,0-28.571,16.862-28.571,17.018l-.78,31.537a1.561,1.561,0,0,0,1.561,1.561Z"
     transform="translate(-366.919 -13.251)"
     fill="#2d2926" />
  <path
     id="Path_548"
     data-name="Path 548"
     d="M511.069,132.62c0,8.275,2.342,14.989,9.212,14.989s12.334-1.25,12.334-14.989-5.465-14.988-12.334-14.988S511.069,124.3,511.069,132.62Z"
     transform="translate(-394.135 -22.736)"
     fill="#fff" />
  <path
     id="Path_549"
     data-name="Path 549"
     d="M520.112,148.75c8.587,0,13.9-2.81,13.9-16.549s-5.308-16.549-13.9-16.549c-4.059,0-10.773,2.186-10.773,16.549S516.209,148.75,520.112,148.75Zm0-29.976c6.245,0,10.773.937,10.773,13.427s-4.372,13.427-10.773,13.427-7.649-7.338-7.649-13.427S513.866,118.774,520.112,118.774Z"
     transform="translate(-394.122 -22.363)"
     fill="#2d2926" />
  <path
     id="Path_550"
     data-name="Path 550"
     d="M518.229,148.666h.469c.936-.313,5.933-2.5,5.933-16.862,0-14.832-5.153-15.612-6.246-15.768a1.565,1.565,0,0,0-.156,3.122c.156,0,3.279,1.406,3.279,12.646,0,12.179-3.592,13.9-3.748,13.9a1.7,1.7,0,0,0-1.093,1.873,1.871,1.871,0,0,0,1.561,1.093Z"
     transform="translate(-390.677 -22.436)"
     fill="#2d2926" />
  <path
     id="Path_551"
     data-name="Path 551"
     d="m 195.917,298.38595 h 0.312 a 1.562,2.6971602 0 0 0 1.249,-3.23417 L 187.33,199.44749 a 1.592365,2.7495925 0 0 0 -3.123,1.07748 l 10.15,95.69911 a 1.854,3.2013668 0 0 0 1.561,2.15669 z"
     fill="#2d2926"
     style="stroke-width:1.31405" />
  <path
     id="Path_553"
     data-name="Path 553"
     d="M554.005,329.628h.469a1.419,1.419,0,0,0,.585-.352,1.392,1.392,0,0,0,.351-.585l35.754-91.957a1.581,1.581,0,0,0-2.968-1.094l-34.971,90.085L514.349,300.12c6.713-11.553,56.674-97.578,66.353-111.629,9.837-14.364,28.884-15.3,29.2-15.3a1.561,1.561,0,1,0,0-3.122c-.78,0-20.765.936-31.537,16.705-10.3,15.144-66.666,112.1-67.29,113.191a1.563,1.563,0,0,0,.469,2.03l41.67,27.477A1.168,1.168,0,0,0,554.005,329.628Z"
     transform="translate(-472.823 -32.596)"
     fill="#2d2926" />
  <path
     id="Path_554"
     data-name="Path 554"
     d="M663.021,352.686s-8.243,18.736-8.664,27.978c-.468,9.82-6.246,9.6-6.246,9.6s-3.95,0-4.4-5.026c-.64-6.777-1.31-13.366-1.31-13.366s-30.6,39.813-39.968,29.321c0,0-3.326-3.029,1.435-7.807,0,0-5.792,3.232-8.478.765s-.858-7.51,1.733-9.585c0,0-6.057.234-6.432-3.56-.281-2.795,3.888-5.808,3.888-5.808l16.939-12.364s-12.006,5.2-14.286-.282c-.687-2.638.421-4.792,4.684-6.245s28.1-14.426,32.864-21.858C637.479,336.184,663.021,352.686,663.021,352.686Z"
     transform="translate(-589.177 -63.507)"
     fill="#fff" />
  <path
     id="Path_555"
     data-name="Path 555"
     d="M651.937,389.891l.327-.265c2.077-1.842,3.124-4.872,3.357-9.1.36-8.851,8.494-27.322,8.509-27.509a1.56,1.56,0,0,0-.5-1.733l-28.1-18.158a1.393,1.393,0,0,0-1.062-.218,2.459,2.459,0,0,0-.952.594c-4.4,6.916-28.1,19.86-32.115,21.186-5.84,1.842-6.245,5.355-5.6,7.884l.093.11a4.78,4.78,0,0,0,2.764,2.763,12.011,12.011,0,0,0,5.558.516L593.5,373.67c-.421.344-4.683,3.638-4.419,7.119.282,2.795,2.64,3.95,5.043,4.5a10.24,10.24,0,0,0-1.561,4.872,5.621,5.621,0,0,0,1.78,4.683,6.436,6.436,0,0,0,5.887,1.14,6.348,6.348,0,0,0-.438,2.326,5.58,5.58,0,0,0,1.483,3.606,6.509,6.509,0,0,0,5.294,2.155c10.507-.438,28.476-21.3,34.628-28.915.313,2.607.609,6.246.984,10.085a6.1,6.1,0,0,0,5.729,6.246A6.965,6.965,0,0,0,651.937,389.891Zm9.242-37c-1.733,4.246-7.9,19.187-8.211,27.447s-4.544,8.29-4.685,8.258c-.5,0-2.731-.3-2.951-3.668-.562-6.682-1.311-13.38-1.4-13.49a1.285,1.285,0,0,0-1.726-1.151,1.547,1.547,0,0,0-.663.4c-6.433,8.383-25.276,30.132-34.6,30.507a3.642,3.642,0,0,1-3.215-1.342l-.093-.11a2.444,2.444,0,0,1-.519-.807,2.469,2.469,0,0,1-.169-.943,6.248,6.248,0,0,1,2.217-4.105,1.465,1.465,0,0,0,.109-1.858,1.34,1.34,0,0,0-1.733-.391c-1.265.656-5.2,2.405-6.807.844a3.131,3.131,0,0,1-.921-2.467,7.168,7.168,0,0,1,2.529-5.059,1.375,1.375,0,0,0,.359-1.561,1.469,1.469,0,0,0-1.28-.922s-4.683.079-5-2.232c-.125-1.483,2.186-3.7,3.263-4.575l16.939-12.381a1.264,1.264,0,0,0,.357-.338,1.243,1.243,0,0,0,.211-.938,1.4,1.4,0,0,0-.917-1.1,1.259,1.259,0,0,0-.5-.065,1.3,1.3,0,0,0-.481.132c-2.077.952-8.119,2.966-11.054,1.764a2.4,2.4,0,0,1-1.25-1.124c-.28-1.03-.655-3.044,3.732-4.434s26.432-13.427,32.787-21.218Z"
     transform="translate(-589.068 -63.212)"
     fill="#2d2926" />
  <path
     id="Path_556"
     data-name="Path 556"
     d="M634.3,402.182s18.2-11.257,23.778-20.718Z"
     transform="translate(-619.661 -72.348)"
     fill="#fff" />
  <path
     id="Path_557"
     data-name="Path 557"
     d="M646.854,394.212c4.683-3.748,9.492-8.353,12.022-12.49a1.408,1.408,0,0,0-2.421-1.437c-5.417,8.978-23.121,20.187-23.231,20.3a1.317,1.317,0,0,0-.635.868,1.324,1.324,0,0,0,0,.551,1.3,1.3,0,0,0,.227.5,1.368,1.368,0,0,0,.882.615,1.376,1.376,0,0,0,1.055-.208C635.082,402.657,640.89,399.036,646.854,394.212Z"
     transform="translate(-619.239 -71.997)"
     fill="#2d2926" />
  <path
     id="Path_558"
     data-name="Path 558"
     d="M644.09,392s17.331-9.664,22.546-16.705Z"
     transform="translate(-636.162 -71.187)"
     fill="#fff" />
  <path
     id="Path_559"
     data-name="Path 559"
     d="M661.614,381.665a35.53,35.53,0,0,0,5.855-5.792,1.359,1.359,0,0,0-.185-2.052,1.357,1.357,0,0,0-1.112-.214,1.361,1.361,0,0,0-.888.7c-4.965,6.665-21.857,16.174-22.2,16.237a1.406,1.406,0,0,0-.469.335,1.436,1.436,0,0,0-.3.495,1.428,1.428,0,0,0,.08,1.129,1.434,1.434,0,0,0,.366.447,1.406,1.406,0,0,0,.513.264,1.412,1.412,0,0,0,1.12-.156A139.964,139.964,0,0,0,661.614,381.665Z"
     transform="translate(-635.872 -70.863)"
     fill="#2d2926" />
  <path
     id="Path_561"
     data-name="Path 561"
     d="M145.115,444.2a41.607,41.607,0,1,1,41.607-41.608A41.608,41.608,0,0,1,145.115,444.2Z"
     transform="translate(282.682 -68.497)"
     fill="rgba(75,56,76,0.75)" />
  <path
     id="Path_562"
     data-name="Path 562"
     d="M95.253,424.243c14.957-2.139,26.854-6.026,27.088-11.975.172-4.23-5.34-7.963-16.065-11.085a1.561,1.561,0,1,0-.827,2.92c10.4,3.013,13.973,6.246,13.926,8.119-.187,4.074-16.112,10.257-51.521,11.131a1.566,1.566,0,0,0-.593.144,1.561,1.561,0,0,0-.811.878,1.565,1.565,0,0,0,.407,1.689,1.574,1.574,0,0,0,1.122.412A233.936,233.936,0,0,0,95.253,424.243Z"
     transform="translate(377.227 -76.018)"
     fill="#2d2926" />
  <path
     id="Path_563"
     data-name="Path 563"
     d="M206.757,429.128a1.569,1.569,0,0,0,.032-3.107,239.753,239.753,0,0,1-28.962-4.262,1.594,1.594,0,1,0-.64,3.123,216.871,216.871,0,0,0,29.273,4.356Z"
     transform="translate(202.491 -79.919)"
     fill="#2d2926" />
  <path
     id="Path_564"
     data-name="Path 564"
     d="M233.083,417.879a1.561,1.561,0,0,0,.188-2.982c-9.134-2.9-12.366-5.855-12.3-7.588,0-2.03,4.247-5.121,16.035-7.588a1.561,1.561,0,1,0-.734-3.014c-12.1,2.515-18.282,6.058-18.407,10.586,0,3.9,4.684,7.587,14.457,10.693C232.6,417.785,232.771,417.926,233.083,417.879Z"
     transform="translate(138.18 -75.196)"
     fill="#2d2926" />
  <path
     id="Path_565"
     data-name="Path 565"
     d="M347.648,581.093a31.132,31.132,0,1,1,31.131-31.132A31.131,31.131,0,0,1,347.648,581.093Z"
     transform="translate(-82.331 -98.179)"
     fill="rgba(75,56,76,0.75)" />
  <path
     id="Path_566"
     data-name="Path 566"
     d="m 109.644,325.48475 a 1.427,1.8287015 0 0 0 0.6,-0.14608 1.446,1.8530501 0 0 0 0.5,-0.45238 1.566,2.0068302 0 0 0 0,-2.80264 c 0,0 -5.934,-8.00297 -0.781,-30.6112 2.342,-10.00341 8.275,-21.60867 14.208,-32.80643 8.274,-16.00594 16.081,-31.21222 14.674,-43.21733 -1.091,-9.80348 -4.215,-16.00593 -7.181,-22.00849 -3.122,-6.4075 -6.4,-12.80603 -7.649,-24.20883 -2.342,-22.00849 3.59,-43.21733 3.59,-43.41725 a 1.581,2.0260527 0 0 0 -2.966,-1.40068 82.922,106.26461 0 0 0 -3.748,45.21776 c 1.249,12.40364 4.684,19.20714 8.119,26.01447 a 37.236,47.717961 0 0 1 6.713,20.40918 c 1.249,10.60313 -6.713,25.80942 -14.208,40.41468 -5.932,11.40536 -12.022,23.40789 -14.519,34.01231 -5.776,25.00849 1.249,34.21607 1.562,34.61206 a 2.859,3.6638106 0 0 0 1.086,0.39085 z"
     fill="#2d2926"
     style="stroke-width:1.13204" />
  <path
     id="Path_567"
     data-name="Path 567"
     d="m 97.807957,338.14578 a 0.944,0.944 0 0 0 0.624,-0.157 c 15.456003,-7.026 15.144003,-24.044 15.144003,-24.355 a 1.561,1.561 0 1 0 -3.122,0 c 0,0.624 0.156,15.3 -13.427003,21.389 a 1.563,1.563 0 0 0 -0.78,2.031 1.875,1.875 0 0 0 1.561,1.093 z"
     fill="#2d2926" />
</svg>
