<svg xmlns="http://www.w3.org/2000/svg" xmlns:xlink="http://www.w3.org/1999/xlink" width="611.631" height="589.194" viewBox="0 0 611.631 589.194">
  <defs>
    <clipPath id="clip-path">
      <path id="Path_624" data-name="Path 624" d="M0,0H611.631V589.194H0Z" fill="#fff"/>
    </clipPath>
  </defs>
  <g id="h3" clip-path="url(#clip-path)">
    <path id="Path_568" data-name="Path 568" d="M552.307,419.539s-1.581-41.843-7.763-59.384c-2.876-7.334-14.379-30.914-33.359-31.2-13.084.144-28.039,11.072-37.673,22.288s-51.907,94.18-108.127,103.239c-17.112,2.732-28.039,20.13-25.883,35.228s24.733,29.188,30.626,32.5,32.209,15.961,61.255,15.961c7.045-.143,46.875,2.157,78.22-15.242A84.037,84.037,0,0,0,547.045,468.1C548.138,462.531,552.307,438.375,552.307,419.539Z" transform="translate(-57.323 -55.586)" fill="#fff"/>
    <path id="Path_569" data-name="Path 569" d="M370.544,392.582l-56.94-5.319,21.281,55.07L499.579,466.2l-4.458-27.319s15.1-6.182,16.679-20.131-9.778-43.71-9.778-43.71-13.516-33.216-28.326-48.026c-23.581-7.62-41.554,10.64-68.874,7.909-20.418-2.014-24.875,18.261-24.875,18.261Z" transform="translate(-52.992 -54.942)" fill="#fff"/>
    <path id="Path_570" data-name="Path 570" d="M370.839,639.014,389.1,694.8H268.605s-11.648-.863-6.327-8.484,51.907-14.091,65.567-12.222c-1.294-5.752-5.32-24.444-5.32-24.444Z" transform="translate(-44.084 -107.98)" fill="#fff"/>
    <path id="Path_571" data-name="Path 571" d="M388.8,695.974H268.3c-.863,0-7.046-.72-8.771-4.315-.863-1.869-.432-4.026,1.294-6.327,5.751-8.052,49.031-14.091,64.991-13.084-1.581-7.046-4.888-22.288-4.888-22.431a1.437,1.437,0,0,1,1.15-1.726l48.168-10.64a1.569,1.569,0,0,1,1.727,1.006l18.26,55.789a2.031,2.031,0,0,1-.144,1.295A2.321,2.321,0,0,1,388.8,695.974Zm-67-20.994c-17.543,0-54.353,5.9-58.666,11.935-1.006,1.439-1.439,2.588-1.006,3.45.862,1.869,4.888,2.588,6.183,2.732H386.641l-17.254-52.625-45.581,10.064c1.006,4.458,4.025,18.262,5.033,23.007a1.437,1.437,0,0,1-.288,1.294,1.325,1.325,0,0,1-1.294.431A28.874,28.874,0,0,0,321.793,674.98Z" transform="translate(-43.783 -107.712)" fill="#2d2926"/>
    <path id="Path_572" data-name="Path 572" d="M234.5,642.383,212.936,693,92.729,659.925S85.109,658.2,87.7,652.88s56.652-4.745,83.253,3.019c4.026-5.607,15.386-27.319,15.386-27.319Z" transform="translate(-14.728 -106.217)" fill="#fff"/>
    <path id="Path_573" data-name="Path 573" d="M212.454,694.214h-.431L91.816,661.142c-.431-.144-4.6-1.15-6.183-4.169a5.754,5.754,0,0,1,.144-4.89c3.451-7.188,59.384-4.743,83.972,2.014,4.313-6.47,14.666-26.169,14.666-26.313a1.555,1.555,0,0,1,1.725-.72l48.169,13.949a1.4,1.4,0,0,1,.5.271,1.429,1.429,0,0,1,.359.447,1.581,1.581,0,0,1,0,1.151L213.6,693.494C213.661,693.883,213.029,694.214,212.454,694.214ZM113.24,650.5c-13.372,0-23.437,1.006-24.731,2.732a2.631,2.631,0,0,0-.144,2.3c.719,1.581,3.307,2.444,4.314,2.588l119.055,32.784,20.418-47.882L186.715,629.8c-2.3,4.458-11.359,21.425-14.953,26.457a1.6,1.6,0,0,1-1.582.575C154.075,652.371,130.783,650.5,113.24,650.5Z" transform="translate(-14.39 -105.952)" fill="#2d2926"/>
    <path id="Path_574" data-name="Path 574" d="M260.236,458.3l56.941,6.9,72.612,145.514L294.171,627.25,240.538,483.175a18.693,18.693,0,0,1,19.7-24.875Z" transform="translate(-40.461 -77.423)" fill="#fcd299"/>
    <path id="Path_575" data-name="Path 575" d="M367.132,454.494a1.08,1.08,0,0,1-.72-.142,1.476,1.476,0,0,1-.412-.394,1.448,1.448,0,0,1-.228-.523,1.442,1.442,0,0,1,.209-1.1c.287-.432,28.758-47.163,31.345-85.41,0-.863.719-1.294,1.582-1.294a1.319,1.319,0,0,1,.572.117,1.3,1.3,0,0,1,.72.881,1.293,1.293,0,0,1,0,.583c-2.588,38.967-31.489,86.272-31.777,86.7a1.822,1.822,0,0,1-1.294.574Z" transform="translate(-61.802 -61.785)" fill="#2d2926"/>
    <path id="Path_576" data-name="Path 576" d="M410.092,244.888s-18.282-.749-18.282,8.911c0,6.468,12.937,10.156,17.178,13.311s2.03,27.158,13.114,38.794c5.541,5.721,17,9.6,28.262,7.4l.926-.2,2.584,13.312s11.28,5.72,19.781,1.658c.73-9.053,2.388-38.421,2.388-38.421s12.01,4.795,14.79-6.112-7.948-16.8-16.039-11.441l3.137-30.49-64.151-1.1Z" transform="translate(-66.208 -40.64)" fill="#fff"/>
    <path id="Path_577" data-name="Path 577" d="M477.587,264.953l-1.122-29.367-60.034-2.407s-22.364-27.71,10.888-35.283c9.977-1.783,14.255,9.979,14.255,9.979s16.446-18.105,38.793-9.6,18.639,31.043,18.639,31.043,16.269,4.812,14.594,18.479-10.888,18.854-10.888,18.854,16.43,11.083,6.452,24.378-31.024,2.406-31.024,2.406l.552-10.906s6.826,2.407,10.336,0a11.466,11.466,0,0,0,4.438-7.377,10.949,10.949,0,0,0-3.315-10.354C484.413,260.268,477.587,264.953,477.587,264.953Z" transform="translate(-69.125 -33.12)" fill="#fcd299"/>
    <path id="Path_578" data-name="Path 578" d="M443.643,316.553a37.279,37.279,0,0,0,13.864-2.762,1.813,1.813,0,1,0-1.39-3.35c-12.474,5.345-26.605,1.478-32.7-4.99-6.468-6.825-8.126-18.284-9.426-26.73-.926-6.469-1.656-10.692-3.867-12.474a29.909,29.909,0,0,0-5.542-3.135c-4.437-2.21-10.692-5.347-10.692-8.679a4.691,4.691,0,0,1,1.479-3.563c3.564-3.333,11.833-3.707,14.79-3.564a1.782,1.782,0,1,0,0-3.564c-.569,0-12.205-.553-17.552,4.633a7.7,7.7,0,0,0-2.6,6.094c0,5.722,7.02,9.231,12.759,12.012a36.587,36.587,0,0,1,4.99,2.762c1.1.749,1.781,5.917,2.4,9.98,1.283,8.91,3.315,21.064,10.532,28.637C425.4,313.042,434.27,316.553,443.643,316.553Z" transform="translate(-65.902 -41.184)" fill="#2d2926"/>
    <path id="Path_579" data-name="Path 579" d="M447.811,258.438a2.781,2.781,0,1,1,2.779-2.781A2.781,2.781,0,0,1,447.811,258.438Z" transform="translate(-75.201 -42.731)" fill="#2d2926"/>
    <path id="Path_580" data-name="Path 580" d="M433.808,257.323a2.78,2.78,0,1,1,2.781-2.781A2.78,2.78,0,0,1,433.808,257.323Z" transform="translate(-72.835 -42.543)" fill="#2d2926"/>
    <path id="Path_581" data-name="Path 581" d="M478.175,337.451a20.514,20.514,0,0,0,7.947-1.658,1.9,1.9,0,0,0,.643-.627,1.938,1.938,0,0,0,.284-.852c.552-7.4,1.781-29.012,2.21-36.033a14.246,14.246,0,0,0,9.425-.73,10.309,10.309,0,0,0,5.346-7.4c1.283-5.541-.2-10.531-4.438-13.489a12.831,12.831,0,0,0-14.594.2,1.887,1.887,0,0,0-.523.507,1.876,1.876,0,0,0-.3,1.4,1.891,1.891,0,0,0,.269.678,1.872,1.872,0,0,0,1.906.821,1.849,1.849,0,0,0,.678-.27,9.233,9.233,0,0,1,10.354-.178,8.909,8.909,0,0,1,2.938,9.6,6.824,6.824,0,0,1-3.563,4.99c-3.688,1.782-8.678-.2-8.909-.2a1.781,1.781,0,0,0-1.657.2,2.461,2.461,0,0,0-.927,1.478c0,.357-1.479,27.336-2.226,37.316-6.1,2.406-13.847-.553-16.252-1.658l-2.281-12.35a1.889,1.889,0,0,0-3.495-.759,1.908,1.908,0,0,0-.255.733,1.889,1.889,0,0,0,.062.774l2.584,13.295a2.364,2.364,0,0,0,.926,1.3C465.059,334.314,471.351,337.451,478.175,337.451Z" transform="translate(-77.856 -46.382)" fill="#2d2926"/>
    <path id="Path_582" data-name="Path 582" d="M501.233,442.44a15.5,15.5,0,0,1-2.589-.143c-38.679-3.451-93.174-12.8-93.749-12.8a1.351,1.351,0,0,1-.513-.18,1.363,1.363,0,0,1-.626-.859,1.36,1.36,0,0,1-.012-.544l3.883-49.606a1.187,1.187,0,0,1,.16-.577,1.2,1.2,0,0,1,.416-.43,1.117,1.117,0,0,1,1.15-.144l76.639,20.561a1.429,1.429,0,0,1,.6.179,1.448,1.448,0,0,1,.468.418,1.439,1.439,0,0,1-.066,1.762,1.438,1.438,0,0,1-1.722.374l-75.057-20.131-3.594,46.588c8.483,1.437,57.084,9.346,92.312,12.509a24.714,24.714,0,0,0,26.6-28.613c-8.482-49.176-35.371-79.946-35.514-80.233a1.437,1.437,0,0,1,2.156-1.869c.288.287,27.751,31.777,36.235,81.67a26.878,26.878,0,0,1-6.9,23.15,27.553,27.553,0,0,1-20.274,8.914Z" transform="translate(-68.221 -55.482)" fill="#2d2926"/>
    <path id="Path_583" data-name="Path 583" d="M368.732,395.9l-63.7-6.328a1.431,1.431,0,0,1-.977-.52,1.421,1.421,0,0,1-.264-.5,1.443,1.443,0,0,1-.053-.562,1.568,1.568,0,0,1,1.582-1.294l62.26,6.182,9.058-38.966a25.291,25.291,0,0,1,26.745-19.267,1.445,1.445,0,0,1-.288,2.875,22.244,22.244,0,0,0-23.725,16.967l-9.346,40.118a1.294,1.294,0,0,1-1.294,1.294Z" transform="translate(-51.324 -56.532)" fill="#2d2926"/>
    <path id="Path_584" data-name="Path 584" d="M363.107,387.265s-14.81-.575-19.7-4.313-7.765-3.021-9.059.575c-.575,1.724,1.581,9.058,13.66,12.366C348.01,395.893,358.506,389.853,363.107,387.265Z" transform="translate(-56.484 -64.291)" fill="#fff"/>
    <path id="Path_585" data-name="Path 585" d="M347.7,397.068h-.432c-8.915-2.3-12.509-6.9-13.8-9.346a6.491,6.491,0,0,1-.863-4.888,5.123,5.123,0,0,1,3.594-3.74q3.236-.863,7.765,2.589c3.6,2.732,14.81,3.883,18.837,4.026a1.458,1.458,0,0,1,.575,2.732c-4.6,2.588-14.954,8.484-14.954,8.626C348.279,396.926,347.99,397.068,347.7,397.068Zm-10.066-15.385c-.287,0-.431,0-.575.144-.719.145-1.294.863-1.581,2.014-.145.863,1.15,7.189,12.077,10.353,1.581-.863,6.327-3.6,10.353-5.9-4.889-.575-12.366-1.724-15.673-4.169a8.425,8.425,0,0,0-4.6-2.487Z" transform="translate(-56.177 -64.03)" fill="#2d2926"/>
    <path id="Path_586" data-name="Path 586" d="M396.453,397.989s-25.595-9.922-33.5-9.347-22.575,12.653-28.327,28.326c-1.294,3.883.145,9.346,6.328,7.045,3.163-2.013,8.339-15.96,13.227-17.973-3.019,4.746-5.464,15.673-1.294,21.137a5.749,5.749,0,0,0,7.62,1.006c3.164,2.876,6.615,4.6,10.353,1.007.863,2.589,2.589,6.47,5.464,6.615a3.925,3.925,0,0,0,3.882-5.465,17.269,17.269,0,0,1,.145-7.189s4.889,7.334,13.372,7.478C394.3,425.739,396.453,397.989,396.453,397.989Z" transform="translate(-56.471 -65.668)" fill="#fff"/>
    <path id="Path_587" data-name="Path 587" d="M376.5,437.12h-.431c-3.021-.144-4.89-3.019-6.04-5.751-4.17,2.588-7.909.144-9.778-1.581a7.471,7.471,0,0,1-4.026.575,6.2,6.2,0,0,1-4.6-2.589c-3.021-4.026-2.877-10.208-1.582-15.385-1.006,1.581-2.014,3.45-3.02,5.033-2.3,4.026-3.882,6.614-5.32,7.62-.144,0-.144.144-.287.144-3.6,1.437-5.751.287-6.9-.719-2.156-2.014-2.156-5.465-1.295-8.053,5.609-15.672,20.419-28.614,29.476-29.333,8.2-.719,33.072,8.914,34.078,9.346a1.439,1.439,0,0,1,.863,1.438l-2.588,32.928a1.439,1.439,0,0,1-1.439,1.294,18.18,18.18,0,0,1-12.366-5.608,9.122,9.122,0,0,0,.288,3.45,5.753,5.753,0,0,1-.863,5.32,5.652,5.652,0,0,1-4.169,1.869Zm-5.9-9.489h.288a1.532,1.532,0,0,1,1.006.863c1.294,3.738,2.732,5.607,4.313,5.752a2.878,2.878,0,0,0,2.157-.863,3,3,0,0,0,.43-2.732,18.11,18.11,0,0,1,.145-7.907,1.22,1.22,0,0,1,1.15-1.007,1.441,1.441,0,0,1,1.438.575s4.171,5.9,10.928,6.759l2.3-30.484c-4.744-1.869-25.162-9.346-31.777-8.771-7.045.575-21.425,11.79-27.032,27.463-.575,1.869-.43,4.171.575,5.033s2.444.575,3.739.144c1.007-.719,2.732-3.883,4.314-6.47,2.875-5.033,5.751-10.065,9.059-11.5a1.31,1.31,0,0,1,1.581.431,1.439,1.439,0,0,1,.144,1.726c-2.876,4.6-5.033,14.81-1.438,19.555a3.869,3.869,0,0,0,2.589,1.438,4.311,4.311,0,0,0,2.876-.575,1.438,1.438,0,0,1,2.012,0c3.451,3.164,5.751,3.45,8.34,1.006a1.021,1.021,0,0,1,.863-.474Z" transform="translate(-56.216 -65.402)" fill="#2d2926"/>
    <path id="Path_588" data-name="Path 588" d="M365.614,433.97a1.728,1.728,0,0,1-1.438-1.006c-.145-.432-2.732-9.634,1.294-17.973a1.438,1.438,0,0,1,2.589,1.15c-3.594,7.334-1.15,15.816-1.15,15.96a1.274,1.274,0,0,1-.09,1.1,1.271,1.271,0,0,1-.917.621A.268.268,0,0,1,365.614,433.97Z" transform="translate(-61.377 -70.017)" fill="#2d2926"/>
    <path id="Path_589" data-name="Path 589" d="M377.88,436.017a1.439,1.439,0,0,1-1.438-1.15c-.431-2.014-2.014-11.935,1.726-14.666a1.438,1.438,0,1,1,1.725,2.3c-1.438,1.149-1.438,7.045-.575,11.79a1.581,1.581,0,0,1-1.15,1.725Z" transform="translate(-63.492 -70.956)" fill="#2d2926"/>
    <path id="Path_590" data-name="Path 590" d="M283.091,460.846l189.368,28-.431,16.967a42.805,42.805,0,0,1-50.757,40.835L302.214,523.783,263.823,627.309,157.708,595.1,233.2,482.66a50.659,50.659,0,0,1,49.894-21.813Z" transform="translate(-26.649 -77.77)" fill="#fcd299"/>
    <path id="Path_591" data-name="Path 591" d="M412.146,553.382h-.288l-108.7-20.85a1.466,1.466,0,1,1,.575-2.874l108.7,20.848a1.44,1.44,0,0,1,.942.618,1.458,1.458,0,0,1,.217.532,1.451,1.451,0,0,1-1.448,1.727Z" transform="translate(-51.028 -89.496)" fill="#2d2926"/>
    <path id="Path_592" data-name="Path 592" d="M285.118,641.411a.533.533,0,0,1-.231-.024.522.522,0,0,1-.2-.12,1.433,1.433,0,0,1-.825-.753,1.444,1.444,0,0,1-.038-1.116L322.216,535.87a1.456,1.456,0,0,1,2.732,1.007L286.556,640.4a1.726,1.726,0,0,1-1.439,1.007Z" transform="translate(-47.944 -90.39)" fill="#2d2926"/>
    <path id="Path_593" data-name="Path 593" d="M231.1,504.96a2.043,2.043,0,0,1-.863-.288,1.434,1.434,0,0,1-.413-.393,1.448,1.448,0,0,1-.227-.523,1.442,1.442,0,0,1,.208-1.1l14.235-21.137a52.384,52.384,0,0,1,51.332-22.575l47.881,7.045a1.437,1.437,0,0,1,1.594,1.652,1.439,1.439,0,0,1-1.38,1.212,1.451,1.451,0,0,1-.645-.132l-47.88-7.045a49.8,49.8,0,0,0-48.6,21.279L232.112,504.1C232.112,504.815,231.537,504.96,231.1,504.96Z" transform="translate(-38.793 -77.452)" fill="#2d2926"/>
    <path id="Path_594" data-name="Path 594" d="M362.531,458.289l-1.869,9.922L193.005,448.08l.288-10.64Z" transform="translate(-32.614 -73.918)" fill="#fff"/>
    <path id="Path_595" data-name="Path 595" d="M360.37,469.349h-.144L192.569,449.218a1.526,1.526,0,0,1-1.294-1.438L191.419,437a1.277,1.277,0,0,1,.469-1.041A1.277,1.277,0,0,1,193,435.7L362.239,456.7a1.454,1.454,0,0,1,.563.182,1.435,1.435,0,0,1,.443.393,1.557,1.557,0,0,1,.288,1.151l-1.727,9.921a1.436,1.436,0,0,1-1.437,1.007ZM194.294,446.63l164.924,19.7,1.294-7.045-166.075-20.6Z" transform="translate(-32.321 -73.618)" fill="#2d2926"/>
    <path id="Path_596" data-name="Path 596" d="M186.714,421.008,154.074,340.2l119.057,14.954,31.2,80.376Z" transform="translate(-26.035 -57.487)" fill="#fff"/>
    <path id="Path_597" data-name="Path 597" d="M304.09,436.632h-.144L186.184,422.154a1.25,1.25,0,0,1-1.15-.863l-32.641-80.808a1.732,1.732,0,0,1-.089-.736,1.7,1.7,0,0,1,.233-.7,1.576,1.576,0,0,1,1.295-.575l119.2,14.954a1.253,1.253,0,0,1,1.152.862l31.2,80.377a1.7,1.7,0,0,1-.144,1.438,1.311,1.311,0,0,1-.506.414A1.293,1.293,0,0,1,304.09,436.632ZM187.478,419.378l114.454,14.092-30.109-77.357-115.835-14.48Z" transform="translate(-25.735 -57.194)" fill="#2d2926"/>
    <path id="Path_598" data-name="Path 598" d="M535.434,490.242a1.333,1.333,0,0,1-.564-.083A1.353,1.353,0,0,1,534,488.8c0-6.038-3.594-26.744-3.594-27.032a1.582,1.582,0,0,1,1.149-1.725,1.456,1.456,0,0,1,.575-.009,1.439,1.439,0,0,1,.938.626,1.447,1.447,0,0,1,.214.534c.143.863,3.738,21.137,3.738,27.463a1.7,1.7,0,0,1-1.582,1.582Z" transform="translate(-89.625 -77.733)" fill="#2d2926"/>
    <path id="Path_599" data-name="Path 599" d="M240.5,380.688,226.978,394.21,240.5,407.733l13.522-13.523Z" transform="translate(-38.354 -64.328)" fill="#fcd299"/>
    <path id="Path_600" data-name="Path 600" d="M440.777,557.875s22.719,2.732,26.457-23.006,15.1-52.483,63.841-64.129c15.673-4.314,13.948-18.981,13.948-18.981l24.445-4.457s-4.89,46.587-16.249,67.867S520.58,550.255,492.4,554.856,464.358,559.6,440.777,557.875Z" transform="translate(-74.482 -75.585)" fill="#fff"/>
    <path id="Path_601" data-name="Path 601" d="M442.208,559.923a10.675,10.675,0,0,1-1.869-.145,1.451,1.451,0,0,1-.974-.523,1.442,1.442,0,0,1-.32-1.06,1.436,1.436,0,0,1,.164-.539,1.444,1.444,0,0,1,1.419-.755c.862.144,21.281,2.3,24.73-21.711s13.947-53.057,64.993-65.279c14.235-4.026,12.941-16.823,12.8-17.4a1.441,1.441,0,0,1,.754-1.419,1.453,1.453,0,0,1,.541-.163,1.334,1.334,0,0,1,.573.025,1.348,1.348,0,0,1,.87.712,1.333,1.333,0,0,1,.137.557,19.3,19.3,0,0,1-14.953,20.419c-49.176,11.646-59.385,38.391-62.835,62.834C465.071,558.052,447.96,559.923,442.208,559.923Z" transform="translate(-74.188 -76.194)" fill="#2d2926"/>
    <path id="Path_602" data-name="Path 602" d="M446.538,539.689c-43.567,0-71.462-16.967-71.75-17.254a1.454,1.454,0,0,1-.407-.4,1.451,1.451,0,0,1-.024-1.617,1.454,1.454,0,0,1,2.014-.431c.43.287,50.9,31.058,122.793,8.483,30.771-9.634,49.463-35.8,55.647-77.5,5.894-39.829-2.157-77.789-3.02-81.959-6.326-28.614-24.444-38.966-35.084-38.966h-.144c-11.79.143-22.287,9.489-22.431,9.634a1.438,1.438,0,0,1-1.869-2.157c.43-.431,11.358-10.209,24.3-10.353h.144c14.379,0,31.92,14.091,37.96,41.123,1.006,4.313,9.059,42.7,3.163,83.108-6.327,42.993-25.738,69.881-57.659,79.8A179.587,179.587,0,0,1,446.538,539.689Z" transform="translate(-63.219 -55.285)" fill="#2d2926"/>
    <path id="Path_603" data-name="Path 603" d="M484.771,686.211a1.522,1.522,0,0,1-1.437-1.294l-12.8-103.671a1.445,1.445,0,1,1,2.876-.288l12.8,103.67a1.424,1.424,0,0,1-.317,1.06,1.411,1.411,0,0,1-.435.359,1.454,1.454,0,0,1-.541.163Z" transform="translate(-79.509 -97.95)" fill="#2d2926"/>
    <path id="Path_604" data-name="Path 604" d="M596.184,681.976a1.435,1.435,0,0,1-1.294-1.007L551.323,556.55a1.456,1.456,0,0,1,2.732-1.007l43.567,124.376a1.451,1.451,0,0,1-.037,1.117,1.434,1.434,0,0,1-.826.752A.868.868,0,0,1,596.184,681.976Z" transform="translate(-93.147 -93.714)" fill="#2d2926"/>
    <path id="Path_605" data-name="Path 605" d="M160.616,167.415V189.4l53.632-48.3Z" transform="translate(-27.141 -23.843)" fill="#fcd299"/>
    <path id="Path_606" data-name="Path 606" d="M125.49,162.8l29.189,4.615L208.312,141.1Z" transform="translate(-21.205 -23.843)" fill="#fff"/>
    <path id="Path_607" data-name="Path 607" d="M154.374,168.677h-.345l-29.189-4.457a1.41,1.41,0,0,1-.144-2.732l82.822-21.712a1.437,1.437,0,0,1,1.725.863,1.252,1.252,0,0,1,.118.509,1.263,1.263,0,0,1-.392.943,1.294,1.294,0,0,1-.445.274l-53.489,26.169C154.807,168.475,154.663,168.677,154.374,168.677Zm-22.143-6.327,21.856,3.307,40.26-19.7Z" transform="translate(-20.901 -23.61)" fill="#2d2926"/>
    <path id="Path_608" data-name="Path 608" d="M214.248,141.1,184.771,184.51l-24.155-17.1Z" transform="translate(-27.141 -23.843)" fill="#fff"/>
    <path id="Path_609" data-name="Path 609" d="M184.408,185.639a2.037,2.037,0,0,1-.863-.287L159.389,168.1a1.436,1.436,0,0,1-.574-1.294,1.09,1.09,0,0,1,.863-1.15l53.632-26.313a1.522,1.522,0,0,1,1.725.288,1.434,1.434,0,0,1,.144,1.725L185.7,184.778a1.425,1.425,0,0,1-.443.393,1.454,1.454,0,0,1-.563.182C184.61,185.639,184.61,185.639,184.408,185.639Zm-21.281-18.4,20.994,14.954,25.594-37.816Z" transform="translate(-26.835 -23.52)" fill="#2d2926"/>
    <path id="Path_611" data-name="Path 611" d="M155.784,421.112h-2.546a2.157,2.157,0,0,1,0-4.314h8.556a2.157,2.157,0,0,1,.086,4.314Z" transform="translate(-25.53 -70.43)" fill="#2d2926"/>
    <path id="Path_612" data-name="Path 612" d="M109.634,386.635h-.144c-6.183-.389-12.293-.936-18.174-1.64a2.172,2.172,0,1,1,.518-4.314c5.752.691,11.82,1.237,17.93,1.61a2.156,2.156,0,0,1,1.9,3.042,2.159,2.159,0,0,1-1.2,1.132,2.119,2.119,0,0,1-.831.14Zm-35.947-4.314a1.913,1.913,0,0,1-.4,0c-6.284-1.179-12.294-2.588-17.844-4.17a2.157,2.157,0,0,1,1.179-4.141c5.435,1.538,11.3,2.875,17.456,4.083a2.2,2.2,0,0,1,.811.239,2.166,2.166,0,0,1-1.2,4.076ZM38.934,372.256a2.271,2.271,0,0,1-.848-.173,93.447,93.447,0,0,1-16.262-8.857,2.157,2.157,0,1,1,2.459-3.537A89.261,89.261,0,0,0,39.8,368.115a2.157,2.157,0,0,1-.863,4.141Zm-29-20.993a2.154,2.154,0,0,1-1.725-.877A44.021,44.021,0,0,1,.341,333.261a2.157,2.157,0,0,1,4.213-.907,39.906,39.906,0,0,0,7.1,15.457,2.157,2.157,0,0,1-1.725,3.451ZM2.153,316.984H1.822a2.158,2.158,0,0,1-1.8-2.46,79.679,79.679,0,0,1,5.133-17.973,2.159,2.159,0,0,1,1.991-1.34,2.14,2.14,0,0,1,.827.161,2.159,2.159,0,0,1,1.179,2.817,75.09,75.09,0,0,0-4.9,16.867,2.155,2.155,0,0,1-2.128,1.826Zm13.185-33.517a2.262,2.262,0,0,1-1.107-.3,2.172,2.172,0,0,1-.748-2.963,150.451,150.451,0,0,1,10.367-15.269,2.164,2.164,0,0,1,.639-.551,2.152,2.152,0,0,1,1.642-.2,2.132,2.132,0,0,1,.753.379,2.161,2.161,0,0,1,.374,3.034A147.845,147.845,0,0,0,17.193,282.3a2.143,2.143,0,0,1-1.884,1.064Zm22.1-28.629a2.156,2.156,0,0,1-1.553-3.651c4.1-4.314,8.555-8.512,13.257-12.611a2.17,2.17,0,1,1,2.876,3.249c-4.6,4.012-8.972,8.167-12.941,12.352a2.19,2.19,0,0,1-1.668.561Zm27.233-23.854a2.157,2.157,0,0,1-1.294-3.883c4.831-3.594,9.878-7.088,15.04-10.4a2.157,2.157,0,1,1,2.315,3.638c-5.061,3.249-10.065,6.686-14.767,10.208a2.084,2.084,0,0,1-1.323.331Z" transform="translate(0 -36.556)" fill="#2d2926"/>
    <path id="Path_613" data-name="Path 613" d="M114.1,208.638a2.132,2.132,0,0,1-1.9-1.136,2.143,2.143,0,0,1,.863-2.876c4.8-2.6,7.679-3.94,7.793-3.982a2.157,2.157,0,0,1,1.686-.12,2.156,2.156,0,0,1,.126,4.03s-2.876,1.338-7.549,3.868A2.212,2.212,0,0,1,114.1,208.638Z" transform="translate(-18.918 -33.864)" fill="#2d2926"/>
    <path id="Path_614" data-name="Path 614" d="M394.407,130.184a65.092,65.092,0,1,0-65.093-65.092A65.093,65.093,0,0,0,394.407,130.184Z" transform="translate(-55.647)" fill="rgba(75,56,76,0.75)"/>
    <path id="Path_615" data-name="Path 615" d="M407.386,21.19a1.126,1.126,0,0,1-.853-.327,1.133,1.133,0,0,1-.253-.391,1.118,1.118,0,0,1-.073-.461V11.024a1.179,1.179,0,1,1,2.358,0V20.01a1.133,1.133,0,0,1-.072.461,1.112,1.112,0,0,1-.254.391,1.123,1.123,0,0,1-.852.327Z" transform="translate(-68.64 -1.664)" fill="#2d2926"/>
    <path id="Path_616" data-name="Path 616" d="M407.386,144.571a1.1,1.1,0,0,1-.46-.073,1.111,1.111,0,0,1-.646-.646,1.115,1.115,0,0,1-.073-.46v-9a1.179,1.179,0,1,1,2.358,0v9a1.129,1.129,0,0,1-.072.46,1.106,1.106,0,0,1-.254.392,1.14,1.14,0,0,1-.391.253A1.1,1.1,0,0,1,407.386,144.571Z" transform="translate(-68.64 -22.51)" fill="#2d2926"/>
    <path id="Path_617" data-name="Path 617" d="M448.272,37.294a1.08,1.08,0,0,1-.819-.345,1.152,1.152,0,0,1,0-1.668l5.435-5.435a1.17,1.17,0,1,1,1.655,1.653l-5.435,5.45a1.125,1.125,0,0,1-.381.261A1.106,1.106,0,0,1,448.272,37.294Z" transform="translate(-75.549 -4.986)" fill="#2d2926"/>
    <path id="Path_618" data-name="Path 618" d="M359.978,125.589a1.078,1.078,0,0,1-.446-.085,1.057,1.057,0,0,1-.373-.261,1.15,1.15,0,0,1,0-1.668l5.435-5.435a1.168,1.168,0,0,1,1.906.379,1.161,1.161,0,0,1,0,.9,1.142,1.142,0,0,1-.253.38l-5.435,5.449a1.105,1.105,0,0,1-.834.346Z" transform="translate(-60.63 -19.905)" fill="#2d2926"/>
    <path id="Path_619" data-name="Path 619" d="M472.656,79.267h-9a1.179,1.179,0,0,1,0-2.358h9a1.125,1.125,0,0,1,1.106.718,1.131,1.131,0,0,1,.072.461,1.178,1.178,0,0,1-1.178,1.179Z" transform="translate(-78.148 -12.996)" fill="#2d2926"/>
    <path id="Path_620" data-name="Path 620" d="M349.323,79.267h-9a1.179,1.179,0,1,1,0-2.358h9a1.179,1.179,0,0,1,0,2.358Z" transform="translate(-57.308 -12.996)" fill="#2d2926"/>
    <path id="Path_621" data-name="Path 621" d="M453.725,125.589a1.109,1.109,0,0,1-.835-.346l-5.435-5.449a1.169,1.169,0,0,1,1.654-1.654l5.436,5.435a1.151,1.151,0,0,1,0,1.668,1.05,1.05,0,0,1-.819.346Z" transform="translate(-75.553 -19.905)" fill="#2d2926"/>
    <path id="Path_622" data-name="Path 622" d="M365.422,37.294a1.106,1.106,0,0,1-.834-.345l-5.478-5.45a1.169,1.169,0,0,1,1.654-1.653l5.435,5.435a1.152,1.152,0,0,1,0,1.668,1.052,1.052,0,0,1-.776.345Z" transform="translate(-60.624 -4.986)" fill="#2d2926"/>
    <path id="Path_623" data-name="Path 623" d="M386.458,60.078l16.578,12.941,9.85-12.567a1.179,1.179,0,1,1,1.869,1.438l-10.6,13.5a1.106,1.106,0,0,1-1.653.2l-17.485-13.66a1.181,1.181,0,0,1-.351-.34,1.191,1.191,0,0,1-.167-.941,1.18,1.18,0,0,1,.214-.439,1.157,1.157,0,0,1,.371-.316,1.179,1.179,0,0,1,1.37.181Z" transform="translate(-64.967 -10.097)" fill="#2d2926"/>
  </g>
</svg>
