<?xml version="1.0" encoding="UTF-8" standalone="no"?>
<svg
   width="496.882"
   height="443.702"
   viewBox="0 0 496.882 443.702"
   version="1.1"
   id="svg205"
   sodipodi:docname="step-1.svg"
   inkscape:version="1.2.2 (b0a84865, 2022-12-01)"
   xmlns:inkscape="http://www.inkscape.org/namespaces/inkscape"
   xmlns:sodipodi="http://sodipodi.sourceforge.net/DTD/sodipodi-0.dtd"
   xmlns="http://www.w3.org/2000/svg"
   xmlns:svg="http://www.w3.org/2000/svg">
  <defs
     id="defs209" />
  <sodipodi:namedview
     id="namedview207"
     pagecolor="#ffffff"
     bordercolor="#000000"
     borderopacity="0.25"
     inkscape:showpageshadow="2"
     inkscape:pageopacity="0.0"
     inkscape:pagecheckerboard="0"
     inkscape:deskcolor="#d1d1d1"
     showgrid="false"
     inkscape:zoom="2.1275541"
     inkscape:cx="161.21799"
     inkscape:cy="178.84387"
     inkscape:window-width="1726"
     inkscape:window-height="1097"
     inkscape:window-x="74"
     inkscape:window-y="44"
     inkscape:window-maximized="0"
     inkscape:current-layer="h1" />
  <g
     id="h1"
     transform="translate(-105.735,-1.239)">
    <path
       id="Path_444"
       data-name="Path 444"
       d="M708.144,443.029H452.2a8.672,8.672,0,1,1,0-17.344H708.144a8.646,8.646,0,0,1,8.679,8.664,8.739,8.739,0,0,1-8.679,8.68Z"
       transform="translate(-115.95 -145.691)"
       fill="#fff" />
    <path
       id="Path_445"
       data-name="Path 445"
       d="M707.633,443.671H451.69a10.033,10.033,0,0,1,0-20.05H707.633a10.033,10.033,0,1,1,0,20.05ZM451.69,426.463a7.327,7.327,0,0,0,0,14.639H707.633a7.327,7.327,0,1,0,0-14.639Z"
       transform="translate(-115.44 -144.98)"
       fill="#2d2926" />
    <path
       id="Path_446"
       data-name="Path 446"
       d="M567.3,597.9H459.309a1.233,1.233,0,0,1-.608-.127,1.251,1.251,0,0,1-.472-.4,1.4,1.4,0,0,1-.283-.584,1.386,1.386,0,0,1,.01-.648l39.7-145.047a1.356,1.356,0,0,1,1.353-.942H607a1.269,1.269,0,0,1,.607.129,1.254,1.254,0,0,1,.471.4,1.393,1.393,0,0,1,.284.583,1.413,1.413,0,0,1-.01.648l-39.7,145.108a1.652,1.652,0,0,1-1.352.881ZM461.072,595.2h105.1l39.033-142.417H500.089Z"
       transform="translate(-120.885 -154.087)"
       fill="#2d2926" />
    <path
       id="Path_447"
       data-name="Path 447"
       d="M616.074,495.651H508.233a1.353,1.353,0,0,1,0-2.706H616.074a1.3,1.3,0,0,1,.986.371,1.3,1.3,0,0,1,.382.982,1.361,1.361,0,0,1-.4.962,1.367,1.367,0,0,1-.445.292A1.347,1.347,0,0,1,616.074,495.651Z"
       transform="translate(-137.693 -168.777)"
       fill="#2d2926" />
    <path
       id="Path_448"
       data-name="Path 448"
       d="M603.743,540.639H495.827a1.368,1.368,0,0,1-.873-2.275,1.375,1.375,0,0,1,.873-.446H603.743a1.368,1.368,0,0,1,.873,2.276A1.361,1.361,0,0,1,603.743,540.639Z"
       transform="translate(-133.479 -184.215)"
       fill="#2d2926" />
    <path
       id="Path_449"
       data-name="Path 449"
       d="M591.5,585.618H483.585a1.349,1.349,0,0,1-.956-.4,1.356,1.356,0,0,1,0-1.913,1.35,1.35,0,0,1,.956-.4H591.5a1.276,1.276,0,0,1,1.353,1.353,1.367,1.367,0,0,1-1.353,1.352Z"
       transform="translate(-129.233 -199.658)"
       fill="#2d2926" />
    <path
       id="Path_450"
       data-name="Path 450"
       d="M579.12,630.707H471.2a1.353,1.353,0,1,1,0-2.706H579.12a1.274,1.274,0,0,1,1.353,1.353,1.368,1.368,0,0,1-1.353,1.353Z"
       transform="translate(-124.983 -215.135)"
       fill="#2d2926" />
    <path
       id="Path_451"
       data-name="Path 451"
       d="M776.712,597.983H668.72a1.519,1.519,0,0,1-1.353-.942L649.614,532a1.338,1.338,0,0,1,2.584-.685l17.48,64.1H774.841l-39.29-143.359a1.329,1.329,0,0,1,2.569-.685l39.7,145.124a1.33,1.33,0,0,1,.011.641,1.352,1.352,0,0,1-.284.575C777.244,598.12,777.107,597.983,776.712,597.983Z"
       transform="translate(-186.675 -154.168)"
       fill="#2d2926" />
    <path
       id="Path_452"
       data-name="Path 452"
       d="M698.6,376.358l27.816-18.7s10.822,26.905,33.621,31.466,21.811,13.969,10.913,14.592-41.813-.988-41.813-.988l-16.507-6.764Z"
       transform="translate(-203.501 -122.341)"
       fill="#fff" />
    <path
       id="Path_453"
       data-name="Path 453"
       d="M537.788,158.144s19.3.76,29.486,15.505S632.632,283.7,632.632,283.7L592.05,310.457l-14.136-36.482-97.581-3.648,7.448-41.194.759-3.952-19.121,33.138c-16.718,12.161-25.838,9.12-36.479-7.6l-31.919-56.243,33.439-12.16,21.28,33.442s25.2-38.763,39.184-45.907a98.115,98.115,0,0,1,24.47-9.273Z"
       transform="translate(-101.357 -53.857)"
       fill="#fff" />
    <path
       id="Path_454"
       data-name="Path 454"
       d="M543.436,30.416a1.522,1.522,0,0,1-1.52-1.672l.609-10.033c0-.152,1.824-16.569,27.815-16.569a1.52,1.52,0,0,1,0,3.04c-23.256,0-24.776,13.681-24.776,13.833l-.608,10.033a1.4,1.4,0,0,1-1.52,1.368Z"
       transform="translate(-149.716 -0.31)"
       fill="#2d2926" />
    <path
       id="Path_455"
       data-name="Path 455"
       d="M362.277,615.865l-5.624,14.745s-55.782,5.624-60.038,13.377,2.584,9.881,11.4,9.881h99.557l.76-39.523Z"
       transform="translate(-65.074 -210.448)"
       fill="#fff" />
    <path
       id="Path_456"
       data-name="Path 456"
       d="M406.8,654.672H307.243c-7.294,0-11.7-1.368-13.375-4.256-1.216-2.128-1.064-4.712.607-7.752,4.1-7.9,48.943-12.921,60.191-14.136l5.32-13.833a1.322,1.322,0,0,1,1.367-.912l46.054-1.52a1.407,1.407,0,0,1,.583.111,1.391,1.391,0,0,1,.482.345,1.645,1.645,0,0,1,.456,1.065l-.76,39.522C408.32,654.064,407.56,654.672,406.8,654.672Zm-44.231-38-5.32,13.832a1.274,1.274,0,0,1-1.216.913c-21.279,2.128-56.085,7.449-58.822,12.616-1.064,2.128-1.368,3.648-.761,4.865s2.888,2.736,10.792,2.736H405.28l.76-36.482Z"
       transform="translate(-64.303 -209.733)"
       fill="#2d2926" />
    <path
       id="Path_457"
       data-name="Path 457"
       d="M518.5,57.244s-15.047-.608-15.047,7.3c0,5.32,10.64,8.36,14.135,10.945s1.672,22.345,10.792,31.922c4.56,4.712,13.983,7.9,23.255,6.08l.761-.152,2.128,10.945s9.271,4.712,16.263,1.368c.609-7.448,1.977-31.618,1.977-31.618s9.88,3.952,12.159-5.016-6.536-13.833-13.224-9.425l2.584-25.081L521.543,53.6Z"
       transform="translate(-136.518 -17.971)"
       fill="#fff" />
    <path
       id="Path_458"
       data-name="Path 458"
       d="M577.682,63.981l-.912-24.17-49.4-1.976S508.98,15.034,536.34,8.8c8.208-1.52,11.7,8.208,11.7,8.208s13.528-14.9,31.919-7.9,15.352,25.537,15.352,25.537,13.375,3.952,12.008,15.2-8.969,15.5-8.969,15.5,13.528,9.121,5.32,20.065-25.535,1.976-25.535,1.976l.456-8.969s5.624,1.976,8.512,0a9.516,9.516,0,0,0,3.648-6.08,8.97,8.97,0,0,0-2.736-8.512C583.383,60.18,577.682,63.981,577.682,63.981Z"
       transform="translate(-142.651 -2.059)"
       fill="#fcd299" />
    <path
       id="Path_459"
       data-name="Path 459"
       d="M545.6,117.066a30.484,30.484,0,0,0,11.4-2.28,1.52,1.52,0,0,0-1.216-2.736c-10.183,4.408-21.887,1.216-26.9-4.1-5.32-5.624-6.688-15.049-7.752-22.041-.76-5.32-1.368-8.817-3.192-10.185a24.324,24.324,0,0,0-4.559-2.584c-3.648-1.824-8.816-4.408-8.816-7.144a3.89,3.89,0,0,1,1.216-2.888c2.888-2.736,9.728-3.04,12.16-2.888a1.519,1.519,0,0,0,1.52-1.52,1.413,1.413,0,0,0-.087-.6,1.429,1.429,0,0,0-1.432-.923c-.456,0-10.032-.456-14.439,3.8a6.35,6.35,0,0,0-2.128,5.016c0,4.712,5.775,7.6,10.487,9.881a30.627,30.627,0,0,1,4.1,2.28c.912.608,1.52,4.864,1.976,8.208,1.065,7.3,2.737,17.329,8.664,23.562C530.554,114.1,537.848,117.066,545.6,117.066Z"
       transform="translate(-135.8 -19.195)"
       fill="#2d2926" />
    <path
       id="Path_460"
       data-name="Path 460"
       d="M561.049,71.117a2.28,2.28,0,1,0-2.28-2.28A2.279,2.279,0,0,0,561.049,71.117Z"
       transform="translate(-155.504 -22.42)"
       fill="#2d2926" />
    <path
       id="Path_461"
       data-name="Path 461"
       d="M546.468,69.959a2.28,2.28,0,1,0-2.28-2.28A2.28,2.28,0,0,0,546.468,69.959Z"
       transform="translate(-150.499 -22.023)"
       fill="#2d2926" />
    <path
       id="Path_462"
       data-name="Path 462"
       d="M589.473,140.853a16.8,16.8,0,0,0,6.536-1.368,1.517,1.517,0,0,0,.759-1.216c.456-6.081,1.52-23.866,1.824-29.642a11.705,11.705,0,0,0,7.752-.608,8.486,8.486,0,0,0,4.407-6.081c1.064-4.56-.152-8.664-3.648-11.1a10.532,10.532,0,0,0-12.007.152,1.539,1.539,0,1,0,1.671,2.584,7.6,7.6,0,0,1,8.512-.152,7.325,7.325,0,0,1,2.431,7.9,5.62,5.62,0,0,1-2.888,4.1c-3.04,1.52-7.143-.152-7.3-.152a1.522,1.522,0,0,0-1.368.152,2.087,2.087,0,0,0-.76,1.216c0,.3-1.216,22.5-1.824,30.705-5.016,1.976-11.4-.455-13.375-1.367L578.225,125.8a1.553,1.553,0,0,0-.659-.986,1.548,1.548,0,0,0-1.723,0,1.552,1.552,0,0,0-.659.987,1.564,1.564,0,0,0,0,.6l2.128,10.944a1.944,1.944,0,0,0,.76,1.065C578.681,138.27,583.849,140.853,589.473,140.853Z"
       transform="translate(-161.128 -30.137)"
       fill="#2d2926" />
    <path
       id="Path_463"
       data-name="Path 463"
       d="M444.7,615.865l.3,14.745s-61.862,5.624-65.965,13.377,2.584,9.881,11.4,9.881H501.849l-11.1-39.523Z"
       transform="translate(-93.386 -210.448)"
       fill="#fff" />
    <path
       id="Path_464"
       data-name="Path 464"
       d="M501.047,654.593H389.634c-7.3,0-11.7-1.369-13.376-4.257-1.216-2.128-1.063-4.712.607-7.752,4.1-7.752,52.744-12.921,65.814-14.137l-.3-13.377a1.52,1.52,0,0,1,1.52-1.52l46.054-1.52a1.519,1.519,0,0,1,1.52,1.065l11.1,39.521a1.526,1.526,0,0,1-.3,1.368,1.386,1.386,0,0,1-1.216.609Zm-55.63-38,.3,13.224a1.522,1.522,0,0,1-1.368,1.52c-25.383,2.28-62.166,7.752-64.749,12.616-1.065,2.128-1.368,3.648-.76,4.865s2.888,2.736,10.792,2.736H499.07L488.735,615.07Z"
       transform="translate(-92.583 -209.653)"
       fill="#2d2926" />
    <path
       id="Path_465"
       data-name="Path 465"
       d="M802.22,420.36H791.276a1.383,1.383,0,0,1-1.216-.608,1.184,1.184,0,0,1-.3-1.216l2.128-11.1a1.521,1.521,0,0,1,1.368-1.216c1.672-.152,15.959-.76,17.936,6.233a6.077,6.077,0,0,1-.609,5.473C808.909,420.056,805.565,420.36,802.22,420.36Zm-9.12-3.041h9.12c1.216,0,5.016,0,5.928-1.216.456-.456.456-1.52,0-2.736-.912-3.648-9.424-4.1-13.679-4.1Z"
       transform="translate(-234.771 -138.982)"
       fill="#2d2926" />
    <path
       id="Path_466"
       data-name="Path 466"
       d="M611.459,55.5a1.521,1.521,0,0,1-1.52-1.52l-.76-35.114c0-.456-1.672-13.681-24.775-13.681a1.52,1.52,0,1,1,0-3.04c25.99,0,27.815,16.417,27.815,16.569l.76,35.266a1.521,1.521,0,0,1-1.52,1.52Z"
       transform="translate(-163.781 -0.31)"
       fill="#2d2926" />
    <path
       id="Path_467"
       data-name="Path 467"
       d="M628.16,88.95c0,8.057-2.28,14.593-8.967,14.593s-12.009-1.216-12.009-14.593,5.32-14.593,12.009-14.593S628.16,80.893,628.16,88.95Z"
       transform="translate(-172.122 -25.098)"
       fill="#fff" />
    <path
       id="Path_468"
       data-name="Path 468"
       d="M618.629,104.268c-8.36,0-13.528-2.736-13.528-16.113s5.168-16.113,13.528-16.113c3.952,0,10.488,2.128,10.488,16.113S622.429,104.268,618.629,104.268Zm0-29.186c-6.08,0-10.488.912-10.488,13.073s4.256,13.073,10.488,13.073,7.448-7.144,7.448-13.073-1.368-13.1-7.448-13.1Z"
       transform="translate(-171.407 -24.303)"
       fill="#2d2926" />
    <path
       id="Path_469"
       data-name="Path 469"
       d="M620.153,104.275h-.411c-.912-.3-5.775-2.433-5.775-16.417,0-14.441,5.016-15.2,6.079-15.353a1.524,1.524,0,0,1,.152,3.04c-.152,0-3.192,1.368-3.192,12.313,0,11.857,3.5,13.529,3.648,13.529a1.656,1.656,0,0,1,1.064,1.824,1.824,1.824,0,0,1-1.565,1.065Z"
       transform="translate(-174.451 -24.462)"
       fill="#2d2926" />
    <path
       id="Path_470"
       data-name="Path 470"
       d="M521.2,301.7h-.3a1.518,1.518,0,0,1-1.216-1.824l9.879-53.963a1.55,1.55,0,0,1,3.04.607l-9.88,53.963a1.811,1.811,0,0,1-1.52,1.216Z"
       transform="translate(-142.076 -83.555)"
       fill="#2d2926" />
    <path
       id="Path_472"
       data-name="Path 472"
       d="M775.063,416.658h9.271s6.992-.76,6.992-5.928c0,0,1.063-5.473-8.512-5.776s-21.888-5.169-21.888-5.169"
       transform="translate(-224.894 -136.801)"
       fill="#fff" />
    <path
       id="Path_473"
       data-name="Path 473"
       d="M783.444,417.413h-9.225a1.52,1.52,0,1,1,0-3.039h9.12c.76-.152,5.623-.913,5.623-4.409v-.3a2.427,2.427,0,0,0-.607-1.824c-.76-.912-2.433-1.977-6.536-1.977-9.88-.3-21.887-5.016-22.343-5.32a1.539,1.539,0,1,1,1.064-2.888c.152,0,12.008,4.712,21.279,5.016,4.256.152,7.3,1.216,8.816,3.192a5.9,5.9,0,0,1,1.216,4.1c-.152,5.167-5.471,6.992-8.36,7.448Z"
       transform="translate(-224.051 -136.036)"
       fill="#2d2926" />
    <path
       id="Path_474"
       data-name="Path 474"
       d="M770.722,390.571a1.363,1.363,0,0,1-.76-.151c-18.543-10.49-28.575-32.683-29.03-33.746a1.519,1.519,0,0,1,2.735-1.216c.152.151,10.032,22.194,27.663,32.226a1.688,1.688,0,0,1,.608,2.128,1.518,1.518,0,0,1-1.216.759Z"
       transform="translate(-218.016 -121.355)"
       fill="#2d2926" />
    <path
       id="Path_475"
       data-name="Path 475"
       d="M696,386.129l2.584,5.928a14.765,14.765,0,0,1-1.368,13.985c-4.56,6.992-8.664,14.592-4.408,16.569,3.8,1.671,12.92-7.449,14.288-10.185a18.73,18.73,0,0,0,1.976-6.081s4.408,5.625,11.1,5.625h30.7a3.863,3.863,0,0,0,3.5-4.408c-.3-4.1-5.169-4.409-11.7-5.016s-11.7-.608-16.871-5.473"
       transform="translate(-200.899 -132.113)"
       fill="#fff" />
    <path
       id="Path_476"
       data-name="Path 476"
       d="M693.032,423.614a6.439,6.439,0,0,1-1.672-.3,4.862,4.862,0,0,1-2.584-2.888c-1.063-3.8,2.28-9.881,6.233-15.962A12.516,12.516,0,0,0,696.225,392l-2.736-5.928a1.52,1.52,0,0,1,2.736-1.216l2.584,5.928a16.176,16.176,0,0,1-1.52,15.505c-1.671,2.584-6.687,10.488-5.927,13.529a1.125,1.125,0,0,0,.912.912c2.28,1.064,10.64-6.385,12.464-9.424a16.473,16.473,0,0,0,1.824-5.625,1.517,1.517,0,0,1,1.063-1.216,1.245,1.245,0,0,1,1.52.608s3.951,5.016,9.879,5.016h30.7c.607,0,2.128-.456,1.975-2.888s-2.888-2.888-9.727-3.5l-2.28-.152c-5.929-.456-10.944-.912-16.111-5.624a1.522,1.522,0,0,1-.609-1.7,1.521,1.521,0,0,1,2.585-.583c4.408,4.1,8.512,4.409,14.288,4.865l2.28.151c6.536.609,12.16,1.065,12.463,6.384a5.472,5.472,0,0,1-5.016,6.081H718.719a16.211,16.211,0,0,1-10.335-4.1,13.279,13.279,0,0,1-1.52,3.8C706.559,414.646,698.55,423.614,693.032,423.614Z"
       transform="translate(-200.06 -131.444)"
       fill="#2d2926" />
    <path
       id="Path_477"
       data-name="Path 477"
       d="M444,348.892l-22.951-2.433a33.257,33.257,0,0,0-34.806,22.194L355.384,525.831l63.989,6.081Z"
       transform="translate(-85.692 -118.438)"
       fill="#fcd299" />
    <path
       id="Path_478"
       data-name="Path 478"
       d="M595.613,332.349,487.7,327.788a30.127,30.127,0,0,0-31.158,26.754l-3.952,171.011,85.116-2.433L515.711,391.937h52.438a32.7,32.7,0,0,0,32.679-33.016V345.7Z"
       transform="translate(-119.057 -112.079)"
       fill="#fcd299" />
    <path
       id="Path_479"
       data-name="Path 479"
       d="M452.25,529.685a1.523,1.523,0,0,1-1.52-1.673L454.683,357a31.1,31.1,0,0,1,11.552-21.129,1.52,1.52,0,1,1,1.975,2.28,27.795,27.795,0,0,0-10.336,19.153l-3.952,171.011a1.932,1.932,0,0,1-1.672,1.368Z"
       transform="translate(-118.417 -114.69)"
       fill="#2d2926" />
    <path
       id="Path_480"
       data-name="Path 480"
       d="M662.933,311.4h-.456a1.366,1.366,0,0,1-.911-.912l-34.853-89.564a1.539,1.539,0,0,1,2.888-1.063l34.047,87.709,37.847-24.93c-6.535-11.248-55.173-95.005-64.6-108.686-9.576-13.985-28.119-14.9-28.423-14.9a1.52,1.52,0,1,1,0-3.04c.761,0,20.215.912,30.7,16.264,10.032,14.745,64.9,109.143,65.51,110.207a1.521,1.521,0,0,1-.456,1.975l-40.583,26.754A1.134,1.134,0,0,1,662.933,311.4Z"
       transform="translate(-172.043 -53.127)"
       fill="#2d2926" />
    <path
       id="Path_481"
       data-name="Path 481"
       d="M604.509,426.2H530.943a1.52,1.52,0,0,1,0-3.04h73.566a1.411,1.411,0,0,1,.6.089,1.428,1.428,0,0,1,.923,1.431,1.52,1.52,0,0,1-1.52,1.52Z"
       transform="translate(-145.431 -144.824)"
       fill="#2d2926" />
    <path
       id="Path_482"
       data-name="Path 482"
       d="M637.607,282.274a1.378,1.378,0,0,1-.583-.11,1.4,1.4,0,0,1-.482-.345,1.522,1.522,0,0,1,0-2.129s5.776-6.081.76-23.258c-2.28-7.6-8.056-16.417-13.831-24.93-8.056-12.161-15.656-23.713-14.288-32.834,1.063-7.448,4.1-12.16,6.992-16.72,3.039-4.864,6.231-9.729,7.447-18.394,2.28-16.721-3.5-44.995-3.5-45.146a1.539,1.539,0,0,1,2.888-1.065c.3.608,5.928,29.034,3.648,46.515-1.216,9.425-4.56,14.594-7.9,19.761a36.277,36.277,0,0,0-6.536,15.506c-1.216,8.056,6.536,19.609,13.832,30.706,5.775,8.665,11.7,17.785,14.135,25.842,5.624,19-1.216,25.993-1.52,26.3A2.789,2.789,0,0,1,637.607,282.274Z"
       transform="translate(-172.754 -39.507)"
       fill="#2d2926" />
    <path
       id="Path_483"
       data-name="Path 483"
       d="M656.789,367.538a.912.912,0,0,1-.609-.152c-15.048-6.841-14.743-23.409-14.743-23.713a1.52,1.52,0,0,1,3.04,0c0,.608-.152,14.9,13.071,20.826a1.518,1.518,0,0,1,.76,1.975,1.822,1.822,0,0,1-1.519,1.065Z"
       transform="translate(-183.879 -117.018)"
       fill="#2d2926" />
    <path
       id="Path_484"
       data-name="Path 484"
       d="M387.412,133.673c3.04-2.934-2.781-17.648-3.466-19.928s-4.788-5-7.037-1.885.121,24.321.121,24.321C379.828,137.823,384.524,136.88,387.412,133.673Z"
       transform="translate(-92.748 -37.488)"
       fill="#fff" />
    <path
       id="Path_485"
       data-name="Path 485"
       d="M375.311,136.941a2.84,2.84,0,0,1-.835-1.383c-.457-5.108-2.22-22.117.319-25.477a4.682,4.682,0,0,1,4.94-1.992,6.751,6.751,0,0,1,5.183,4.394,10.606,10.606,0,0,0,.608,1.945c3.48,10,5.106,17.131,2.4,19.762a13.418,13.418,0,0,1-6.08,3.283A9.967,9.967,0,0,1,375.311,136.941Zm2.28-24.7c-1.018,1.627-.608,12.663.334,22.194a8.513,8.513,0,0,0,7.6-2.417c.715-.684,1.063-3.724-3.177-16.341-.228-.988-.578-1.778-.653-2.113a4.134,4.134,0,0,0-2.553-2.021.927.927,0,0,0-.7,0A1.521,1.521,0,0,0,377.592,112.239Z"
       transform="translate(-91.895 -36.637)"
       fill="#2d2926" />
    <path
       id="Path_486"
       data-name="Path 486"
       d="M368.737,83.57l40.219-9.12,23.422,65-40.217,9.121Z"
       transform="translate(-90.275 -25.129)"
       fill="rgba(75,56,76,0.25)" />
    <path
       id="Path_487"
       data-name="Path 487"
       d="M418.419,92.684a2.2,2.2,0,1,0-2.637-1.662A2.206,2.206,0,0,0,418.419,92.684Z"
       transform="translate(-106.405 -29.894)"
       fill="#2d2926" />
    <path
       id="Path_488"
       data-name="Path 488"
       d="M427.947,253.919l-33.44-58.386a2.2,2.2,0,0,1-.182-1.52,1.527,1.527,0,0,1,.4-.586,1.509,1.509,0,0,1,.62-.342l37.437-12.161a1.516,1.516,0,0,1,1.24-.062,1.5,1.5,0,0,1,.53.348,1.532,1.532,0,0,1,.343.535l19.257,35.828,19.456-32.424a46.782,46.782,0,0,1,29.457-21.281l10.64-2.4a1.7,1.7,0,0,1,.745,3.313l-10.639,2.4a42.724,42.724,0,0,0-27.36,19.761L455.5,221.907a1.779,1.779,0,0,1-1.519.881,2.064,2.064,0,0,1-1.414-.9l-19.957-37.241-34.2,11.05,32.344,56.715a1.853,1.853,0,0,1-.714,2.249l-.5.122C428.707,254.969,427.931,254.619,427.947,253.919Z"
       transform="translate(-99.037 -54.992)"
       fill="#2d2926" />
    <path
       id="Path_489"
       data-name="Path 489"
       d="M420.494,174.165c-3.33-6.2-11.856-9.318-11.856-9.318s.167,0,7.4.41,6.414-3.891,6.414-3.891-.213-4.819-8.406-4.88c3.04-1.383,6.521-2.706,6.08-5.715-.745-4.013-7.964-2.888-7.964-2.888s5.487-1.08,4.727-5.26c-.76-3.3-8.542-3.04-8.542-3.04s5.456-1.247,3.6-6.384c-2.341-5.746-21.734-2.219-29.958,2.949-.456.274-.745.517-1.216.806-7.4,5.67-.7,22.254,6.49,28.623a39.541,39.541,0,0,1,10.047,16.1S416.253,175.473,420.494,174.165Z"
       transform="translate(-93.302 -44.28)"
       fill="#fff" />
    <path
       id="Path_490"
       data-name="Path 490"
       d="M395.138,182.742a1.519,1.519,0,0,1-.76-1.049c0-.167-2.842-9.455-9.576-15.414-5.213-4.56-10.473-14.684-10.214-22.8a10.181,10.181,0,0,1,3.861-8.36,6.271,6.271,0,0,1,1.337-1c7.174-4.408,21.584-7.6,28.53-5.412a6.083,6.083,0,0,1,3.876,3.3,5.928,5.928,0,0,1-.2,5.259.632.632,0,0,1-.091.365c2.371.516,4.863,1.52,5.426,4a6.419,6.419,0,0,1-.791,4.18,5.035,5.035,0,0,1,4.059,4.119c.531,2.326-.7,3.816-2.326,5.062a7.268,7.268,0,0,1,4.893,5.5,4.225,4.225,0,0,1-1.064,3.724q-2.1,2.3-6.839,2.067a21.67,21.67,0,0,1,5.791,6.354,1.265,1.265,0,0,1,.122,1.353,1.385,1.385,0,0,1-.38.6,1.369,1.369,0,0,1-.624.332l-23.512,7.6A11.634,11.634,0,0,0,395.138,182.742ZM407.3,165.55a1.67,1.67,0,0,1-1.155-2.006,1.868,1.868,0,0,1,1.809-1.277l7.386.41a5.686,5.686,0,0,0,4.348-.805,1.082,1.082,0,0,0,.3-.942v-.167c.122-.2-.426-3.389-6.673-3.359a1.748,1.748,0,0,1-.76-3.313l.456-.275c2.705-1.14,4.56-2.082,4.408-3.6-.288-2.023-4.773-1.886-5.928-1.612a1.686,1.686,0,0,1-1.868-1.321,1.515,1.515,0,0,1,.236-1.236,1.523,1.523,0,0,1,1.086-.634,5.608,5.608,0,0,0,3.039-1.748,1.625,1.625,0,0,0,.2-1.428c-.273-1.155-3.921-1.9-6.839-1.763a1.808,1.808,0,0,1-1.733-1.52,1.779,1.779,0,0,1,1.307-1.855,4.053,4.053,0,0,0,2.431-1.6,2.676,2.676,0,0,0,0-2.432,3.038,3.038,0,0,0-1.868-1.323c-5.442-1.717-18.757.942-25.642,5.123-.289.228-.745.517-1.034.761a7.6,7.6,0,0,0-2.523,5.791c-.364,6.856,4.56,16.022,9.12,20.035a39.384,39.384,0,0,1,10.077,15.292l19.759-6.385c-3.541-4.439-9.987-6.81-9.987-6.81Z"
       transform="translate(-92.28 -43.509)"
       fill="#2d2926" />
    <path
       id="Path_491"
       data-name="Path 491"
       d="M403.019,147.237a1.751,1.751,0,0,1,.7-2.25c1.885-.942,10.4-2.523,13.087-2.964a1.612,1.612,0,1,1,.546,3.177c-5,.973-11.171,2.189-12.083,2.752l-.5.106a1.625,1.625,0,0,1-1.748-.821Z"
       transform="translate(-101.986 -48.316)"
       fill="#2d2926" />
    <path
       id="Path_492"
       data-name="Path 492"
       d="M422.647,157.807c-.167,0-10.944,1.611-13.679,2.417a1.707,1.707,0,0,1-1.078-3.238c3.283-.912,13.678-2.417,14.226-2.523a1.837,1.837,0,0,1,1.9,1.52,1.67,1.67,0,0,1-1.323,1.869Z"
       transform="translate(-103.314 -52.593)"
       fill="#2d2926" />
    <path
       id="Path_493"
       data-name="Path 493"
       d="M424.99,170.7c-2.964,0-11.278.122-14.075,1.627a1.7,1.7,0,0,1-1.52-3.041c3.875-2.1,14.334-2.022,15.565-1.96a1.763,1.763,0,0,1,1.61,1.717,1.656,1.656,0,0,1-1.368,1.7C425.036,170.864,424.868,170.894,424.99,170.7Z"
       transform="translate(-103.909 -57)"
       fill="#2d2926" />
    <path
       id="Path_494"
       data-name="Path 494"
       d="M256.92,253.064H122.861V330.74H256.92Z"
       transform="translate(-5.878 -86.439)"
       fill="#fff" />
    <path
       id="Path_495"
       data-name="Path 495"
       d="M256.124,331.465H122.065a1.412,1.412,0,0,1-.6-.087,1.428,1.428,0,0,1-.923-1.433V252.268a1.422,1.422,0,0,1,.088-.6,1.43,1.43,0,0,1,1.432-.923H256.124a1.429,1.429,0,0,1,1.52,1.52v77.676a1.518,1.518,0,0,1-1.52,1.52Zm-132.539-3.039H254.6V253.789H123.585Z"
       transform="translate(-5.083 -85.643)"
       fill="#2d2926" />
    <path
       id="Path_496"
       data-name="Path 496"
       d="M256.92,134.79H122.861v77.676H256.92Z"
       transform="translate(-5.878 -45.841)"
       fill="rgba(75,56,76,0.75)" />
    <path
       id="Path_497"
       data-name="Path 497"
       d="M260.77,253.789H107.255a1.52,1.52,0,0,1,0-3.04H260.77a1.43,1.43,0,0,1,1.52,1.52,1.52,1.52,0,0,1-1.52,1.52Z"
       transform="translate(0 -85.643)"
       fill="#2d2926" />
    <path
       id="Path_498"
       data-name="Path 498"
       d="M221.426,227.132h-65.28a1.006,1.006,0,0,1-.8-.443,1.891,1.891,0,0,1,0-2.136,1.006,1.006,0,0,1,.8-.443h65.28a.83.83,0,0,1,.443.087,1.093,1.093,0,0,1,.376.326,1.538,1.538,0,0,1,.243.5,1.865,1.865,0,0,1,.065.594,1.8,1.8,0,0,1-.33,1.067A1.006,1.006,0,0,1,221.426,227.132Z"
       transform="translate(-16.917 -76.5)"
       fill="#2d2926" />
    <path
       id="Path_499"
       data-name="Path 499"
       d="M233.319,165.733h-76.97a1.258,1.258,0,0,1-.941-.443,1.662,1.662,0,0,1,0-2.136,1.257,1.257,0,0,1,.941-.442h76.97a1.131,1.131,0,0,1,.523.087,1.256,1.256,0,0,1,.444.326,1.445,1.445,0,0,1,.286.5,1.589,1.589,0,0,1,.077.594,1.622,1.622,0,0,1-.389,1.068A1.256,1.256,0,0,1,233.319,165.733Z"
       transform="translate(-16.917 -55.425)"
       fill="#2d2926" />
    <path
       id="Path_500"
       data-name="Path 500"
       d="M208.542,176.478H155.927a.788.788,0,0,1-.642-.443,2.278,2.278,0,0,1,0-2.136.788.788,0,0,1,.642-.443h52.614a.555.555,0,0,1,.357.088.974.974,0,0,1,.3.326,1.736,1.736,0,0,1,.2.5,2.339,2.339,0,0,1,.053.594,2.111,2.111,0,0,1-.267,1.068A.787.787,0,0,1,208.542,176.478Z"
       transform="translate(-16.917 -59.112)"
       fill="#2d2926" />
    <path
       id="Path_501"
       data-name="Path 501"
       d="M221.97,185.688H157.665a.988.988,0,0,1-.785-.443,1.914,1.914,0,0,1,0-2.136.988.988,0,0,1,.785-.443H221.97a.8.8,0,0,1,.437.088,1.09,1.09,0,0,1,.371.326,1.554,1.554,0,0,1,.238.5,1.927,1.927,0,0,1,.065.594,1.822,1.822,0,0,1-.326,1.068A.991.991,0,0,1,221.97,185.688Z"
       transform="translate(-17.444 -62.274)"
       fill="#2d2926" />
    <path
       id="Path_502"
       data-name="Path 502"
       d="M246.08,196.452H158.074a1.52,1.52,0,0,1,0-3.041H246.08a1.433,1.433,0,0,1,.6.089,1.433,1.433,0,0,1,.835.835,1.432,1.432,0,0,1,.089.6,1.521,1.521,0,0,1-1.52,1.52Z"
       transform="translate(-17.444 -65.962)"
       fill="#2d2926" />
    <path
       id="Path_503"
       data-name="Path 503"
       d="M194.665,207.177H155.692c-.178,0-.349-.159-.475-.442a2.985,2.985,0,0,1,0-2.136c.126-.283.3-.443.475-.443h38.973a.33.33,0,0,1,.264.088.893.893,0,0,1,.225.325,2.12,2.12,0,0,1,.145.5,3.1,3.1,0,0,1,.039.594,2.725,2.725,0,0,1-.2,1.068C195.015,207.019,194.844,207.177,194.665,207.177Z"
       transform="translate(-16.917 -69.65)"
       fill="#2d2926" />
    <path
       id="Path_504"
       data-name="Path 504"
       d="M244.545,216.407H156.539a1.52,1.52,0,0,1,0-3.041h88.005a1.43,1.43,0,0,1,1.52,1.52,1.521,1.521,0,0,1-1.52,1.52Z"
       transform="translate(-16.917 -72.811)"
       fill="#2d2926" />
    <path
       id="Path_505"
       data-name="Path 505"
       d="M159.76,311.132a18.849,18.849,0,1,0-18.847-18.85A18.849,18.849,0,0,0,159.76,311.132Z"
       transform="translate(-12.075 -93.431)"
       fill="#fcd299" />
    <path
       id="Path_506"
       data-name="Path 506"
       d="M161.411,306.44a1.368,1.368,0,0,1-.76-.152,1.593,1.593,0,0,1-.76-1.368V289.263a1.6,1.6,0,0,1,.76-1.368,1.381,1.381,0,0,1,1.52,0l13.071,7.9a1.611,1.611,0,0,1,0,2.736l-13.071,7.9ZM162.931,292v10.337l8.511-5.169Z"
       transform="translate(-18.589 -98.316)"
       fill="#2d2926" />
    <path
       id="Path_507"
       data-name="Path 507"
       d="M274.664,296.609H213.715a1.52,1.52,0,1,1,0-3.04h60.949a1.429,1.429,0,0,1,1.432.923,1.41,1.41,0,0,1,.087.6,1.525,1.525,0,0,1-.444,1.075,1.522,1.522,0,0,1-1.076.445Z"
       transform="translate(-36.542 -100.341)"
       fill="#2d2926" />
    <path
       id="Path_508"
       data-name="Path 508"
       d="M218.123,322.938h-.912a5.06,5.06,0,0,1-5.016-5.016V312.4a5.059,5.059,0,0,1,5.016-5.016h.912a5.059,5.059,0,0,1,5.015,5.016v5.472a5.059,5.059,0,0,1-5.015,5.062Zm-.912-12.616a2,2,0,0,0-1.976,1.975v5.473a2.005,2.005,0,0,0,1.976,1.975h.912a2.008,2.008,0,0,0,1.976-1.975V312.3a2.006,2.006,0,0,0-1.976-1.975Z"
       transform="translate(-36.542 -105.085)"
       fill="#2d2926" />
    <path
       id="Path_509"
       data-name="Path 509"
       d="M238.721,322.938h-.912a5.06,5.06,0,0,1-5.016-5.016V312.4a5.059,5.059,0,0,1,5.016-5.016h.912a5.062,5.062,0,0,1,5.016,5.016v5.472a5.062,5.062,0,0,1-5.016,5.062Zm-.912-12.616a2,2,0,0,0-1.976,1.975v5.473a2.005,2.005,0,0,0,1.976,1.975h.912a2.007,2.007,0,0,0,1.976-1.975V312.3a2.005,2.005,0,0,0-1.976-1.975Z"
       transform="translate(-43.613 -105.085)"
       fill="#2d2926" />
    <path
       id="Path_510"
       data-name="Path 510"
       d="M278.3,322.938h-.912a5.06,5.06,0,0,1-5.015-5.016V312.4a5.059,5.059,0,0,1,5.015-5.016h.912a5.059,5.059,0,0,1,5.016,5.016v5.472a5.06,5.06,0,0,1-5.016,5.062Zm-.912-12.616a2.006,2.006,0,0,0-1.976,1.975v5.473a2.008,2.008,0,0,0,1.976,1.975h.912a2.005,2.005,0,0,0,1.976-1.975V312.3a2,2,0,0,0-1.976-1.975Z"
       transform="translate(-57.197 -105.085)"
       fill="#2d2926" />
    <path
       id="Path_511"
       data-name="Path 511"
       d="M298.662,322.938h-.912a5.06,5.06,0,0,1-5.016-5.016V312.4a5.059,5.059,0,0,1,5.016-5.016h.912a5.059,5.059,0,0,1,5.016,5.016v5.472a4.861,4.861,0,0,1-5.016,5.062Zm-.912-12.616a2,2,0,0,0-1.975,1.975v5.473a2.005,2.005,0,0,0,1.975,1.975h.912a2.006,2.006,0,0,0,1.976-1.975V312.3a2.005,2.005,0,0,0-1.976-1.975Z"
       transform="translate(-64.188 -105.085)"
       fill="#2d2926" />
    <path
       id="Path_512"
       data-name="Path 512"
       d="M260.081,315.771a.919.919,0,0,1-.608-.152c-.152-.152-.3-.152-.455-.3a.135.135,0,0,1-.058-.011.169.169,0,0,1-.05-.033.153.153,0,0,1-.044-.107.539.539,0,0,1-.152-.3v-.608a1.389,1.389,0,0,1,.456-1.065c.152-.151.3-.3.456-.3a1.661,1.661,0,0,1,1.216,0c.152,0,.3.152.456.3a1.387,1.387,0,0,1,.456,1.065v.3c0,.152,0,.152-.152.3s-.152.152-.152.3a.149.149,0,0,1-.045.107.158.158,0,0,1-.049.033.137.137,0,0,1-.058.011c-.151.152-.3.3-.456.3A1.372,1.372,0,0,1,260.081,315.771Z"
       transform="translate(-52.509 -106.932)"
       fill="#2d2926" />
    <path
       id="Path_513"
       data-name="Path 513"
       d="M260,324.153a1.523,1.523,0,0,1-1.52-1.52.92.92,0,0,1,.152-.608c.152-.152.152-.3.3-.456a.153.153,0,0,1,.044-.108.151.151,0,0,1,.107-.044.533.533,0,0,1,.3-.152c.152,0,.152,0,.3-.152h.608c.152,0,.152,0,.3.152s.152.152.3.152a.151.151,0,0,1,.152.152c.151.152.3.3.3.456s.152.456.152.608a1.521,1.521,0,0,1-1.52,1.52Z"
       transform="translate(-52.428 -109.796)"
       fill="#2d2926" />
  </g>
</svg>
