<svg xmlns="http://www.w3.org/2000/svg" width="735.005" height="1585" viewBox="0 0 735.005 1585">
  <path id="wav" d="M1439.61,735H403.8c-1.108-.989-2.453-.527-3.682-.527q-168.255-.033-336.516-.022c-.823,0-1.652-.055-2.47.011a2.324,2.324,0,0,1-2.354-1.456c-5.62-9.508-10.971-19.17-15.839-29.085-3.019-6.141-5.713-12.436-8.534-18.671a400.339,400.339,0,0,1-14.84-38.544A384.027,384.027,0,0,1,8.375,606.141c-3.513-16.27-6.344-32.656-7.267-49.316A3.768,3.768,0,0,0,0,553.859v-2.2a4.138,4.138,0,0,0,0-4.389V519.825a6.184,6.184,0,0,0,0-5.488V512.69a3.156,3.156,0,0,0,1.087-2.423c.17-5.279.933-10.491,1.6-15.726A234.492,234.492,0,0,1,12.3,451.982a231.734,231.734,0,0,1,21.19-47.4,264.1,264.1,0,0,1,48.3-59.741,356.777,356.777,0,0,1,31.387-25.861,389.626,389.626,0,0,1,48.034-29.887c9.209-4.851,18.611-9.327,27.9-14.018a155.711,155.711,0,0,0,45.663-34.238,186.283,186.283,0,0,0,26.41-38.434c11.174-21.065,20.2-43.207,31.986-63.982,12.486-22.01,27.93-41.526,47.336-57.9a260.333,260.333,0,0,1,47.562-31.436,356.186,356.186,0,0,1,39.8-17.533A554.234,554.234,0,0,1,486.7,12.65a395.007,395.007,0,0,1,44.648-8.9C542.063,2.307,552.765.8,563.6.549c.725-.016,1.482.1,2.036-.549h38.951a1.782,1.782,0,0,0,1.482.544c10.472.137,20.839,1.478,31.212,2.724,11.009,1.318,21.942,3.125,32.825,5.18,29.676,5.6,58.989,12.892,88.51,19.22,24.259,5.2,48.6,9.876,73.225,13.068,13.062,1.692,26.152,3.054,39.258,4.2,10.236.9,20.526,1.582,30.789,1.626,14.511.06,29.023.45,43.55-.335,10.357-.56,20.718-.972,31.069-1.692,8.979-.626,17.953-1.318,26.874-2.378,11.99-1.423,24.02-2.554,36.04-3.653,9.5-.873,19.06-1.62,28.6-1.626,17.43-.011,34.88-.555,52.32.368,11.63.615,23.21,1.478,34.78,2.774,9.22,1.033,18.38,2.378,27.47,4.136a324.5,324.5,0,0,1,47.98,12.82,232,232,0,0,1,40.89,18.984,167.855,167.855,0,0,1,41.76,34.968,138.6,138.6,0,0,1,17.32,25.5c10.5,19.824,15.63,41.136,16.83,63.41.66,12.03-.29,24.043-1.63,36.018a88.514,88.514,0,0,0,2,32.545,101.022,101.022,0,0,0,23.14,42.329,129.726,129.726,0,0,0,37.71,28.607c13.84,7.119,28.64,11.046,43.92,13.6,25.57,4.273,49.51,12.787,70.79,28.014a128.081,128.081,0,0,1,27.67,26.937c12.75,16.82,21.05,35.8,26.24,56.144a214.137,214.137,0,0,1,6.68,42.5c.05.956.12,1.835,1.11,2.307v1.1a6.157,6.157,0,0,0,0,5.487v41.719a6.157,6.157,0,0,0,0,5.487v2.2c-1.11.939-1.04,2.224-1.11,3.515-.34,5.993-.56,12-1.16,17.968-.92,9.211-2.24,18.384-3.17,27.591a183.261,183.261,0,0,1-7.91,36.2,272.813,272.813,0,0,1-22.82,51.76,216.861,216.861,0,0,1-18.46,28.4,2.935,2.935,0,0,1-2.69,1.433c-6.39-.4-12.74.544-19.13.588-6.74.044-13.48.066-20.23.335-8.46.335-16.94.72-25.42.72-4.93,0-9.83.472-14.73.73-2.81.149-5.82-.291-8.56.917Z" transform="translate(735.005) rotate(90)" fill="rgba(231,221,238,0.3)"/>
</svg>
